<svg width="48" height="48" viewBox="0 0 48 48" fill="none" xmlns="http://www.w3.org/2000/svg">
<rect width="48" height="48" rx="24" fill="#FFF2FD"/>
<path d="M35 17H30.625C31.2549 16.2046 31.5589 15.1996 31.4756 14.1884C31.3923 13.1772 30.9279 12.2355 30.1764 11.5539C29.4249 10.8723 28.4424 10.5017 27.4279 10.5173C26.4135 10.5328 25.4428 10.9332 24.7125 11.6375C24.4179 11.9357 24.1769 12.2824 24 12.6625C23.8231 12.2824 23.5821 11.9357 23.2875 11.6375C22.5572 10.9332 21.5865 10.5328 20.5721 10.5173C19.5576 10.5017 18.5751 10.8723 17.8236 11.5539C17.0721 12.2355 16.6077 13.1772 16.5244 14.1884C16.4411 15.1996 16.7451 16.2046 17.375 17H13C12.4696 17 11.9609 17.2107 11.5858 17.5858C11.2107 17.9609 11 18.4696 11 19V23C11 23.5304 11.2107 24.0391 11.5858 24.4142C11.9609 24.7893 12.4696 25 13 25V33C13 33.5304 13.2107 34.0391 13.5858 34.4142C13.9609 34.7893 14.4696 35 15 35H33C33.5304 35 34.0391 34.7893 34.4142 34.4142C34.7893 34.0391 35 33.5304 35 33V25C35.5304 25 36.0391 24.7893 36.4142 24.4142C36.7893 24.0391 37 23.5304 37 23V19C37 18.4696 36.7893 17.9609 36.4142 17.5858C36.0391 17.2107 35.5304 17 35 17ZM26.125 13.05C26.3069 12.8492 26.5277 12.6875 26.774 12.5746C27.0203 12.4618 27.287 12.4002 27.5579 12.3935C27.8287 12.3868 28.0981 12.4353 28.3497 12.5359C28.6012 12.6364 28.8297 12.7871 29.0213 12.9787C29.2129 13.1703 29.3635 13.3988 29.4641 13.6503C29.5647 13.9019 29.6132 14.1713 29.6065 14.4421C29.5998 14.713 29.5382 14.9796 29.4253 15.226C29.3125 15.4723 29.1508 15.6931 28.95 15.875C28.3375 16.5 26.55 16.8375 25.0375 16.9625C25.1625 15.45 25.5 13.6625 26.125 13.05ZM19.05 13.05C19.4265 12.679 19.9339 12.471 20.4625 12.471C20.9911 12.471 21.4985 12.679 21.875 13.05C22.5 13.6625 22.8375 15.45 22.9625 16.9625C21.45 16.8375 19.6625 16.5 19.05 15.875C18.679 15.4985 18.471 14.9911 18.471 14.4625C18.471 13.9339 18.679 13.4265 19.05 13.05ZM35 23H25V32C25 32.2652 24.8946 32.5196 24.7071 32.7071C24.5196 32.8946 24.2652 33 24 33C23.7348 33 23.4804 32.8946 23.2929 32.7071C23.1054 32.5196 23 32.2652 23 32V23H13V19H23V23H25V19H35V23Z" fill="#F547D9"/>
</svg>
