<svg width="48" height="48" viewBox="0 0 48 48" fill="none" xmlns="http://www.w3.org/2000/svg">
<rect width="48" height="48" rx="24" fill="#FFFEF2"/>
<path d="M38 22H36.65L33.175 14.1875C33.0193 13.8335 32.7637 13.5325 32.4396 13.3216C32.1154 13.1107 31.7367 12.9989 31.35 13H16.65C16.2633 12.9989 15.8846 13.1107 15.5604 13.3216C15.2363 13.5325 14.9807 13.8335 14.825 14.1875L11.35 22H10C9.73478 22 9.48043 22.1054 9.29289 22.2929C9.10536 22.4804 9 22.7348 9 23C9 23.2652 9.10536 23.5196 9.29289 23.7071C9.48043 23.8947 9.73478 24 10 24H11V34C11 34.5304 11.2107 35.0391 11.5858 35.4142C11.9609 35.7893 12.4696 36 13 36H16C16.5304 36 17.0391 35.7893 17.4142 35.4142C17.7893 35.0391 18 34.5304 18 34V32H30V34C30 34.5304 30.2107 35.0391 30.5858 35.4142C30.9609 35.7893 31.4696 36 32 36H35C35.5304 36 36.0391 35.7893 36.4142 35.4142C36.7893 35.0391 37 34.5304 37 34V24H38C38.2652 24 38.5196 23.8947 38.7071 23.7071C38.8946 23.5196 39 23.2652 39 23C39 22.7348 38.8946 22.4804 38.7071 22.2929C38.5196 22.1054 38.2652 22 38 22ZM18 28H16C15.7348 28 15.4804 27.8947 15.2929 27.7071C15.1054 27.5196 15 27.2652 15 27C15 26.7348 15.1054 26.4804 15.2929 26.2929C15.4804 26.1054 15.7348 26 16 26H18C18.2652 26 18.5196 26.1054 18.7071 26.2929C18.8946 26.4804 19 26.7348 19 27C19 27.2652 18.8946 27.5196 18.7071 27.7071C18.5196 27.8947 18.2652 28 18 28ZM30 28C29.7348 28 29.4804 27.8947 29.2929 27.7071C29.1054 27.5196 29 27.2652 29 27C29 26.7348 29.1054 26.4804 29.2929 26.2929C29.4804 26.1054 29.7348 26 30 26H32C32.2652 26 32.5196 26.1054 32.7071 26.2929C32.8946 26.4804 33 26.7348 33 27C33 27.2652 32.8946 27.5196 32.7071 27.7071C32.5196 27.8947 32.2652 28 32 28H30Z" fill="#FDC500"/>
</svg>
