<svg width="36" height="37" viewBox="0 0 36 37" fill="none" xmlns="http://www.w3.org/2000/svg">
<path d="M35.4797 19.3547L18.9797 35.8547C18.719 36.1129 18.3669 36.2577 18 36.2577C17.633 36.2577 17.281 36.1129 17.0203 35.8547L0.520277 19.3547C0.333745 19.1559 0.207311 18.9083 0.155603 18.6407C0.103896 18.373 0.129027 18.0962 0.228089 17.8422C0.333279 17.5919 0.51019 17.3784 0.736529 17.2285C0.962868 17.0787 1.2285 16.9991 1.49996 17H8.37496V12.875C8.37496 12.5103 8.51983 12.1606 8.77769 11.9027C9.03555 11.6449 9.38529 11.5 9.74996 11.5H26.25C26.6146 11.5 26.9644 11.6449 27.2222 11.9027C27.4801 12.1606 27.625 12.5103 27.625 12.875V17H34.5C34.7714 16.9991 35.0371 17.0787 35.2634 17.2285C35.4897 17.3784 35.6666 17.5919 35.7718 17.8422C35.8709 18.0962 35.896 18.373 35.8443 18.6407C35.7926 18.9083 35.6662 19.1559 35.4797 19.3547ZM27.625 1.875C27.625 1.51033 27.4801 1.16059 27.2222 0.902728C26.9644 0.644866 26.6146 0.5 26.25 0.5H9.74996C9.38529 0.5 9.03555 0.644866 8.77769 0.902728C8.51983 1.16059 8.37496 1.51033 8.37496 1.875C8.37496 2.23967 8.51983 2.58941 8.77769 2.84727C9.03555 3.10513 9.38529 3.25 9.74996 3.25H26.25C26.6146 3.25 26.9644 3.10513 27.2222 2.84727C27.4801 2.58941 27.625 2.23967 27.625 1.875ZM27.625 7.375C27.625 7.01033 27.4801 6.66059 27.2222 6.40273C26.9644 6.14487 26.6146 6 26.25 6H9.74996C9.38529 6 9.03555 6.14487 8.77769 6.40273C8.51983 6.66059 8.37496 7.01033 8.37496 7.375C8.37496 7.73967 8.51983 8.08941 8.77769 8.34727C9.03555 8.60513 9.38529 8.75 9.74996 8.75H26.25C26.6146 8.75 26.9644 8.60513 27.2222 8.34727C27.4801 8.08941 27.625 7.73967 27.625 7.375Z" fill="#EE0000"/>
</svg>
