<svg width="233" height="232" viewBox="0 0 233 232" fill="none" xmlns="http://www.w3.org/2000/svg">
<mask id="mask0_189_3401" style="mask-type:alpha" maskUnits="userSpaceOnUse" x="122" y="0" width="110" height="110">
<path d="M123.365 6.84421C123.595 3.19057 126.747 0.395471 130.382 0.833464C156.098 3.93254 180.111 15.5651 198.519 33.9698C216.926 52.3745 228.562 76.3857 231.665 102.102C232.103 105.737 229.308 108.89 225.655 109.12L215.732 109.745C212.078 109.976 208.954 107.195 208.464 103.567C205.75 83.4911 196.527 64.7855 182.115 50.3758C167.703 35.9662 148.996 26.7456 128.92 24.0347C125.292 23.5449 122.511 20.4211 122.741 16.7675L123.365 6.84421Z" fill="#333333"/>
</mask>
<g mask="url(#mask0_189_3401)">
<circle cx="116.5" cy="116" r="116" fill="#FAFAFA"/>
<circle cx="165.22" cy="27.8402" r="116" fill="#99C1FE"/>
</g>
<mask id="mask1_189_3401" style="mask-type:alpha" maskUnits="userSpaceOnUse" x="0" y="0" width="232" height="232">
<path d="M225.655 122.872C229.309 123.102 232.104 126.255 231.666 129.889C229.274 149.723 221.794 168.643 209.903 184.789C196.699 202.718 178.614 216.467 157.808 224.396C137.001 232.325 114.353 234.098 92.5657 229.504C70.7788 224.91 50.7745 214.142 34.9412 198.487C19.108 182.832 8.11478 162.951 3.27428 141.218C-1.56622 119.484 -0.0494935 96.817 7.64336 75.9222C15.3362 55.0274 28.8801 36.7881 46.6579 23.382C62.6681 11.309 81.5028 3.61524 101.308 0.999075C104.937 0.519658 108.121 3.27871 108.392 6.9295L109.129 16.845C109.401 20.4958 106.656 23.651 103.033 24.1822C87.6704 26.4354 73.0802 32.5143 60.6264 41.9056C46.4041 52.6305 35.569 67.2219 29.4147 83.9377C23.2604 100.654 22.047 118.787 25.9194 136.174C29.7918 153.561 38.5864 169.466 51.253 181.99C63.9196 194.514 79.9231 203.128 97.3525 206.803C114.782 210.478 132.901 209.06 149.546 202.717C166.191 196.374 180.659 185.374 191.222 171.031C200.472 158.472 206.385 143.814 208.464 128.426C208.954 124.798 212.078 122.018 215.732 122.248L225.655 122.872Z" fill="#333333"/>
</mask>
<g mask="url(#mask1_189_3401)">
<circle cx="116.5" cy="116" r="116" fill="#FAFAFA"/>
<ellipse cx="115.826" cy="126.791" rx="130.163" ry="130.837" fill="#0051CA"/>
</g>
<path d="M92.1906 98.6536V103.214C91.044 104.04 89.7106 104.454 88.1906 104.454C87.2573 104.454 86.412 104.31 85.6546 104.022C84.9026 103.728 84.26 103.323 83.7266 102.806C83.1933 102.283 82.7826 101.662 82.4946 100.942C82.2066 100.222 82.0626 99.4296 82.0626 98.5656C82.0626 97.6963 82.2013 96.9016 82.4786 96.1816C82.756 95.4563 83.1533 94.8349 83.6706 94.3176C84.188 93.7949 84.812 93.3923 85.5426 93.1096C86.2733 92.8216 87.0946 92.6776 88.0066 92.6776C88.4706 92.6776 88.9 92.7149 89.2946 92.7896C89.6946 92.8589 90.0653 92.9576 90.4066 93.0856C90.748 93.2136 91.0626 93.3683 91.3506 93.5496C91.6386 93.7309 91.9026 93.9336 92.1426 94.1576L91.6066 95.0136C91.5213 95.1469 91.412 95.2296 91.2786 95.2616C91.1453 95.2936 91.0013 95.2616 90.8466 95.1656C90.692 95.0749 90.5266 94.9789 90.3506 94.8776C90.18 94.7763 89.9826 94.6829 89.7586 94.5976C89.5346 94.5069 89.276 94.4349 88.9826 94.3816C88.6893 94.3229 88.3426 94.2936 87.9426 94.2936C87.3346 94.2936 86.7853 94.3949 86.2946 94.5976C85.8093 94.7949 85.3933 95.0803 85.0466 95.4536C84.7 95.8216 84.4333 96.2696 84.2466 96.7976C84.06 97.3256 83.9666 97.9149 83.9666 98.5656C83.9666 99.2536 84.0653 99.8696 84.2626 100.414C84.46 100.952 84.74 101.411 85.1026 101.79C85.4653 102.163 85.9026 102.448 86.4146 102.646C86.932 102.843 87.508 102.942 88.1426 102.942C88.6173 102.942 89.0386 102.891 89.4066 102.79C89.78 102.688 90.1453 102.547 90.5026 102.366V100.078H88.8946C88.772 100.078 88.676 100.046 88.6066 99.9816C88.5373 99.9123 88.5026 99.8243 88.5026 99.7176V98.6536H92.1906ZM95.0335 101.15C95.0335 101.438 95.0735 101.707 95.1535 101.958C95.2388 102.203 95.3615 102.419 95.5215 102.606C95.6815 102.787 95.8788 102.931 96.1135 103.038C96.3535 103.139 96.6282 103.19 96.9375 103.19C97.5668 103.19 98.0602 103.011 98.4175 102.654C98.7748 102.296 99.0015 101.795 99.0975 101.15H95.0335ZM93.6015 97.3416C93.7988 97.1016 94.0255 96.8989 94.2815 96.7336C94.5428 96.5683 94.8175 96.4349 95.1055 96.3336C95.3935 96.2269 95.6895 96.1523 95.9935 96.1096C96.2975 96.0616 96.5962 96.0376 96.8895 96.0376C97.4548 96.0376 97.9775 96.1336 98.4575 96.3256C98.9428 96.5123 99.3615 96.7896 99.7135 97.1576C100.066 97.5256 100.34 97.9816 100.538 98.5256C100.74 99.0696 100.842 99.6963 100.842 100.406C100.842 100.966 100.751 101.494 100.57 101.99C100.394 102.48 100.138 102.907 99.8015 103.27C99.4708 103.632 99.0655 103.92 98.5855 104.134C98.1108 104.342 97.5722 104.446 96.9695 104.446C96.4682 104.446 96.0042 104.363 95.5775 104.198C95.1562 104.032 94.7908 103.795 94.4815 103.486C94.1722 103.171 93.9295 102.787 93.7535 102.334C93.5828 101.875 93.4975 101.352 93.4975 100.766C93.4975 100.504 93.5242 100.328 93.5775 100.238C93.6362 100.142 93.7428 100.094 93.8975 100.094H99.1375C99.1162 99.6349 99.0442 99.2376 98.9215 98.9016C98.7988 98.5603 98.6335 98.2776 98.4255 98.0536C98.2228 97.8296 97.9775 97.6643 97.6895 97.5576C97.4068 97.4456 97.0895 97.3896 96.7375 97.3896C96.4015 97.3896 96.1108 97.4296 95.8655 97.5096C95.6202 97.5843 95.4068 97.6696 95.2255 97.7656C95.0442 97.8563 94.8895 97.9416 94.7615 98.0216C94.6335 98.0963 94.5162 98.1336 94.4095 98.1336C94.2762 98.1336 94.1695 98.0803 94.0895 97.9736L93.6015 97.3416ZM104.238 92.4856V104.326H102.518V92.4856H104.238ZM108.153 96.1656V104.326H106.433V96.1656H108.153ZM108.441 93.7016C108.441 93.8563 108.409 94.0029 108.345 94.1416C108.286 94.2803 108.203 94.4029 108.097 94.5096C107.99 94.6109 107.865 94.6936 107.721 94.7576C107.582 94.8163 107.433 94.8456 107.273 94.8456C107.118 94.8456 106.971 94.8163 106.833 94.7576C106.699 94.6936 106.582 94.6109 106.481 94.5096C106.379 94.4029 106.297 94.2803 106.233 94.1416C106.174 94.0029 106.145 93.8563 106.145 93.7016C106.145 93.5416 106.174 93.3923 106.233 93.2536C106.297 93.1149 106.379 92.9949 106.481 92.8936C106.582 92.7869 106.699 92.7043 106.833 92.6456C106.971 92.5816 107.118 92.5496 107.273 92.5496C107.433 92.5496 107.582 92.5816 107.721 92.6456C107.865 92.7043 107.99 92.7869 108.097 92.8936C108.203 92.9949 108.286 93.1149 108.345 93.2536C108.409 93.3923 108.441 93.5416 108.441 93.7016ZM111.938 97.6776C112.194 97.1603 112.503 96.7549 112.866 96.4616C113.228 96.1629 113.663 96.0136 114.17 96.0136C114.346 96.0136 114.511 96.0349 114.666 96.0776C114.82 96.1149 114.959 96.1736 115.082 96.2536L114.962 97.5496C114.94 97.6403 114.906 97.7043 114.858 97.7416C114.815 97.7736 114.756 97.7896 114.682 97.7896C114.602 97.7896 114.487 97.7763 114.338 97.7496C114.188 97.7176 114.031 97.7016 113.866 97.7016C113.626 97.7016 113.412 97.7363 113.226 97.8056C113.044 97.8749 112.879 97.9763 112.73 98.1096C112.586 98.2429 112.458 98.4056 112.346 98.5976C112.234 98.7896 112.13 99.0083 112.034 99.2536V104.326H110.314V96.1656H111.314C111.495 96.1656 111.62 96.2003 111.69 96.2696C111.759 96.3336 111.807 96.4483 111.834 96.6136L111.938 97.6776ZM120.413 104.326V97.5336L119.613 97.4216C119.479 97.3949 119.37 97.3469 119.285 97.2776C119.205 97.2083 119.165 97.1096 119.165 96.9816V96.2776H120.413V95.5896C120.413 95.1256 120.479 94.7096 120.613 94.3416C120.751 93.9736 120.946 93.6616 121.197 93.4056C121.453 93.1496 121.762 92.9549 122.125 92.8216C122.487 92.6829 122.895 92.6136 123.349 92.6136C123.535 92.6136 123.711 92.6269 123.877 92.6536C124.047 92.6803 124.213 92.7203 124.373 92.7736L124.341 93.6376C124.33 93.7816 124.258 93.8669 124.125 93.8936C123.997 93.9203 123.834 93.9336 123.637 93.9336C123.397 93.9336 123.181 93.9629 122.989 94.0216C122.797 94.0749 122.631 94.1683 122.493 94.3016C122.359 94.4349 122.255 94.6109 122.181 94.8296C122.111 95.0483 122.077 95.3203 122.077 95.6456V96.2776H124.309V97.5176H122.133V104.326H120.413ZM126.58 101.15C126.58 101.438 126.62 101.707 126.7 101.958C126.786 102.203 126.908 102.419 127.068 102.606C127.228 102.787 127.426 102.931 127.66 103.038C127.9 103.139 128.175 103.19 128.484 103.19C129.114 103.19 129.607 103.011 129.964 102.654C130.322 102.296 130.548 101.795 130.644 101.15H126.58ZM125.148 97.3416C125.346 97.1016 125.572 96.8989 125.828 96.7336C126.09 96.5683 126.364 96.4349 126.652 96.3336C126.94 96.2269 127.236 96.1523 127.54 96.1096C127.844 96.0616 128.143 96.0376 128.436 96.0376C129.002 96.0376 129.524 96.1336 130.004 96.3256C130.49 96.5123 130.908 96.7896 131.26 97.1576C131.612 97.5256 131.887 97.9816 132.084 98.5256C132.287 99.0696 132.388 99.6963 132.388 100.406C132.388 100.966 132.298 101.494 132.116 101.99C131.94 102.48 131.684 102.907 131.348 103.27C131.018 103.632 130.612 103.92 130.132 104.134C129.658 104.342 129.119 104.446 128.516 104.446C128.015 104.446 127.551 104.363 127.124 104.198C126.703 104.032 126.338 103.795 126.028 103.486C125.719 103.171 125.476 102.787 125.3 102.334C125.13 101.875 125.044 101.352 125.044 100.766C125.044 100.504 125.071 100.328 125.124 100.238C125.183 100.142 125.29 100.094 125.444 100.094H130.684C130.663 99.6349 130.591 99.2376 130.468 98.9016C130.346 98.5603 130.18 98.2776 129.972 98.0536C129.77 97.8296 129.524 97.6643 129.236 97.5576C128.954 97.4456 128.636 97.3896 128.284 97.3896C127.948 97.3896 127.658 97.4296 127.412 97.5096C127.167 97.5843 126.954 97.6696 126.772 97.7656C126.591 97.8563 126.436 97.9416 126.308 98.0216C126.18 98.0963 126.063 98.1336 125.956 98.1336C125.823 98.1336 125.716 98.0803 125.636 97.9736L125.148 97.3416ZM135.656 97.6776C135.912 97.1603 136.222 96.7549 136.584 96.4616C136.947 96.1629 137.382 96.0136 137.888 96.0136C138.064 96.0136 138.23 96.0349 138.384 96.0776C138.539 96.1149 138.678 96.1736 138.8 96.2536L138.68 97.5496C138.659 97.6403 138.624 97.7043 138.576 97.7416C138.534 97.7736 138.475 97.7896 138.4 97.7896C138.32 97.7896 138.206 97.7763 138.056 97.7496C137.907 97.7176 137.75 97.7016 137.584 97.7016C137.344 97.7016 137.131 97.7363 136.944 97.8056C136.763 97.8749 136.598 97.9763 136.448 98.1096C136.304 98.2429 136.176 98.4056 136.064 98.5976C135.952 98.7896 135.848 99.0083 135.752 99.2536V104.326H134.032V96.1656H135.032C135.214 96.1656 135.339 96.2003 135.408 96.2696C135.478 96.3336 135.526 96.4483 135.552 96.6136L135.656 97.6776ZM144.881 98.1736C144.641 97.8696 144.377 97.6563 144.089 97.5336C143.801 97.4056 143.489 97.3416 143.153 97.3416C142.481 97.3416 141.956 97.5896 141.577 98.0856C141.198 98.5763 141.009 99.3043 141.009 100.27C141.009 100.771 141.052 101.2 141.137 101.558C141.222 101.91 141.345 102.198 141.505 102.422C141.665 102.646 141.86 102.808 142.089 102.91C142.318 103.011 142.577 103.062 142.865 103.062C143.302 103.062 143.678 102.968 143.993 102.782C144.313 102.59 144.609 102.32 144.881 101.974V98.1736ZM146.601 96.1656V107.038H144.881V103.214C144.545 103.582 144.166 103.88 143.745 104.11C143.329 104.334 142.844 104.446 142.289 104.446C141.83 104.446 141.414 104.355 141.041 104.174C140.668 103.987 140.348 103.718 140.081 103.366C139.814 103.014 139.606 102.579 139.457 102.062C139.313 101.539 139.241 100.942 139.241 100.27C139.241 99.6616 139.321 99.0989 139.481 98.5816C139.646 98.0643 139.881 97.6163 140.185 97.2376C140.489 96.8536 140.857 96.5549 141.289 96.3416C141.726 96.1229 142.214 96.0136 142.753 96.0136C143.014 96.0136 143.252 96.0376 143.465 96.0856C143.684 96.1283 143.884 96.1949 144.065 96.2856C144.252 96.3709 144.422 96.4776 144.577 96.6056C144.732 96.7283 144.878 96.8696 145.017 97.0296L145.121 96.4936C145.185 96.2749 145.332 96.1656 145.561 96.1656H146.601ZM150.496 96.1656V104.326H148.776V96.1656H150.496ZM150.784 93.7016C150.784 93.8563 150.752 94.0029 150.688 94.1416C150.63 94.2803 150.547 94.4029 150.44 94.5096C150.334 94.6109 150.208 94.6936 150.064 94.7576C149.926 94.8163 149.776 94.8456 149.616 94.8456C149.462 94.8456 149.315 94.8163 149.176 94.7576C149.043 94.6936 148.926 94.6109 148.824 94.5096C148.723 94.4029 148.64 94.2803 148.576 94.1416C148.518 94.0029 148.488 93.8563 148.488 93.7016C148.488 93.5416 148.518 93.3923 148.576 93.2536C148.64 93.1149 148.723 92.9949 148.824 92.8936C148.926 92.7869 149.043 92.7043 149.176 92.6456C149.315 92.5816 149.462 92.5496 149.616 92.5496C149.776 92.5496 149.926 92.5816 150.064 92.6456C150.208 92.7043 150.334 92.7869 150.44 92.8936C150.547 92.9949 150.63 93.1149 150.688 93.2536C150.752 93.3923 150.784 93.5416 150.784 93.7016Z" fill="#222222"/>
<path d="M81.1231 127.006V121.746C81.1231 121.326 81.1531 120.866 81.2131 120.366L76.3731 127.006H81.1231ZM84.9831 127.006V128.246C84.9831 128.366 84.9431 128.469 84.8631 128.556C84.7898 128.642 84.6764 128.686 84.5231 128.686H82.9931V132.326H81.1231V128.686H74.8931C74.7398 128.686 74.6064 128.642 74.4931 128.556C74.3864 128.462 74.3164 128.349 74.2831 128.216L74.0631 127.116L80.9731 117.916H82.9931V127.006H84.9831ZM101.545 125.126C101.545 126.386 101.408 127.476 101.135 128.396C100.868 129.316 100.498 130.079 100.025 130.686C99.5518 131.292 98.9951 131.742 98.3551 132.036C97.7151 132.329 97.0251 132.476 96.2851 132.476C95.5451 132.476 94.8551 132.329 94.2151 132.036C93.5751 131.742 93.0185 131.292 92.5451 130.686C92.0785 130.079 91.7118 129.316 91.4451 128.396C91.1785 127.476 91.0451 126.386 91.0451 125.126C91.0451 123.866 91.1785 122.776 91.4451 121.856C91.7118 120.929 92.0785 120.166 92.5451 119.566C93.0185 118.959 93.5751 118.509 94.2151 118.216C94.8551 117.916 95.5451 117.766 96.2851 117.766C97.0251 117.766 97.7151 117.916 98.3551 118.216C98.9951 118.509 99.5518 118.959 100.025 119.566C100.498 120.166 100.868 120.929 101.135 121.856C101.408 122.776 101.545 123.866 101.545 125.126ZM99.3251 125.126C99.3251 124.059 99.2385 123.172 99.0651 122.466C98.8985 121.752 98.6751 121.182 98.3951 120.756C98.1151 120.329 97.7918 120.026 97.4251 119.846C97.0585 119.666 96.6785 119.576 96.2851 119.576C95.8851 119.576 95.5018 119.666 95.1351 119.846C94.7751 120.026 94.4551 120.329 94.1751 120.756C93.8951 121.182 93.6718 121.752 93.5051 122.466C93.3385 123.172 93.2551 124.059 93.2551 125.126C93.2551 126.192 93.3385 127.082 93.5051 127.796C93.6718 128.502 93.8951 129.069 94.1751 129.496C94.4551 129.922 94.7751 130.226 95.1351 130.406C95.5018 130.586 95.8851 130.676 96.2851 130.676C96.6785 130.676 97.0585 130.586 97.4251 130.406C97.7918 130.226 98.1151 129.922 98.3951 129.496C98.6751 129.069 98.8985 128.502 99.0651 127.796C99.2385 127.082 99.3251 126.192 99.3251 125.126ZM113.147 125.126C113.147 126.386 113.01 127.476 112.737 128.396C112.47 129.316 112.1 130.079 111.627 130.686C111.153 131.292 110.597 131.742 109.957 132.036C109.317 132.329 108.627 132.476 107.887 132.476C107.147 132.476 106.457 132.329 105.817 132.036C105.177 131.742 104.62 131.292 104.147 130.686C103.68 130.079 103.313 129.316 103.047 128.396C102.78 127.476 102.647 126.386 102.647 125.126C102.647 123.866 102.78 122.776 103.047 121.856C103.313 120.929 103.68 120.166 104.147 119.566C104.62 118.959 105.177 118.509 105.817 118.216C106.457 117.916 107.147 117.766 107.887 117.766C108.627 117.766 109.317 117.916 109.957 118.216C110.597 118.509 111.153 118.959 111.627 119.566C112.1 120.166 112.47 120.929 112.737 121.856C113.01 122.776 113.147 123.866 113.147 125.126ZM110.927 125.126C110.927 124.059 110.84 123.172 110.667 122.466C110.5 121.752 110.277 121.182 109.997 120.756C109.717 120.329 109.393 120.026 109.027 119.846C108.66 119.666 108.28 119.576 107.887 119.576C107.487 119.576 107.103 119.666 106.737 119.846C106.377 120.026 106.057 120.329 105.777 120.756C105.497 121.182 105.273 121.752 105.107 122.466C104.94 123.172 104.857 124.059 104.857 125.126C104.857 126.192 104.94 127.082 105.107 127.796C105.273 128.502 105.497 129.069 105.777 129.496C106.057 129.922 106.377 130.226 106.737 130.406C107.103 130.586 107.487 130.676 107.887 130.676C108.28 130.676 108.66 130.586 109.027 130.406C109.393 130.226 109.717 129.922 109.997 129.496C110.277 129.069 110.5 128.502 110.667 127.796C110.84 127.082 110.927 126.192 110.927 125.126ZM124.748 125.126C124.748 126.386 124.612 127.476 124.338 128.396C124.072 129.316 123.702 130.079 123.228 130.686C122.755 131.292 122.198 131.742 121.558 132.036C120.918 132.329 120.228 132.476 119.488 132.476C118.748 132.476 118.058 132.329 117.418 132.036C116.778 131.742 116.222 131.292 115.748 130.686C115.282 130.079 114.915 129.316 114.648 128.396C114.382 127.476 114.248 126.386 114.248 125.126C114.248 123.866 114.382 122.776 114.648 121.856C114.915 120.929 115.282 120.166 115.748 119.566C116.222 118.959 116.778 118.509 117.418 118.216C118.058 117.916 118.748 117.766 119.488 117.766C120.228 117.766 120.918 117.916 121.558 118.216C122.198 118.509 122.755 118.959 123.228 119.566C123.702 120.166 124.072 120.929 124.338 121.856C124.612 122.776 124.748 123.866 124.748 125.126ZM122.528 125.126C122.528 124.059 122.442 123.172 122.268 122.466C122.102 121.752 121.878 121.182 121.598 120.756C121.318 120.329 120.995 120.026 120.628 119.846C120.262 119.666 119.882 119.576 119.488 119.576C119.088 119.576 118.705 119.666 118.338 119.846C117.978 120.026 117.658 120.329 117.378 120.756C117.098 121.182 116.875 121.752 116.708 122.466C116.542 123.172 116.458 124.059 116.458 125.126C116.458 126.192 116.542 127.082 116.708 127.796C116.875 128.502 117.098 129.069 117.378 129.496C117.658 129.922 117.978 130.226 118.338 130.406C118.705 130.586 119.088 130.676 119.488 130.676C119.882 130.676 120.262 130.586 120.628 130.406C120.995 130.226 121.318 129.922 121.598 129.496C121.878 129.069 122.102 128.502 122.268 127.796C122.442 127.082 122.528 126.192 122.528 125.126ZM136.811 128.546L135.425 124.864C135.313 124.579 135.199 124.217 135.082 123.779C135.031 123.998 134.975 124.201 134.914 124.388C134.854 124.57 134.798 124.731 134.746 124.871L133.36 128.546H136.811ZM139.912 132.326H138.645C138.501 132.326 138.384 132.291 138.295 132.221C138.207 132.146 138.139 132.055 138.092 131.948L137.252 129.722H132.912L132.072 131.948C132.035 132.041 131.97 132.127 131.876 132.207C131.783 132.286 131.666 132.326 131.526 132.326H130.259L134.256 122.246H135.915L139.912 132.326ZM147.935 122.855C147.935 122.948 147.918 123.039 147.886 123.128C147.858 123.216 147.818 123.3 147.767 123.38L142.356 131.003H147.83V132.326H140.214V131.682C140.214 131.593 140.228 131.511 140.256 131.437C140.284 131.357 140.321 131.283 140.368 131.213L145.8 123.569H140.515V122.246H147.935V122.855ZM157.882 122.246V132.326H157.049C156.923 132.326 156.815 132.305 156.727 132.263C156.638 132.216 156.554 132.141 156.475 132.039L150.938 124.927C150.952 125.062 150.961 125.197 150.966 125.333C150.975 125.463 150.98 125.585 150.98 125.697V132.326H149.538V122.246H150.392C150.462 122.246 150.52 122.25 150.567 122.26C150.618 122.264 150.665 122.276 150.707 122.295C150.749 122.313 150.788 122.341 150.826 122.379C150.863 122.416 150.903 122.463 150.945 122.519L156.489 129.638C156.475 129.493 156.463 129.351 156.454 129.211C156.449 129.071 156.447 128.94 156.447 128.819V122.246H157.882Z" fill="black"/>
</svg>
