<svg width="48" height="48" viewBox="0 0 48 48" fill="none" xmlns="http://www.w3.org/2000/svg">
<rect width="48" height="48" rx="24" fill="#F2FFF8"/>
<path d="M36.2375 28.4L36.275 28.275C37.242 25.507 37.242 22.493 36.275 19.725L36.2375 19.6C35.3283 17.083 33.6658 14.9071 31.4762 13.3683C29.2866 11.8296 26.6762 11.0026 24 11C21.3238 11.0026 18.7133 11.8296 16.5237 13.3683C14.3341 14.9071 12.6717 17.083 11.7625 19.6L11.725 19.725C10.758 22.493 10.758 25.507 11.725 28.275L11.7625 28.4C12.6748 30.915 14.338 33.0889 16.5269 34.6272C18.7158 36.1654 21.3246 36.9938 24 37C26.6762 36.9974 29.2866 36.1704 31.4762 34.6317C33.6658 33.0929 35.3283 30.917 36.2375 28.4ZM24 13.7C25.4561 15.1979 26.5469 17.0116 27.1875 19H20.8125C21.453 17.0116 22.5438 15.1979 24 13.7ZM20.8125 29H27.1875C26.5469 30.9884 25.4561 32.8021 24 34.3C22.5438 32.8021 21.453 30.9884 20.8125 29ZM20.2875 27C19.9043 25.0184 19.9043 22.9816 20.2875 21H27.7125C28.0957 22.9816 28.0957 25.0184 27.7125 27H20.2875ZM29.75 21H34.5875C35.1376 22.9622 35.1376 25.0378 34.5875 27H29.75C30.0833 25.0139 30.0833 22.9861 29.75 21ZM33.8 19H29.3C28.6985 16.8941 27.6734 14.9333 26.2875 13.2375C27.8878 13.583 29.3915 14.2791 30.6906 15.2755C31.9896 16.2719 33.0515 17.5439 33.8 19ZM26.2875 34.7625C27.6734 33.0667 28.6985 31.1059 29.3 29H33.8C33.0515 30.4561 31.9896 31.7281 30.6906 32.7245C29.3915 33.7209 27.8878 34.417 26.2875 34.7625Z" fill="#0EA900"/>
</svg>
