<svg width="48" height="48" viewBox="0 0 48 48" fill="none" xmlns="http://www.w3.org/2000/svg">
<rect width="48" height="48" rx="24" fill="#FFF2F2"/>
<path d="M38 34H37V21C37 20.4696 36.7893 19.9609 36.4142 19.5858C36.0391 19.2107 35.5304 19 35 19H27V13C27 12.4696 26.7893 11.9609 26.4142 11.5858C26.0391 11.2107 25.5304 11 25 11H13C12.4696 11 11.9609 11.2107 11.5858 11.5858C11.2107 11.9609 11 12.4696 11 13V34H10C9.73478 34 9.48043 34.1054 9.29289 34.2929C9.10536 34.4804 9 34.7348 9 35C9 35.2652 9.10536 35.5196 9.29289 35.7071C9.48043 35.8946 9.73478 36 10 36H38C38.2652 36 38.5196 35.8946 38.7071 35.7071C38.8946 35.5196 39 35.2652 39 35C39 34.7348 38.8946 34.4804 38.7071 34.2929C38.5196 34.1054 38.2652 34 38 34ZM23 25C23 25.2652 22.8946 25.5196 22.7071 25.7071C22.5196 25.8946 22.2652 26 22 26H18C17.7348 26 17.4804 25.8946 17.2929 25.7071C17.1054 25.5196 17 25.2652 17 25C17 24.7348 17.1054 24.4804 17.2929 24.2929C17.4804 24.1054 17.7348 24 18 24H22C22.2652 24 22.5196 24.1054 22.7071 24.2929C22.8946 24.4804 23 24.7348 23 25ZM16 16H20C20.2652 16 20.5196 16.1054 20.7071 16.2929C20.8946 16.4804 21 16.7348 21 17C21 17.2652 20.8946 17.5196 20.7071 17.7071C20.5196 17.8946 20.2652 18 20 18H16C15.7348 18 15.4804 17.8946 15.2929 17.7071C15.1054 17.5196 15 17.2652 15 17C15 16.7348 15.1054 16.4804 15.2929 16.2929C15.4804 16.1054 15.7348 16 16 16ZM16 29H20C20.2652 29 20.5196 29.1054 20.7071 29.2929C20.8946 29.4804 21 29.7348 21 30C21 30.2652 20.8946 30.5196 20.7071 30.7071C20.5196 30.8946 20.2652 31 20 31H16C15.7348 31 15.4804 30.8946 15.2929 30.7071C15.1054 30.5196 15 30.2652 15 30C15 29.7348 15.1054 29.4804 15.2929 29.2929C15.4804 29.1054 15.7348 29 16 29ZM27 21H35V34H27V21Z" fill="#EE0000"/>
<path d="M32 29H30C29.7348 29 29.4804 29.1054 29.2929 29.2929C29.1054 29.4804 29 29.7348 29 30C29 30.2652 29.1054 30.5196 29.2929 30.7071C29.4804 30.8946 29.7348 31 30 31H32C32.2652 31 32.5196 30.8946 32.7071 30.7071C32.8946 30.5196 33 30.2652 33 30C33 29.7348 32.8946 29.4804 32.7071 29.2929C32.5196 29.1054 32.2652 29 32 29Z" fill="#EE0000"/>
<path d="M30 26H32C32.2652 26 32.5196 25.8946 32.7071 25.7071C32.8946 25.5196 33 25.2652 33 25C33 24.7348 32.8946 24.4804 32.7071 24.2929C32.5196 24.1054 32.2652 24 32 24H30C29.7348 24 29.4804 24.1054 29.2929 24.2929C29.1054 24.4804 29 24.7348 29 25C29 25.2652 29.1054 25.5196 29.2929 25.7071C29.4804 25.8946 29.7348 26 30 26Z" fill="#EE0000"/>
</svg>
