<svg width="48" height="48" viewBox="0 0 48 48" fill="none" xmlns="http://www.w3.org/2000/svg">
<rect width="48" height="48" rx="24" fill="#F2F4FF"/>
<path d="M35 13H13C12.4696 13 11.9609 13.2107 11.5858 13.5858C11.2107 13.9609 11 14.4696 11 15V33C11 33.5304 11.2107 34.0391 11.5858 34.4142C11.9609 34.7893 12.4696 35 13 35H35C35.5304 35 36.0391 34.7893 36.4142 34.4142C36.7893 34.0391 37 33.5304 37 33V15C37 14.4696 36.7893 13.9609 36.4142 13.5858C36.0391 13.2107 35.5304 13 35 13ZM23.6375 29.9625C23.5103 29.9964 23.3776 30.0049 23.2471 29.9874C23.1166 29.97 22.9908 29.9269 22.877 29.8607C22.7632 29.7945 22.6636 29.7065 22.5838 29.6017C22.5041 29.4969 22.4459 29.3774 22.4125 29.25C22.243 28.6102 21.8667 28.0444 21.3422 27.6407C20.8177 27.237 20.1744 27.0181 19.5125 27.0181C18.8506 27.0181 18.2073 27.237 17.6828 27.6407C17.1583 28.0444 16.782 28.6102 16.6125 29.25C16.5549 29.4647 16.4282 29.6545 16.252 29.79C16.0757 29.9256 15.8598 29.9994 15.6375 30L15.3875 29.9625C15.2606 29.9305 15.1414 29.8736 15.0367 29.7951C14.932 29.7166 14.8439 29.6181 14.7776 29.5053C14.7113 29.3925 14.6681 29.2676 14.6505 29.1379C14.6329 29.0083 14.6412 28.8764 14.675 28.75C14.9794 27.568 15.7037 26.5371 16.7125 25.85C16.1451 25.2938 15.7562 24.5813 15.5953 23.8032C15.4345 23.0251 15.509 22.2168 15.8094 21.4812C16.1098 20.7456 16.6224 20.1162 17.2819 19.6731C17.9414 19.23 18.718 18.9934 19.5125 18.9934C20.307 18.9934 21.0836 19.23 21.7431 19.6731C22.4026 20.1162 22.9152 20.7456 23.2156 21.4812C23.516 22.2168 23.5905 23.0251 23.4297 23.8032C23.2688 24.5813 22.8799 25.2938 22.3125 25.85C23.3213 26.5371 24.0456 27.568 24.35 28.75C24.3838 28.8764 24.3921 29.0083 24.3745 29.1379C24.3569 29.2676 24.3137 29.3925 24.2474 29.5053C24.1811 29.6181 24.093 29.7166 23.9883 29.7951C23.8836 29.8736 23.7644 29.9305 23.6375 29.9625ZM32 27H27C26.7348 27 26.4804 26.8946 26.2929 26.7071C26.1054 26.5196 26 26.2652 26 26C26 25.7348 26.1054 25.4804 26.2929 25.2929C26.4804 25.1054 26.7348 25 27 25H32C32.2652 25 32.5196 25.1054 32.7071 25.2929C32.8946 25.4804 33 25.7348 33 26C33 26.2652 32.8946 26.5196 32.7071 26.7071C32.5196 26.8946 32.2652 27 32 27ZM32 23H27C26.7348 23 26.4804 22.8946 26.2929 22.7071C26.1054 22.5196 26 22.2652 26 22C26 21.7348 26.1054 21.4804 26.2929 21.2929C26.4804 21.1054 26.7348 21 27 21H32C32.2652 21 32.5196 21.1054 32.7071 21.2929C32.8946 21.4804 33 21.7348 33 22C33 22.2652 32.8946 22.5196 32.7071 22.7071C32.5196 22.8946 32.2652 23 32 23Z" fill="#003DB1"/>
<path d="M19.5125 25C20.6171 25 21.5125 24.1046 21.5125 23C21.5125 21.8954 20.6171 21 19.5125 21C18.4079 21 17.5125 21.8954 17.5125 23C17.5125 24.1046 18.4079 25 19.5125 25Z" fill="#003DB1"/>
</svg>
