<svg width="48" height="48" viewBox="0 0 48 48" fill="none" xmlns="http://www.w3.org/2000/svg">
<rect width="48" height="48" rx="24" fill="#F2F7FF"/>
<path d="M38.025 25V29C38.0275 29.1482 37.9961 29.2951 37.9333 29.4294C37.8705 29.5637 37.7779 29.6819 37.6625 29.775C37.5485 29.8676 37.4153 29.9336 37.2726 29.9682C37.1299 30.0028 36.9812 30.0051 36.8375 29.975L28.025 28.225V31.5875L29.7125 33.3C29.8041 33.392 29.8766 33.5013 29.926 33.6214C29.9753 33.7415 30.0005 33.8701 30 34V37C30.0008 37.1629 29.9613 37.3235 29.8849 37.4675C29.8086 37.6114 29.6978 37.7343 29.5625 37.825C29.3962 37.9371 29.2006 37.998 29 38C28.8713 37.9994 28.744 37.9739 28.625 37.925L24 36.075L19.375 37.925C19.2226 37.9867 19.0573 38.0099 18.8937 37.9924C18.7302 37.975 18.5735 37.9175 18.4375 37.825C18.3022 37.7343 18.1914 37.6114 18.1151 37.4675C18.0387 37.3235 17.9992 37.1629 18 37V34C17.9985 33.734 18.1018 33.478 18.2875 33.2875L20 31.5875V28.225L11.2 29.975C11.0549 30.007 10.9044 30.0058 10.7597 29.9715C10.6151 29.9373 10.4801 29.8708 10.3647 29.7771C10.2494 29.6833 10.1567 29.5648 10.0935 29.4302C10.0304 29.2957 9.99839 29.1486 10 29V25C10.0015 24.8142 10.0535 24.6324 10.1503 24.4738C10.2472 24.3153 10.3854 24.1861 10.55 24.1L20 19.375V14C20 12.9391 20.4214 11.9217 21.1716 11.1716C21.9217 10.4214 22.9391 10 24 10C25.0609 10 26.0783 10.4214 26.8284 11.1716C27.5786 11.9217 28 12.9391 28 14V19.375L37.45 24.1C37.6193 24.1827 37.7625 24.3104 37.864 24.4692C37.9654 24.628 38.0211 24.8116 38.025 25Z" fill="#0065FD"/>
</svg>
