<svg width="44" height="44" viewBox="0 0 44 44" fill="none" xmlns="http://www.w3.org/2000/svg">
<path d="M39.7718 21.1578C39.6666 21.4081 39.4897 21.6216 39.2634 21.7715C39.0371 21.9213 38.7714 22.0009 38.5 22H31.625V26.125C31.625 26.4897 31.4801 26.8394 31.2222 27.0973C30.9644 27.3552 30.6146 27.5 30.25 27.5H13.75C13.3853 27.5 13.0356 27.3552 12.7777 27.0973C12.5198 26.8394 12.375 26.4897 12.375 26.125V22H5.49996C5.2285 22.0009 4.96287 21.9213 4.73653 21.7715C4.51019 21.6216 4.33328 21.4081 4.22809 21.1578C4.12903 20.9039 4.1039 20.627 4.1556 20.3594C4.20731 20.0917 4.33374 19.8441 4.52028 19.6453L21.0203 3.14533C21.281 2.88713 21.633 2.74228 22 2.74228C22.3669 2.74228 22.719 2.88713 22.9797 3.14533L39.4797 19.6453C39.6662 19.8441 39.7926 20.0917 39.8443 20.3594C39.896 20.627 39.8709 20.9039 39.7718 21.1578ZM30.25 35.75H13.75C13.3853 35.75 13.0356 35.8949 12.7777 36.1527C12.5198 36.4106 12.375 36.7603 12.375 37.125C12.375 37.4897 12.5198 37.8394 12.7777 38.0973C13.0356 38.3552 13.3853 38.5 13.75 38.5H30.25C30.6146 38.5 30.9644 38.3552 31.2222 38.0973C31.4801 37.8394 31.625 37.4897 31.625 37.125C31.625 36.7603 31.4801 36.4106 31.2222 36.1527C30.9644 35.8949 30.6146 35.75 30.25 35.75ZM30.25 30.25H13.75C13.3853 30.25 13.0356 30.3949 12.7777 30.6527C12.5198 30.9106 12.375 31.2603 12.375 31.625C12.375 31.9897 12.5198 32.3394 12.7777 32.5973C13.0356 32.8552 13.3853 33 13.75 33H30.25C30.6146 33 30.9644 32.8552 31.2222 32.5973C31.4801 32.3394 31.625 31.9897 31.625 31.625C31.625 31.2603 31.4801 30.9106 31.2222 30.6527C30.9644 30.3949 30.6146 30.25 30.25 30.25Z" fill="#0EA900"/>
</svg>
