<svg width="194" height="40" viewBox="0 0 194 40" fill="none" xmlns="http://www.w3.org/2000/svg">
<rect width="194" height="40" rx="8" fill="#0065FD"/>
<path d="M15.75 20H32.25" stroke="white" stroke-width="2" stroke-linecap="round" stroke-linejoin="round"/>
<path d="M24 11.75V28.25" stroke="white" stroke-width="2" stroke-linecap="round" stroke-linejoin="round"/>
<path d="M50.8906 26H49.1406V21.3828L45.1719 14.7266H47.125L50 19.7031H50.0547L52.9297 14.7266H54.8672L50.8906 21.3828V26ZM57.7734 18.9922C56.5938 18.9922 55.7656 19.8906 55.6797 21.1328H59.7891C59.75 19.875 58.9531 18.9922 57.7734 18.9922ZM59.7812 23.5859H61.3828C61.1484 25.0859 59.7266 26.1562 57.8438 26.1562C55.4297 26.1562 53.9688 24.5234 53.9688 21.9297C53.9688 19.3516 55.4531 17.6328 57.7734 17.6328C60.0547 17.6328 61.4766 19.2422 61.4766 21.7344V22.3125H55.6719V22.4141C55.6719 23.8438 56.5312 24.7891 57.8828 24.7891C58.8438 24.7891 59.5547 24.3047 59.7812 23.5859ZM62.7891 26V17.7812H64.3984V19.1562H64.4375C64.8828 18.2188 65.7578 17.6406 67.0234 17.6406C68.8359 17.6406 69.875 18.7969 69.875 20.6797V26H68.1797V21.0078C68.1797 19.7734 67.6016 19.0938 66.4297 19.0938C65.2422 19.0938 64.4766 19.9375 64.4766 21.2109V26H62.7891ZM71.5625 26V17.7812H73.25V26H71.5625ZM72.4062 16.5781C71.8672 16.5781 71.4297 16.1484 71.4297 15.6172C71.4297 15.0781 71.8672 14.6484 72.4062 14.6484C72.9531 14.6484 73.3906 15.0781 73.3906 15.6172C73.3906 16.1484 72.9531 16.5781 72.4062 16.5781ZM80.1797 26H78.4297V14.7266H80.1797V26ZM79.3047 13.6875C78.7344 13.6875 78.2812 13.2266 78.2812 12.6641C78.2812 12.0938 78.7344 11.6406 79.3047 11.6406C79.875 11.6406 80.3281 12.0938 80.3281 12.6641C80.3281 13.2266 79.875 13.6875 79.3047 13.6875ZM81.9062 20.1094C81.9062 18.6406 83.2031 17.6328 85.125 17.6328C86.9531 17.6328 88.2344 18.6562 88.2891 20.1172H86.7031C86.625 19.375 86.0234 18.9141 85.0781 18.9141C84.1641 18.9141 83.5547 19.3594 83.5547 20.0078C83.5547 20.5156 83.9609 20.8594 84.8125 21.0703L86.1953 21.3906C87.8516 21.7891 88.4766 22.4141 88.4766 23.625C88.4766 25.125 87.0781 26.1562 85.0625 26.1562C83.1172 26.1562 81.8281 25.1484 81.6953 23.6406H83.3672C83.5 24.4297 84.1094 24.8672 85.1406 24.8672C86.1562 24.8672 86.7812 24.4453 86.7812 23.7812C86.7812 23.2578 86.4688 22.9688 85.6094 22.75L84.1406 22.3906C82.6562 22.0312 81.9062 21.2578 81.9062 20.1094ZM90.2812 15.8359H91.9766V17.7812H93.5391V19.1172H91.9766V23.6484C91.9766 24.3594 92.2891 24.6797 92.9766 24.6797C93.1484 24.6797 93.4219 24.6641 93.5312 24.6406V25.9766C93.3438 26.0234 92.9688 26.0547 92.5938 26.0547C90.9297 26.0547 90.2812 25.4219 90.2812 23.8359V19.1172H89.0859V17.7812H90.2812V15.8359ZM94.9844 26V17.7812H96.6719V26H94.9844ZM95.8281 16.5781C95.2891 16.5781 94.8516 16.1484 94.8516 15.6172C94.8516 15.0781 95.2891 14.6484 95.8281 14.6484C96.375 14.6484 96.8125 15.0781 96.8125 15.6172C96.8125 16.1484 96.375 16.5781 95.8281 16.5781ZM98.8906 26V19.1172H97.7578V17.7969H98.8906V16.9922C98.8906 15.3984 99.6406 14.6484 101.312 14.6484C101.656 14.6484 102.039 14.6875 102.258 14.7266V15.9766C102.094 15.9453 101.867 15.9297 101.641 15.9297C100.906 15.9297 100.562 16.2969 100.562 17.0234V17.7969H102.227V19.1172H100.586V26H98.8906ZM105.977 24.8047C107.156 24.8047 108.078 23.9922 108.078 22.9219V22.2734L106.055 22.3984C105.047 22.4688 104.477 22.9141 104.477 23.6172C104.477 24.3359 105.07 24.8047 105.977 24.8047ZM105.508 26.1406C103.898 26.1406 102.773 25.1406 102.773 23.6641C102.773 22.2266 103.875 21.3438 105.828 21.2344L108.078 21.1016V20.4688C108.078 19.5547 107.461 19.0078 106.43 19.0078C105.453 19.0078 104.844 19.4766 104.695 20.2109H103.102C103.195 18.7266 104.461 17.6328 106.492 17.6328C108.484 17.6328 109.758 18.6875 109.758 20.3359V26H108.141V24.6484H108.102C107.625 25.5625 106.586 26.1406 105.508 26.1406ZM114.484 26.1406C112.406 26.1406 111.031 24.4844 111.031 21.8906C111.031 19.2969 112.406 17.6484 114.469 17.6484C115.648 17.6484 116.586 18.2422 117.047 19.1484H117.078V14.7266H118.773V26H117.133V24.6016H117.102C116.617 25.5391 115.68 26.1406 114.484 26.1406ZM114.93 19.0703C113.594 19.0703 112.758 20.1641 112.758 21.8906C112.758 23.625 113.594 24.7109 114.93 24.7109C116.227 24.7109 117.094 23.6094 117.094 21.8906C117.094 20.1875 116.227 19.0703 114.93 19.0703ZM123.906 24.7969C125.094 24.7969 125.93 23.9375 126.016 22.6406H121.906C121.93 23.9453 122.727 24.7969 123.906 24.7969ZM121.914 20.0234H120.305C120.688 18.5703 122 17.6328 123.883 17.6328C126.258 17.6328 127.719 19.2656 127.719 21.875C127.719 24.4766 126.234 26.1562 123.898 26.1562C121.625 26.1562 120.211 24.5703 120.211 22.0312C120.211 21.875 120.234 21.4531 120.234 21.4531H126.023V21.3672C126.023 19.9297 125.148 18.9844 123.875 18.9844C122.891 18.9844 122.25 19.3438 121.914 20.0234ZM134.547 23.2188H136.172C136.008 24.7969 134.859 25.9219 133.18 26.125L132.812 26.9609C133.781 26.9688 134.414 27.4219 134.414 28.2188C134.414 29.1328 133.625 29.6172 132.547 29.6328C132.094 29.6406 131.602 29.5859 131.398 29.5234V28.6719C131.57 28.7109 132.016 28.7656 132.336 28.7656C132.961 28.7656 133.281 28.5859 133.281 28.25C133.281 27.9062 132.961 27.7734 132.203 27.7734H131.68V27.1562L132.102 26.1328C130.047 25.9141 128.734 24.3516 128.734 21.8906C128.734 19.2812 130.266 17.6328 132.602 17.6328C134.719 17.6328 136.008 18.9922 136.156 20.6094H134.547C134.375 19.7344 133.719 19.0391 132.617 19.0391C131.312 19.0391 130.453 20.125 130.453 21.8906C130.453 23.6953 131.32 24.7422 132.633 24.7422C133.672 24.7422 134.352 24.1719 134.547 23.2188ZM137.422 26V17.7812H139.109V26H137.422ZM138.266 16.5781C137.727 16.5781 137.289 16.1484 137.289 15.6172C137.289 15.0781 137.727 14.6484 138.266 14.6484C138.812 14.6484 139.25 15.0781 139.25 15.6172C139.25 16.1484 138.812 16.5781 138.266 16.5781ZM144.898 29.0625C144.766 29.0625 144.336 29.0469 144.211 29.0234V27.6562C144.336 27.6875 144.617 27.6875 144.758 27.6875C145.547 27.6875 145.961 27.3594 146.219 26.5156C146.219 26.5 146.367 26.0156 146.367 26.0078L143.398 17.7812H145.227L147.312 24.4688H147.336L149.422 17.7812H151.203L148.117 26.4297C147.414 28.4219 146.609 29.0625 144.898 29.0625ZM154.898 24.8047C156.078 24.8047 157 23.9922 157 22.9219V22.2734L154.977 22.3984C153.969 22.4688 153.398 22.9141 153.398 23.6172C153.398 24.3359 153.992 24.8047 154.898 24.8047ZM154.43 26.1406C152.82 26.1406 151.695 25.1406 151.695 23.6641C151.695 22.2266 152.797 21.3438 154.75 21.2344L157 21.1016V20.4688C157 19.5547 156.383 19.0078 155.352 19.0078C154.375 19.0078 153.766 19.4766 153.617 20.2109H152.023C152.117 18.7266 153.383 17.6328 155.414 17.6328C157.406 17.6328 158.68 18.6875 158.68 20.3359V26H157.062V24.6484H157.023C156.547 25.5625 155.508 26.1406 154.43 26.1406ZM160.32 26V17.7812H161.93V19.1797H161.969C162.242 18.2188 162.977 17.6484 163.945 17.6484C164.188 17.6484 164.398 17.6875 164.523 17.7109V19.2812C164.391 19.2266 164.094 19.1875 163.766 19.1875C162.68 19.1875 162.008 19.9141 162.008 21.0781V26H160.32ZM168.273 24.8047C169.453 24.8047 170.375 23.9922 170.375 22.9219V22.2734L168.352 22.3984C167.344 22.4688 166.773 22.9141 166.773 23.6172C166.773 24.3359 167.367 24.8047 168.273 24.8047ZM167.805 26.1406C166.195 26.1406 165.07 25.1406 165.07 23.6641C165.07 22.2266 166.172 21.3438 168.125 21.2344L170.375 21.1016V20.4688C170.375 19.5547 169.758 19.0078 168.727 19.0078C167.75 19.0078 167.141 19.4766 166.992 20.2109H165.398C165.492 18.7266 166.758 17.6328 168.789 17.6328C170.781 17.6328 172.055 18.6875 172.055 20.3359V26H170.438V24.6484H170.398C169.922 25.5625 168.883 26.1406 167.805 26.1406ZM174.188 15.8359H175.883V17.7812H177.445V19.1172H175.883V23.6484C175.883 24.3594 176.195 24.6797 176.883 24.6797C177.055 24.6797 177.328 24.6641 177.438 24.6406V25.9766C177.25 26.0234 176.875 26.0547 176.5 26.0547C174.836 26.0547 174.188 25.4219 174.188 23.8359V19.1172H172.992V17.7812H174.188V15.8359Z" fill="white"/>
</svg>
