<svg width="149" height="40" viewBox="0 0 149 40" fill="none" xmlns="http://www.w3.org/2000/svg">
<rect width="149" height="40" rx="8" fill="#FFF2FD"/>
<path d="M32.25 14.7501H28.9688C29.4411 14.1536 29.6692 13.3998 29.6067 12.6414C29.5443 11.883 29.1959 11.1767 28.6323 10.6655C28.0687 10.1543 27.3318 9.87641 26.571 9.88805C25.8101 9.89969 25.0821 10.2 24.5344 10.7282C24.3134 10.9519 24.1327 11.2119 24 11.497C23.8673 11.2119 23.6866 10.9519 23.4656 10.7282C22.9179 10.2 22.1899 9.89969 21.429 9.88805C20.6682 9.87641 19.9313 10.1543 19.3677 10.6655C18.8041 11.1767 18.4557 11.883 18.3933 12.6414C18.3308 13.3998 18.5589 14.1536 19.0312 14.7501H15.75C15.3522 14.7501 14.9706 14.9081 14.6893 15.1894C14.408 15.4707 14.25 15.8523 14.25 16.2501V19.2501C14.25 19.6479 14.408 20.0295 14.6893 20.3108C14.9706 20.5921 15.3522 20.7501 15.75 20.7501V26.7501C15.75 27.1479 15.908 27.5295 16.1893 27.8108C16.4706 28.0921 16.8522 28.2501 17.25 28.2501H30.75C31.1478 28.2501 31.5294 28.0921 31.8107 27.8108C32.092 27.5295 32.25 27.1479 32.25 26.7501V20.7501C32.6478 20.7501 33.0294 20.5921 33.3107 20.3108C33.592 20.0295 33.75 19.6479 33.75 19.2501V16.2501C33.75 15.8523 33.592 15.4707 33.3107 15.1894C33.0294 14.9081 32.6478 14.7501 32.25 14.7501ZM25.5938 11.7876C25.7302 11.637 25.8958 11.5157 26.0805 11.4311C26.2653 11.3465 26.4653 11.3002 26.6684 11.2952C26.8715 11.2902 27.0736 11.3266 27.2622 11.402C27.4509 11.4774 27.6223 11.5904 27.766 11.7341C27.9097 11.8778 28.0227 12.0492 28.0981 12.2379C28.1735 12.4265 28.2099 12.6286 28.2049 12.8317C28.1999 13.0348 28.1536 13.2348 28.069 13.4196C27.9844 13.6043 27.8631 13.7699 27.7125 13.9064C27.2531 14.3751 25.9125 14.6282 24.7781 14.722C24.8719 13.5876 25.125 12.247 25.5938 11.7876ZM20.2875 11.7876C20.5699 11.5093 20.9504 11.3534 21.3469 11.3534C21.7433 11.3534 22.1239 11.5093 22.4062 11.7876C22.875 12.247 23.1281 13.5876 23.2219 14.722C22.0875 14.6282 20.7469 14.3751 20.2875 13.9064C20.0092 13.624 19.8533 13.2434 19.8533 12.847C19.8533 12.4505 20.0092 12.07 20.2875 11.7876ZM32.25 19.2501H24.75V26.0001C24.75 26.199 24.671 26.3898 24.5303 26.5304C24.3897 26.6711 24.1989 26.7501 24 26.7501C23.8011 26.7501 23.6103 26.6711 23.4697 26.5304C23.329 26.3898 23.25 26.199 23.25 26.0001V19.2501H15.75V16.2501H23.25V19.2501H24.75V16.2501H32.25V19.2501Z" fill="#F547D9"/>
<path d="M49.5781 26H45.0547V14.7266H49.5547C51.5547 14.7266 52.8672 15.8359 52.8672 17.5391C52.8672 18.7344 51.9844 19.8047 50.8594 19.9922V20.0547C52.3906 20.2266 53.4219 21.3125 53.4219 22.8125C53.4219 24.7969 51.9766 26 49.5781 26ZM46.8047 16.1562V19.5234H48.7656C50.2812 19.5234 51.1172 18.8984 51.1172 17.7812C51.1172 16.7344 50.3984 16.1562 49.1328 16.1562H46.8047ZM46.8047 24.5703H49.2188C50.7969 24.5703 51.6328 23.9219 51.6328 22.7031C51.6328 21.4844 50.7734 20.8594 49.1172 20.8594H46.8047V24.5703ZM58.2578 26.1562C55.9062 26.1562 54.3594 24.5391 54.3594 21.8906C54.3594 19.25 55.9141 17.6328 58.2578 17.6328C60.6016 17.6328 62.1562 19.25 62.1562 21.8906C62.1562 24.5391 60.6094 26.1562 58.2578 26.1562ZM58.2578 24.7656C59.5859 24.7656 60.4375 23.7188 60.4375 21.8906C60.4375 20.0703 59.5781 19.0234 58.2578 19.0234C56.9375 19.0234 56.0781 20.0703 56.0781 21.8906C56.0781 23.7188 56.9375 24.7656 58.2578 24.7656ZM63.4609 26V17.7812H65.0703V19.1562H65.1094C65.5547 18.2188 66.4297 17.6406 67.6953 17.6406C69.5078 17.6406 70.5469 18.7969 70.5469 20.6797V26H68.8516V21.0078C68.8516 19.7734 68.2734 19.0938 67.1016 19.0938C65.9141 19.0938 65.1484 19.9375 65.1484 21.2109V26H63.4609ZM79.2266 17.7812V26H77.6094V24.6094H77.5703C77.1172 25.5938 76.2812 26.1484 75.0234 26.1484C73.2344 26.1484 72.1406 24.9844 72.1406 23.1016V17.7812H73.8281V22.7734C73.8281 24.0234 74.4219 24.6953 75.5859 24.6953C76.8047 24.6953 77.5391 23.8516 77.5391 22.5703V17.7812H79.2266ZM80.75 20.1094C80.75 18.6406 82.0469 17.6328 83.9688 17.6328C85.7969 17.6328 87.0781 18.6562 87.1328 20.1172H85.5469C85.4688 19.375 84.8672 18.9141 83.9219 18.9141C83.0078 18.9141 82.3984 19.3594 82.3984 20.0078C82.3984 20.5156 82.8047 20.8594 83.6562 21.0703L85.0391 21.3906C86.6953 21.7891 87.3203 22.4141 87.3203 23.625C87.3203 25.125 85.9219 26.1562 83.9062 26.1562C81.9609 26.1562 80.6719 25.1484 80.5391 23.6406H82.2109C82.3438 24.4297 82.9531 24.8672 83.9844 24.8672C85 24.8672 85.625 24.4453 85.625 23.7812C85.625 23.2578 85.3125 22.9688 84.4531 22.75L82.9844 22.3906C81.5 22.0312 80.75 21.2578 80.75 20.1094ZM88.6953 26V14.7266H90.3828V26H88.6953ZM94.9922 24.8047C96.1719 24.8047 97.0938 23.9922 97.0938 22.9219V22.2734L95.0703 22.3984C94.0625 22.4688 93.4922 22.9141 93.4922 23.6172C93.4922 24.3359 94.0859 24.8047 94.9922 24.8047ZM94.5234 26.1406C92.9141 26.1406 91.7891 25.1406 91.7891 23.6641C91.7891 22.2266 92.8906 21.3438 94.8438 21.2344L97.0938 21.1016V20.4688C97.0938 19.5547 96.4766 19.0078 95.4453 19.0078C94.4688 19.0078 93.8594 19.4766 93.7109 20.2109H92.1172C92.2109 18.7266 93.4766 17.6328 95.5078 17.6328C97.5 17.6328 98.7734 18.6875 98.7734 20.3359V26H97.1562V24.6484H97.1172C96.6406 25.5625 95.6016 26.1406 94.5234 26.1406ZM100.414 26V17.7812H102.023V19.1797H102.062C102.336 18.2188 103.07 17.6484 104.039 17.6484C104.281 17.6484 104.492 17.6875 104.617 17.7109V19.2812C104.484 19.2266 104.188 19.1875 103.859 19.1875C102.773 19.1875 102.102 19.9141 102.102 21.0781V26H100.414ZM105.719 26V17.7812H107.406V26H105.719ZM119.398 17.7812L116.453 26H114.641L111.68 17.7812H113.477L115.539 24.3516H115.57L117.633 17.7812H119.398ZM123.57 18.9922C122.391 18.9922 121.562 19.8906 121.477 21.1328H125.586C125.547 19.875 124.75 18.9922 123.57 18.9922ZM125.578 23.5859H127.18C126.945 25.0859 125.523 26.1562 123.641 26.1562C121.227 26.1562 119.766 24.5234 119.766 21.9297C119.766 19.3516 121.25 17.6328 123.57 17.6328C125.852 17.6328 127.273 19.2422 127.273 21.7344V22.3125H121.469V22.4141C121.469 23.8438 122.328 24.7891 123.68 24.7891C124.641 24.7891 125.352 24.3047 125.578 23.5859ZM128.586 26V17.7812H130.195V19.1797H130.234C130.508 18.2188 131.242 17.6484 132.211 17.6484C132.453 17.6484 132.664 17.6875 132.789 17.7109V19.2812C132.656 19.2266 132.359 19.1875 132.031 19.1875C130.945 19.1875 130.273 19.9141 130.273 21.0781V26H128.586Z" fill="#F547D9"/>
</svg>
