<svg width="125" height="40" viewBox="0 0 125 40" fill="none" xmlns="http://www.w3.org/2000/svg">
<rect width="125" height="40" rx="8" fill="#0065FD"/>
<path d="M15.75 20H32.25" stroke="white" stroke-width="2" stroke-linecap="round" stroke-linejoin="round"/>
<path d="M24 11.75V28.25" stroke="white" stroke-width="2" stroke-linecap="round" stroke-linejoin="round"/>
<path d="M50.125 26H48.375V21.3828L44.4062 14.7266H46.3594L49.2344 19.7031H49.2891L52.1641 14.7266H54.1016L50.125 21.3828V26ZM57.0078 18.9922C55.8281 18.9922 55 19.8906 54.9141 21.1328H59.0234C58.9844 19.875 58.1875 18.9922 57.0078 18.9922ZM59.0156 23.5859H60.6172C60.3828 25.0859 58.9609 26.1562 57.0781 26.1562C54.6641 26.1562 53.2031 24.5234 53.2031 21.9297C53.2031 19.3516 54.6875 17.6328 57.0078 17.6328C59.2891 17.6328 60.7109 19.2422 60.7109 21.7344V22.3125H54.9062V22.4141C54.9062 23.8438 55.7656 24.7891 57.1172 24.7891C58.0781 24.7891 58.7891 24.3047 59.0156 23.5859ZM62.0234 26V17.7812H63.6328V19.1562H63.6719C64.1172 18.2188 64.9922 17.6406 66.2578 17.6406C68.0703 17.6406 69.1094 18.7969 69.1094 20.6797V26H67.4141V21.0078C67.4141 19.7734 66.8359 19.0938 65.6641 19.0938C64.4766 19.0938 63.7109 19.9375 63.7109 21.2109V26H62.0234ZM70.7969 26V17.7812H72.4844V26H70.7969ZM71.6406 16.5781C71.1016 16.5781 70.6641 16.1484 70.6641 15.6172C70.6641 15.0781 71.1016 14.6484 71.6406 14.6484C72.1875 14.6484 72.625 15.0781 72.625 15.6172C72.625 16.1484 72.1875 16.5781 71.6406 16.5781ZM77.3125 20.1094C77.3125 18.6406 78.6094 17.6328 80.5312 17.6328C82.3594 17.6328 83.6406 18.6562 83.6953 20.1172H82.1094C82.0312 19.375 81.4297 18.9141 80.4844 18.9141C79.5703 18.9141 78.9609 19.3594 78.9609 20.0078C78.9609 20.5156 79.3672 20.8594 80.2188 21.0703L81.6016 21.3906C83.2578 21.7891 83.8828 22.4141 83.8828 23.625C83.8828 25.125 82.4844 26.1562 80.4688 26.1562C78.5234 26.1562 77.2344 25.1484 77.1016 23.6406H78.7734C78.9062 24.4297 79.5156 24.8672 80.5469 24.8672C81.5625 24.8672 82.1875 24.4453 82.1875 23.7812C82.1875 23.2578 81.875 22.9688 81.0156 22.75L79.5469 22.3906C78.0625 22.0312 77.3125 21.2578 77.3125 20.1094ZM88.0703 24.8047C89.25 24.8047 90.1719 23.9922 90.1719 22.9219V22.2734L88.1484 22.3984C87.1406 22.4688 86.5703 22.9141 86.5703 23.6172C86.5703 24.3359 87.1641 24.8047 88.0703 24.8047ZM87.6016 26.1406C85.9922 26.1406 84.8672 25.1406 84.8672 23.6641C84.8672 22.2266 85.9688 21.3438 87.9219 21.2344L90.1719 21.1016V20.4688C90.1719 19.5547 89.5547 19.0078 88.5234 19.0078C87.5469 19.0078 86.9375 19.4766 86.7891 20.2109H85.1953C85.2891 18.7266 86.5547 17.6328 88.5859 17.6328C90.5781 17.6328 91.8516 18.6875 91.8516 20.3359V26H90.2344V24.6484H90.1953C89.7188 25.5625 88.6797 26.1406 87.6016 26.1406ZM93.9844 15.8359H95.6797V17.7812H97.2422V19.1172H95.6797V23.6484C95.6797 24.3594 95.9922 24.6797 96.6797 24.6797C96.8516 24.6797 97.125 24.6641 97.2344 24.6406V25.9766C97.0469 26.0234 96.6719 26.0547 96.2969 26.0547C94.6328 26.0547 93.9844 25.4219 93.9844 23.8359V19.1172H92.7891V17.7812H93.9844V15.8359ZM98.6875 26V17.7812H100.375V26H98.6875ZM104.859 21.0703L106.242 21.3906C107.898 21.7891 108.523 22.4141 108.523 23.625C108.523 24.9688 107.398 25.9375 105.719 26.125L105.352 26.9609C106.32 26.9688 106.953 27.4219 106.953 28.2188C106.953 29.1328 106.164 29.6172 105.086 29.6328C104.633 29.6406 104.141 29.5859 103.938 29.5234V28.6719C104.109 28.7109 104.555 28.7656 104.875 28.7656C105.5 28.7656 105.82 28.5859 105.82 28.25C105.82 27.9062 105.5 27.7734 104.742 27.7734H104.219V27.1562L104.641 26.1328C102.961 25.9844 101.867 25.0234 101.742 23.6406H103.414C103.547 24.4297 104.156 24.8672 105.188 24.8672C106.203 24.8672 106.828 24.4453 106.828 23.7812C106.828 23.2578 106.516 22.9688 105.656 22.75L104.188 22.3906C102.703 22.0312 101.953 21.2578 101.953 20.1094C101.953 18.6406 103.25 17.6328 105.172 17.6328C107 17.6328 108.281 18.6562 108.336 20.1172H106.75C106.672 19.375 106.07 18.9141 105.125 18.9141C104.211 18.9141 103.602 19.3594 103.602 20.0078C103.602 20.5156 104.008 20.8594 104.859 21.0703Z" fill="white"/>
</svg>
