<svg width="88" height="24" viewBox="0 0 88 24" fill="none" xmlns="http://www.w3.org/2000/svg">
<rect x="0.5" width="87" height="24" rx="8" fill="#F2F7FF"/>
<mask id="path-2-inside-1_92_11605" fill="white">
<path d="M22 11.5H17V6.5C17 6.36739 16.9473 6.24021 16.8536 6.14645C16.7598 6.05268 16.6326 6 16.5 6C16.3674 6 16.2402 6.05268 16.1464 6.14645C16.0527 6.24021 16 6.36739 16 6.5V11.5H11C10.8674 11.5 10.7402 11.5527 10.6464 11.6464C10.5527 11.7402 10.5 11.8674 10.5 12C10.5 12.1326 10.5527 12.2598 10.6464 12.3536C10.7402 12.4473 10.8674 12.5 11 12.5H16V17.5C16 17.6326 16.0527 17.7598 16.1464 17.8536C16.2402 17.9473 16.3674 18 16.5 18C16.6326 18 16.7598 17.9473 16.8536 17.8536C16.9473 17.7598 17 17.6326 17 17.5V12.5H22C22.1326 12.5 22.2598 12.4473 22.3536 12.3536C22.4473 12.2598 22.5 12.1326 22.5 12C22.5 11.8674 22.4473 11.7402 22.3536 11.6464C22.2598 11.5527 22.1326 11.5 22 11.5Z"/>
</mask>
<path d="M17 11.5H15.5V13H17V11.5ZM16.5 6V4.5V6ZM16 11.5V13H17.5V11.5H16ZM10.5 12H9H10.5ZM16 12.5H17.5V11H16V12.5ZM17 12.5V11H15.5V12.5H17ZM22 10H17V13H22V10ZM18.5 11.5V6.5H15.5V11.5H18.5ZM18.5 6.5C18.5 5.96957 18.2893 5.46086 17.9142 5.08579L15.7929 7.20711C15.6054 7.01957 15.5 6.76521 15.5 6.5H18.5ZM17.9142 5.08579C17.5391 4.71071 17.0304 4.5 16.5 4.5V7.5C16.2348 7.5 15.9804 7.39464 15.7929 7.20711L17.9142 5.08579ZM16.5 4.5C15.9696 4.5 15.4609 4.71071 15.0858 5.08579L17.2071 7.20711C17.0196 7.39464 16.7652 7.5 16.5 7.5V4.5ZM15.0858 5.08579C14.7107 5.46086 14.5 5.96957 14.5 6.5H17.5C17.5 6.76522 17.3946 7.01957 17.2071 7.20711L15.0858 5.08579ZM14.5 6.5V11.5H17.5V6.5H14.5ZM16 10H11V13H16V10ZM11 10C10.4696 10 9.96086 10.2107 9.58579 10.5858L11.7071 12.7071C11.5196 12.8946 11.2652 13 11 13V10ZM9.58579 10.5858C9.21071 10.9609 9 11.4696 9 12H12C12 12.2652 11.8946 12.5196 11.7071 12.7071L9.58579 10.5858ZM9 12C9 12.5304 9.21071 13.0391 9.58579 13.4142L11.7071 11.2929C11.8946 11.4804 12 11.7348 12 12H9ZM9.58579 13.4142C9.96086 13.7893 10.4696 14 11 14V11C11.2652 11 11.5196 11.1054 11.7071 11.2929L9.58579 13.4142ZM11 14H16V11H11V14ZM14.5 12.5V17.5H17.5V12.5H14.5ZM14.5 17.5C14.5 18.0304 14.7107 18.5391 15.0858 18.9142L17.2071 16.7929C17.3946 16.9804 17.5 17.2348 17.5 17.5H14.5ZM15.0858 18.9142C15.4609 19.2893 15.9696 19.5 16.5 19.5V16.5C16.7652 16.5 17.0196 16.6054 17.2071 16.7929L15.0858 18.9142ZM16.5 19.5C17.0304 19.5 17.5391 19.2893 17.9142 18.9142L15.7929 16.7929C15.9804 16.6054 16.2348 16.5 16.5 16.5V19.5ZM17.9142 18.9142C18.2893 18.5391 18.5 18.0304 18.5 17.5H15.5C15.5 17.2348 15.6054 16.9804 15.7929 16.7929L17.9142 18.9142ZM18.5 17.5V12.5H15.5V17.5H18.5ZM17 14H22V11H17V14ZM22 14C22.5304 14 23.0391 13.7893 23.4142 13.4142L21.2929 11.2929C21.4804 11.1054 21.7348 11 22 11V14ZM23.4142 13.4142C23.7893 13.0391 24 12.5304 24 12H21C21 11.7348 21.1054 11.4804 21.2929 11.2929L23.4142 13.4142ZM24 12C24 11.4696 23.7893 10.9609 23.4142 10.5858L21.2929 12.7071C21.1054 12.5196 21 12.2652 21 12H24ZM23.4142 10.5858C23.0391 10.2107 22.5304 10 22 10V13C21.7348 13 21.4804 12.8946 21.2929 12.7071L23.4142 10.5858Z" fill="#0065FD" mask="url(#path-2-inside-1_92_11605)"/>
<path d="M37.3145 16.2051C35.0176 16.2051 33.623 14.5703 33.5996 12.0039C33.5996 11.9102 33.5996 11.4824 33.5996 11.4824H39.6758V11.3477C39.6875 9.67188 38.6504 8.49414 37.1855 8.49414C36.1074 8.49414 35.4219 8.93359 35.0527 9.7832H33.7109C34.1973 8.25391 35.498 7.33984 37.2031 7.33984C39.5586 7.33984 41.0645 9.06836 41.0645 11.7812C41.0645 14.4355 39.5586 16.2051 37.3145 16.2051ZM37.332 15.0508C38.5801 15.0508 39.4883 14.0723 39.6523 12.543H35.0117C35.1289 14.1074 36.002 15.0508 37.332 15.0508ZM42.2715 16V7.54492H43.5371V16H42.2715ZM46.9941 15.1035C47.8789 15.1035 48.5703 14.4941 48.5703 13.6914V13.2051L47.0527 13.2988C46.2969 13.3516 45.8691 13.6855 45.8691 14.2129C45.8691 14.752 46.3145 15.1035 46.9941 15.1035ZM46.6426 16.1055C45.4355 16.1055 44.5918 15.3555 44.5918 14.248C44.5918 13.1699 45.418 12.5078 46.8828 12.4258L48.5703 12.3262V11.8516C48.5703 11.166 48.1074 10.7559 47.334 10.7559C46.6016 10.7559 46.1445 11.1074 46.0332 11.6582H44.8379C44.9082 10.5449 45.8574 9.72461 47.3809 9.72461C48.875 9.72461 49.8301 10.5156 49.8301 11.752V16H48.6172V14.9863H48.5879C48.2305 15.6719 47.4512 16.1055 46.6426 16.1055ZM56.3223 9.83594L54.1133 16H52.7539L50.5332 9.83594H51.8809L53.4277 14.7637H53.4512L54.998 9.83594H56.3223ZM59.5977 15.0977C60.4883 15.0977 61.1152 14.4531 61.1797 13.4805H58.0977C58.1152 14.459 58.7129 15.0977 59.5977 15.0977ZM58.1035 11.5176H56.8965C57.1836 10.4277 58.168 9.72461 59.5801 9.72461C61.3613 9.72461 62.457 10.9492 62.457 12.9062C62.457 14.8574 61.3438 16.1172 59.5918 16.1172C57.8867 16.1172 56.8262 14.9277 56.8262 13.0234C56.8262 12.9062 56.8438 12.5898 56.8438 12.5898H61.1855V12.5254C61.1855 11.4473 60.5293 10.7383 59.5742 10.7383C58.8359 10.7383 58.3555 11.0078 58.1035 11.5176ZM68.5098 10.7441C67.625 10.7441 67.0039 11.418 66.9395 12.3496H70.0215C69.9922 11.4062 69.3945 10.7441 68.5098 10.7441ZM70.0156 14.1895H71.2168C71.041 15.3145 69.9746 16.1172 68.5625 16.1172C66.752 16.1172 65.6562 14.8926 65.6562 12.9473C65.6562 11.0137 66.7695 9.72461 68.5098 9.72461C70.2207 9.72461 71.2871 10.9316 71.2871 12.8008V13.2344H66.9336V13.3105C66.9336 14.3828 67.5781 15.0918 68.5918 15.0918C69.3125 15.0918 69.8457 14.7285 70.0156 14.1895ZM72.6406 8.37695H73.9121V9.83594H75.084V10.8379H73.9121V14.2363C73.9121 14.7695 74.1465 15.0098 74.6621 15.0098C74.791 15.0098 74.9961 14.998 75.0781 14.9805V15.9824C74.9375 16.0176 74.6562 16.041 74.375 16.041C73.127 16.041 72.6406 15.5664 72.6406 14.377V10.8379H71.7441V9.83594H72.6406V8.37695Z" fill="#0065FD"/>
</svg>
