<svg width="95" height="40" viewBox="0 0 95 40" fill="none" xmlns="http://www.w3.org/2000/svg">
<rect width="95" height="40" rx="8" fill="#F2F7FF"/>
<path d="M33.4219 12.6406C33.3051 12.3751 33.1134 12.1494 32.8703 11.9912C32.6272 11.833 32.3432 11.7492 32.0531 11.75H15.9469C15.6569 11.7523 15.3737 11.8382 15.1312 11.9972C14.8888 12.1562 14.6972 12.3818 14.5795 12.6468C14.4618 12.9118 14.423 13.2052 14.4676 13.4917C14.5123 13.7782 14.6385 14.0458 14.8313 14.2625L21 21.0406V28.3531C20.9995 28.6252 21.0736 28.8922 21.214 29.1252C21.3545 29.3583 21.5561 29.5484 21.7969 29.675C22.0137 29.7896 22.2548 29.8507 22.5 29.8531C22.7971 29.8532 23.0875 29.7651 23.3344 29.6L26.3344 27.5938C26.5398 27.4572 26.7082 27.2718 26.8244 27.0542C26.9405 26.8366 27.0009 26.5936 27 26.3469V21.0406L33.1688 14.2625C33.3651 14.0466 33.4937 13.7779 33.5387 13.4895C33.5837 13.2012 33.5431 12.9061 33.4219 12.6406Z" fill="#0065FD"/>
<path d="M47.6328 26H45.8828V14.7266H52.9219V16.2344H47.6328V19.8047H52.4766V21.2812H47.6328V26ZM54.2969 26V17.7812H55.9844V26H54.2969ZM55.1406 16.5781C54.6016 16.5781 54.1641 16.1484 54.1641 15.6172C54.1641 15.0781 54.6016 14.6484 55.1406 14.6484C55.6875 14.6484 56.125 15.0781 56.125 15.6172C56.125 16.1484 55.6875 16.5781 55.1406 16.5781ZM57.7734 26V14.7266H59.4609V26H57.7734ZM61.6875 15.8359H63.3828V17.7812H64.9453V19.1172H63.3828V23.6484C63.3828 24.3594 63.6953 24.6797 64.3828 24.6797C64.5547 24.6797 64.8281 24.6641 64.9375 24.6406V25.9766C64.75 26.0234 64.375 26.0547 64 26.0547C62.3359 26.0547 61.6875 25.4219 61.6875 23.8359V19.1172H60.4922V17.7812H61.6875V15.8359ZM69.5703 18.9922C68.3906 18.9922 67.5625 19.8906 67.4766 21.1328H71.5859C71.5469 19.875 70.75 18.9922 69.5703 18.9922ZM71.5781 23.5859H73.1797C72.9453 25.0859 71.5234 26.1562 69.6406 26.1562C67.2266 26.1562 65.7656 24.5234 65.7656 21.9297C65.7656 19.3516 67.25 17.6328 69.5703 17.6328C71.8516 17.6328 73.2734 19.2422 73.2734 21.7344V22.3125H67.4688V22.4141C67.4688 23.8438 68.3281 24.7891 69.6797 24.7891C70.6406 24.7891 71.3516 24.3047 71.5781 23.5859ZM74.5859 26V17.7812H76.1953V19.1797H76.2344C76.5078 18.2188 77.2422 17.6484 78.2109 17.6484C78.4531 17.6484 78.6641 17.6875 78.7891 17.7109V19.2812C78.6562 19.2266 78.3594 19.1875 78.0312 19.1875C76.9453 19.1875 76.2734 19.9141 76.2734 21.0781V26H74.5859Z" fill="#0065FD"/>
</svg>
