<svg width="24" height="24" viewBox="0 0 24 24" fill="none" xmlns="http://www.w3.org/2000/svg">
<path d="M11.2312 20.1375C11.1897 20.3002 11.0955 20.4447 10.9632 20.5482C10.8308 20.6516 10.6679 20.7083 10.5 20.7093C10.4395 20.7091 10.3794 20.6997 10.3218 20.6812L7.49059 19.9781C7.26095 19.9201 7.04869 19.8075 6.87184 19.65L4.76247 17.8125C4.6886 17.7484 4.62806 17.6705 4.58432 17.5831C4.54057 17.4957 4.51447 17.4005 4.5075 17.303C4.50054 17.2055 4.51285 17.1076 4.54373 17.0148C4.5746 16.9221 4.62345 16.8363 4.68747 16.7625C4.75149 16.6886 4.82943 16.6281 4.91684 16.5843C5.00426 16.5406 5.09943 16.5145 5.19693 16.5075C5.29444 16.5005 5.39235 16.5128 5.4851 16.5437C5.57784 16.5746 5.6636 16.6234 5.73747 16.6875L7.85622 18.525L10.6781 19.2281C10.8711 19.2769 11.0372 19.3996 11.1406 19.5697C11.2441 19.7397 11.2766 19.9436 11.2312 20.1375ZM23.6625 11.2125C23.6008 11.4013 23.5018 11.5758 23.3714 11.7256C23.2409 11.8753 23.0817 11.9973 22.9031 12.0843L20.7187 13.1812L19.3218 14.8218H19.3031C19.3031 14.8312 19.2937 14.8312 19.2937 14.8406H19.2843L15.8343 18.2906C15.5484 18.5701 15.1654 18.728 14.7656 18.7312C14.6454 18.7301 14.5258 18.7144 14.4093 18.6843L8.97184 17.3437C8.76654 17.2958 8.57442 17.203 8.40934 17.0718L3.34684 13.1156L1.09684 11.9906C0.737434 11.8084 0.464511 11.4917 0.337467 11.1093C0.277406 10.9199 0.255593 10.7204 0.273297 10.5224C0.291 10.3245 0.347867 10.132 0.440592 9.95621L2.74684 5.54059C2.9291 5.1931 3.23951 4.93025 3.61227 4.80774C3.98504 4.68524 4.39086 4.71271 4.74372 4.88434L6.84372 5.93434L11.4093 4.60309C11.7516 4.50983 12.1154 4.53629 12.4406 4.67809L15.5343 6.08434H17.0718L19.2562 4.98746C19.6075 4.81267 20.0134 4.78251 20.3867 4.90343C20.76 5.02436 21.071 5.28675 21.2531 5.63434L23.5593 10.05C23.6523 10.2274 23.7093 10.4214 23.727 10.6209C23.7447 10.8204 23.7228 11.0215 23.6625 11.2125ZM17.5968 14.4187L14.6343 12.2625L13.875 12.8343C13.2246 13.3183 12.4356 13.5797 11.625 13.5797C10.8143 13.5797 10.0253 13.3183 9.37497 12.8343L8.86872 12.45C8.69577 12.3219 8.5526 12.1579 8.44907 11.9692C8.34553 11.7805 8.28408 11.5716 8.26893 11.357C8.25379 11.1423 8.28531 10.9269 8.36134 10.7255C8.43736 10.5242 8.55608 10.3417 8.70934 10.1906L12.375 6.51559L12.5437 6.37496L11.8218 6.04684L7.25622 7.37809L4.70622 12.2718L9.33747 15.8906L14.7656 17.25L17.5968 14.4187ZM19.35 12.4781L16.8 7.58434H13.4343L9.76872 11.25L10.275 11.6343C10.6662 11.9222 11.1392 12.0774 11.625 12.0774C12.1107 12.0774 12.5837 11.9222 12.975 11.6343L14.175 10.7343C14.3029 10.6378 14.4585 10.5848 14.6187 10.5831C14.779 10.5814 14.9356 10.6311 15.0656 10.725L18.6281 13.3125L19.35 12.4781Z" fill="#0091ED"/>
</svg>
