<svg width="145" height="40" viewBox="0 0 145 40" fill="none" xmlns="http://www.w3.org/2000/svg">
<rect width="145" height="40" rx="8" fill="#0065FD"/>
<path d="M15.75 20H32.25" stroke="white" stroke-width="2" stroke-linecap="round" stroke-linejoin="round"/>
<path d="M24 11.75V28.25" stroke="white" stroke-width="2" stroke-linecap="round" stroke-linejoin="round"/>
<path d="M50.3906 26H48.6406V21.3828L44.6719 14.7266H46.625L49.5 19.7031H49.5547L52.4297 14.7266H54.3672L50.3906 21.3828V26ZM57.2734 18.9922C56.0938 18.9922 55.2656 19.8906 55.1797 21.1328H59.2891C59.25 19.875 58.4531 18.9922 57.2734 18.9922ZM59.2812 23.5859H60.8828C60.6484 25.0859 59.2266 26.1562 57.3438 26.1562C54.9297 26.1562 53.4688 24.5234 53.4688 21.9297C53.4688 19.3516 54.9531 17.6328 57.2734 17.6328C59.5547 17.6328 60.9766 19.2422 60.9766 21.7344V22.3125H55.1719V22.4141C55.1719 23.8438 56.0312 24.7891 57.3828 24.7891C58.3438 24.7891 59.0547 24.3047 59.2812 23.5859ZM62.2891 26V17.7812H63.8984V19.1562H63.9375C64.3828 18.2188 65.2578 17.6406 66.5234 17.6406C68.3359 17.6406 69.375 18.7969 69.375 20.6797V26H67.6797V21.0078C67.6797 19.7734 67.1016 19.0938 65.9297 19.0938C64.7422 19.0938 63.9766 19.9375 63.9766 21.2109V26H62.2891ZM71.0625 26V17.7812H72.75V26H71.0625ZM71.9062 16.5781C71.3672 16.5781 70.9297 16.1484 70.9297 15.6172C70.9297 15.0781 71.3672 14.6484 71.9062 14.6484C72.4531 14.6484 72.8906 15.0781 72.8906 15.6172C72.8906 16.1484 72.4531 16.5781 71.9062 16.5781ZM77.7266 26V17.7812H79.3359V19.1641H79.375C79.7422 18.25 80.6016 17.6406 81.7109 17.6406C82.8516 17.6406 83.6797 18.2266 84.0078 19.25H84.0469C84.4688 18.25 85.4375 17.6406 86.6094 17.6406C88.2344 17.6406 89.2969 18.7188 89.2969 20.3516V26H87.6016V20.7578C87.6016 19.6953 87.0312 19.0859 86.0312 19.0859C85.0312 19.0859 84.3359 19.8281 84.3359 20.8672V26H82.6797V20.6328C82.6797 19.6875 82.0781 19.0859 81.125 19.0859C80.125 19.0859 79.4141 19.8672 79.4141 20.9219V26H77.7266ZM97.9766 17.7812V26H96.3594V24.6094H96.3203C95.8672 25.5938 95.0312 26.1484 93.7734 26.1484C91.9844 26.1484 90.8906 24.9844 90.8906 23.1016V17.7812H92.5781V22.7734C92.5781 24.0234 93.1719 24.6953 94.3359 24.6953C95.5547 24.6953 96.2891 23.8516 96.2891 22.5703V17.7812H97.9766ZM92.9375 16.5547C92.4219 16.5547 92.0078 16.1484 92.0078 15.6406C92.0078 15.1328 92.4219 14.7266 92.9375 14.7266C93.4453 14.7266 93.8594 15.1328 93.8594 15.6406C93.8594 16.1484 93.4453 16.5547 92.9375 16.5547ZM95.9453 16.5547C95.4297 16.5547 95.0156 16.1484 95.0156 15.6406C95.0156 15.1328 95.4297 14.7266 95.9453 14.7266C96.4531 14.7266 96.8672 15.1328 96.8672 15.6406C96.8672 16.1484 96.4531 16.5547 95.9453 16.5547ZM102.406 21.0703L103.789 21.3906C105.445 21.7891 106.07 22.4141 106.07 23.625C106.07 24.9688 104.945 25.9375 103.266 26.125L102.898 26.9609C103.867 26.9688 104.5 27.4219 104.5 28.2188C104.5 29.1328 103.711 29.6172 102.633 29.6328C102.18 29.6406 101.688 29.5859 101.484 29.5234V28.6719C101.656 28.7109 102.102 28.7656 102.422 28.7656C103.047 28.7656 103.367 28.5859 103.367 28.25C103.367 27.9062 103.047 27.7734 102.289 27.7734H101.766V27.1562L102.188 26.1328C100.508 25.9844 99.4141 25.0234 99.2891 23.6406H100.961C101.094 24.4297 101.703 24.8672 102.734 24.8672C103.75 24.8672 104.375 24.4453 104.375 23.7812C104.375 23.2578 104.062 22.9688 103.203 22.75L101.734 22.3906C100.25 22.0312 99.5 21.2578 99.5 20.1094C99.5 18.6406 100.797 17.6328 102.719 17.6328C104.547 17.6328 105.828 18.6562 105.883 20.1172H104.297C104.219 19.375 103.617 18.9141 102.672 18.9141C101.758 18.9141 101.148 19.3594 101.148 20.0078C101.148 20.5156 101.555 20.8594 102.406 21.0703ZM107.875 15.8359H109.57V17.7812H111.133V19.1172H109.57V23.6484C109.57 24.3594 109.883 24.6797 110.57 24.6797C110.742 24.6797 111.016 24.6641 111.125 24.6406V25.9766C110.938 26.0234 110.562 26.0547 110.188 26.0547C108.523 26.0547 107.875 25.4219 107.875 23.8359V19.1172H106.68V17.7812H107.875V15.8359ZM115.922 24.7969C117.109 24.7969 117.945 23.9375 118.031 22.6406H113.922C113.945 23.9453 114.742 24.7969 115.922 24.7969ZM113.93 20.0234H112.32C112.703 18.5703 114.016 17.6328 115.898 17.6328C118.273 17.6328 119.734 19.2656 119.734 21.875C119.734 24.4766 118.25 26.1562 115.914 26.1562C113.641 26.1562 112.227 24.5703 112.227 22.0312C112.227 21.875 112.25 21.4531 112.25 21.4531H118.039V21.3672C118.039 19.9297 117.164 18.9844 115.891 18.9844C114.906 18.9844 114.266 19.3438 113.93 20.0234ZM121.117 26V17.7812H122.727V19.1797H122.766C123.039 18.2188 123.773 17.6484 124.742 17.6484C124.984 17.6484 125.195 17.6875 125.32 17.7109V19.2812C125.188 19.2266 124.891 19.1875 124.562 19.1875C123.477 19.1875 122.805 19.9141 122.805 21.0781V26H121.117ZM126.422 26V17.7812H128.109V26H126.422ZM127.266 16.5781C126.727 16.5781 126.289 16.1484 126.289 15.6172C126.289 15.0781 126.727 14.6484 127.266 14.6484C127.812 14.6484 128.25 15.0781 128.25 15.6172C128.25 16.1484 127.812 16.5781 127.266 16.5781Z" fill="white"/>
</svg>
