<svg width="37" height="37" viewBox="0 0 37 37" fill="none" xmlns="http://www.w3.org/2000/svg">
<path d="M35.9797 19.3547L19.4797 35.8547C19.219 36.1129 18.8669 36.2577 18.5 36.2577C18.1331 36.2577 17.781 36.1129 17.5203 35.8547L1.02031 19.3547C0.833775 19.1559 0.707342 18.9083 0.655634 18.6407C0.603926 18.373 0.629057 18.0962 0.72812 17.8422C0.83331 17.5919 1.01022 17.3784 1.23656 17.2285C1.4629 17.0787 1.72854 16.9991 1.99999 17H8.875V12.875C8.875 12.5103 9.01986 12.1606 9.27772 11.9027C9.53559 11.6449 9.88532 11.5 10.25 11.5H26.75C27.1147 11.5 27.4644 11.6449 27.7223 11.9027C27.9801 12.1606 28.125 12.5103 28.125 12.875V17H35C35.2715 16.9991 35.5371 17.0787 35.7634 17.2285C35.9898 17.3784 36.1667 17.5919 36.2719 17.8422C36.3709 18.0962 36.3961 18.373 36.3444 18.6407C36.2926 18.9083 36.1662 19.1559 35.9797 19.3547ZM28.125 1.875C28.125 1.51033 27.9801 1.16059 27.7223 0.902728C27.4644 0.644866 27.1147 0.5 26.75 0.5H10.25C9.88532 0.5 9.53559 0.644866 9.27772 0.902728C9.01986 1.16059 8.875 1.51033 8.875 1.875C8.875 2.23967 9.01986 2.58941 9.27772 2.84727C9.53559 3.10513 9.88532 3.25 10.25 3.25H26.75C27.1147 3.25 27.4644 3.10513 27.7223 2.84727C27.9801 2.58941 28.125 2.23967 28.125 1.875ZM28.125 7.375C28.125 7.01033 27.9801 6.66059 27.7223 6.40273C27.4644 6.14487 27.1147 6 26.75 6H10.25C9.88532 6 9.53559 6.14487 9.27772 6.40273C9.01986 6.66059 8.875 7.01033 8.875 7.375C8.875 7.73967 9.01986 8.08941 9.27772 8.34727C9.53559 8.60513 9.88532 8.75 10.25 8.75H26.75C27.1147 8.75 27.4644 8.60513 27.7223 8.34727C27.9801 8.08941 28.125 7.73967 28.125 7.375Z" fill="#EE0000"/>
</svg>
