<svg width="24" height="24" viewBox="0 0 24 24" fill="none" xmlns="http://www.w3.org/2000/svg">
<rect width="24" height="24" rx="12" fill="#0065FD"/>
<path d="M18 11.4999V16.9999C18 17.2651 17.8946 17.5195 17.7071 17.707C17.5196 17.8945 17.2652 17.9999 17 17.9999H7C6.73478 17.9999 6.48043 17.8945 6.29289 17.707C6.10536 17.5195 6 17.2651 6 16.9999V6.99988C6 6.73467 6.10536 6.48031 6.29289 6.29278C6.48043 6.10524 6.73478 5.99988 7 5.99988H12.5C12.6326 5.99988 12.7598 6.05256 12.8536 6.14633C12.9473 6.2401 13 6.36727 13 6.49988C13 6.63249 12.9473 6.75967 12.8536 6.85344C12.7598 6.9472 12.6326 6.99988 12.5 6.99988H7V16.9999H17V11.4999C17 11.3673 17.0527 11.2401 17.1464 11.1463C17.2402 11.0526 17.3674 10.9999 17.5 10.9999C17.6326 10.9999 17.7598 11.0526 17.8536 11.1463C17.9473 11.2401 18 11.3673 18 11.4999ZM18.3562 8.35613L12.3562 14.3561C12.261 14.449 12.133 14.5006 12 14.4999H10C9.86739 14.4999 9.74021 14.4472 9.64645 14.3534C9.55268 14.2597 9.5 14.1325 9.5 13.9999V11.9999C9.49925 11.8669 9.55089 11.7389 9.64375 11.6436L15.6438 5.64363C15.7385 5.54974 15.8666 5.49707 16 5.49707C16.1334 5.49707 16.2615 5.54974 16.3562 5.64363L18.3562 7.64363C18.4501 7.73843 18.5028 7.86646 18.5028 7.99988C18.5028 8.13331 18.4501 8.26134 18.3562 8.35613ZM17.2937 7.99988L16 6.70613L15.2063 7.49988L16.5 8.79363L17.2937 7.99988Z" fill="white"/>
</svg>
