<svg width="150" height="40" viewBox="0 0 150 40" fill="none" xmlns="http://www.w3.org/2000/svg">
<rect width="150" height="40" rx="8" fill="#0065FD"/>
<path d="M15.75 20H32.25" stroke="white" stroke-width="2" stroke-linecap="round" stroke-linejoin="round"/>
<path d="M24 11.75V28.25" stroke="white" stroke-width="2" stroke-linecap="round" stroke-linejoin="round"/>
<path d="M45.0938 26L48.8359 20.3516V20.2969L45.1328 14.7266H47.2188L50 19.0859H50.0625L52.875 14.7266H54.8516L51.0312 20.3594V20.4062L54.7812 26H52.7344L49.9297 21.7031H49.875L47.0312 26H45.0938ZM59.4375 24.7969C60.625 24.7969 61.4609 23.9375 61.5469 22.6406H57.4375C57.4609 23.9453 58.2578 24.7969 59.4375 24.7969ZM57.4453 20.0234H55.8359C56.2188 18.5703 57.5312 17.6328 59.4141 17.6328C61.7891 17.6328 63.25 19.2656 63.25 21.875C63.25 24.4766 61.7656 26.1562 59.4297 26.1562C57.1562 26.1562 55.7422 24.5703 55.7422 22.0312C55.7422 21.875 55.7656 21.4531 55.7656 21.4531H61.5547V21.3672C61.5547 19.9297 60.6797 18.9844 59.4062 18.9844C58.4219 18.9844 57.7812 19.3438 57.4453 20.0234ZM64.6328 26V17.7812H66.2422V19.1797H66.2812C66.5547 18.2188 67.2891 17.6484 68.2578 17.6484C68.5 17.6484 68.7109 17.6875 68.8359 17.7109V19.2812C68.7031 19.2266 68.4062 19.1875 68.0781 19.1875C66.9922 19.1875 66.3203 19.9141 66.3203 21.0781V26H64.6328ZM76.5781 20.6094H74.9688C74.7969 19.7344 74.1406 19.0391 73.0391 19.0391C71.7344 19.0391 70.875 20.125 70.875 21.8906C70.875 23.6953 71.7422 24.7422 73.0547 24.7422C74.0938 24.7422 74.7734 24.1719 74.9688 23.2188H76.5938C76.4141 24.9688 75.0156 26.1562 73.0391 26.1562C70.6875 26.1562 69.1562 24.5469 69.1562 21.8906C69.1562 19.2812 70.6875 17.6328 73.0234 17.6328C75.1406 17.6328 76.4297 18.9922 76.5781 20.6094ZM84.4375 24.7969C85.625 24.7969 86.4609 23.9375 86.5469 22.6406H82.4375C82.4609 23.9453 83.2578 24.7969 84.4375 24.7969ZM82.4453 20.0234H80.8359C81.2188 18.5703 82.5312 17.6328 84.4141 17.6328C86.7891 17.6328 88.25 19.2656 88.25 21.875C88.25 24.4766 86.7656 26.1562 84.4297 26.1562C82.1562 26.1562 80.7422 24.5703 80.7422 22.0312C80.7422 21.875 80.7656 21.4531 80.7656 21.4531H86.5547V21.3672C86.5547 19.9297 85.6797 18.9844 84.4062 18.9844C83.4219 18.9844 82.7812 19.3438 82.4453 20.0234ZM89.6953 26V14.7266H91.3828V26H89.6953ZM95.9922 24.8047C97.1719 24.8047 98.0938 23.9922 98.0938 22.9219V22.2734L96.0703 22.3984C95.0625 22.4688 94.4922 22.9141 94.4922 23.6172C94.4922 24.3359 95.0859 24.8047 95.9922 24.8047ZM95.5234 26.1406C93.9141 26.1406 92.7891 25.1406 92.7891 23.6641C92.7891 22.2266 93.8906 21.3438 95.8438 21.2344L98.0938 21.1016V20.4688C98.0938 19.5547 97.4766 19.0078 96.4453 19.0078C95.4688 19.0078 94.8594 19.4766 94.7109 20.2109H93.1172C93.2109 18.7266 94.4766 17.6328 96.5078 17.6328C98.5 17.6328 99.7734 18.6875 99.7734 20.3359V26H98.1562V24.6484H98.1172C97.6406 25.5625 96.6016 26.1406 95.5234 26.1406ZM108.43 17.7812L105.484 26H103.672L100.711 17.7812H102.508L104.57 24.3516H104.602L106.664 17.7812H108.43ZM112.797 24.7969C113.984 24.7969 114.82 23.9375 114.906 22.6406H110.797C110.82 23.9453 111.617 24.7969 112.797 24.7969ZM110.805 20.0234H109.195C109.578 18.5703 110.891 17.6328 112.773 17.6328C115.148 17.6328 116.609 19.2656 116.609 21.875C116.609 24.4766 115.125 26.1562 112.789 26.1562C110.516 26.1562 109.102 24.5703 109.102 22.0312C109.102 21.875 109.125 21.4531 109.125 21.4531H114.914V21.3672C114.914 19.9297 114.039 18.9844 112.766 18.9844C111.781 18.9844 111.141 19.3438 110.805 20.0234ZM124.68 18.9922C123.5 18.9922 122.672 19.8906 122.586 21.1328H126.695C126.656 19.875 125.859 18.9922 124.68 18.9922ZM126.688 23.5859H128.289C128.055 25.0859 126.633 26.1562 124.75 26.1562C122.336 26.1562 120.875 24.5234 120.875 21.9297C120.875 19.3516 122.359 17.6328 124.68 17.6328C126.961 17.6328 128.383 19.2422 128.383 21.7344V22.3125H122.578V22.4141C122.578 23.8438 123.438 24.7891 124.789 24.7891C125.75 24.7891 126.461 24.3047 126.688 23.5859ZM130.188 15.8359H131.883V17.7812H133.445V19.1172H131.883V23.6484C131.883 24.3594 132.195 24.6797 132.883 24.6797C133.055 24.6797 133.328 24.6641 133.438 24.6406V25.9766C133.25 26.0234 132.875 26.0547 132.5 26.0547C130.836 26.0547 130.188 25.4219 130.188 23.8359V19.1172H128.992V17.7812H130.188V15.8359Z" fill="white"/>
</svg>
