<svg width="37" height="37" viewBox="0 0 37 37" fill="none" xmlns="http://www.w3.org/2000/svg">
<path d="M36.2719 19.1577C36.1667 19.408 35.9898 19.6215 35.7634 19.7714C35.5371 19.9212 35.2715 20.0008 35 19.9999H28.125V24.1249C28.125 24.4896 27.9801 24.8393 27.7223 25.0972C27.4644 25.3551 27.1147 25.4999 26.75 25.4999H10.25C9.88532 25.4999 9.53559 25.3551 9.27772 25.0972C9.01986 24.8393 8.875 24.4896 8.875 24.1249V19.9999H1.99999C1.72854 20.0008 1.4629 19.9212 1.23656 19.7714C1.01022 19.6215 0.83331 19.408 0.72812 19.1577C0.629057 18.9038 0.603926 18.6269 0.655634 18.3593C0.707342 18.0916 0.833775 17.844 1.02031 17.6452L17.5203 1.14523C17.781 0.887035 18.1331 0.742187 18.5 0.742188C18.8669 0.742187 19.219 0.887035 19.4797 1.14523L35.9797 17.6452C36.1662 17.844 36.2926 18.0916 36.3444 18.3593C36.3961 18.6269 36.3709 18.9038 36.2719 19.1577ZM26.75 33.7499H10.25C9.88532 33.7499 9.53559 33.8948 9.27772 34.1527C9.01986 34.4105 8.875 34.7603 8.875 35.1249C8.875 35.4896 9.01986 35.8393 9.27772 36.0972C9.53559 36.3551 9.88532 36.4999 10.25 36.4999H26.75C27.1147 36.4999 27.4644 36.3551 27.7223 36.0972C27.9801 35.8393 28.125 35.4896 28.125 35.1249C28.125 34.7603 27.9801 34.4105 27.7223 34.1527C27.4644 33.8948 27.1147 33.7499 26.75 33.7499ZM26.75 28.2499H10.25C9.88532 28.2499 9.53559 28.3948 9.27772 28.6527C9.01986 28.9105 8.875 29.2603 8.875 29.6249C8.875 29.9896 9.01986 30.3393 9.27772 30.5972C9.53559 30.8551 9.88532 30.9999 10.25 30.9999H26.75C27.1147 30.9999 27.4644 30.8551 27.7223 30.5972C27.9801 30.3393 28.125 29.9896 28.125 29.6249C28.125 29.2603 27.9801 28.9105 27.7223 28.6527C27.4644 28.3948 27.1147 28.2499 26.75 28.2499Z" fill="#0EA900"/>
</svg>
