<svg width="139" height="28" viewBox="0 0 139 28" fill="none" xmlns="http://www.w3.org/2000/svg">
<rect width="139" height="28" rx="8" fill="#F2F7FF"/>
<path d="M18 8.375C11.75 8.375 9.25 14 9.25 14C9.25 14 11.75 19.625 18 19.625C24.25 19.625 26.75 14 26.75 14C26.75 14 24.25 8.375 18 8.375Z" stroke="#0065FD" stroke-width="1.5" stroke-linecap="round" stroke-linejoin="round"/>
<path d="M18 17.125C19.7259 17.125 21.125 15.7259 21.125 14C21.125 12.2741 19.7259 10.875 18 10.875C16.2741 10.875 14.875 12.2741 14.875 14C14.875 15.7259 16.2741 17.125 18 17.125Z" stroke="#0065FD" stroke-width="1.5" stroke-linecap="round" stroke-linejoin="round"/>
<path d="M39.469 17.894L39.462 19H33.281V8.969H39.462V10.075H34.639V13.407H38.545V14.471H34.639V17.894H39.469ZM45.3863 13.596C45.153 13.2833 44.901 13.0663 44.6303 12.945C44.3596 12.819 44.0563 12.756 43.7203 12.756C43.0623 12.756 42.556 12.9917 42.2013 13.463C41.8466 13.9343 41.6693 14.6063 41.6693 15.479C41.6693 15.941 41.709 16.3377 41.7883 16.669C41.8676 16.9957 41.9843 17.2663 42.1383 17.481C42.2923 17.691 42.4813 17.845 42.7053 17.943C42.9293 18.041 43.1836 18.09 43.4683 18.09C43.879 18.09 44.236 17.9967 44.5393 17.81C44.8473 17.6233 45.1296 17.3597 45.3863 17.019V13.596ZM46.6323 8.689V19H45.8903C45.713 19 45.601 18.9137 45.5543 18.741L45.4423 17.88C45.139 18.244 44.7936 18.538 44.4063 18.762C44.019 18.986 43.571 19.098 43.0623 19.098C42.6563 19.098 42.2876 19.021 41.9563 18.867C41.625 18.7083 41.3426 18.4773 41.1093 18.174C40.876 17.8707 40.6963 17.4927 40.5703 17.04C40.4443 16.5873 40.3813 16.067 40.3813 15.479C40.3813 14.9563 40.4513 14.471 40.5913 14.023C40.7313 13.5703 40.932 13.1783 41.1933 12.847C41.4546 12.5157 41.7743 12.2567 42.1523 12.07C42.535 11.8787 42.9643 11.783 43.4403 11.783C43.8743 11.783 44.2453 11.8577 44.5533 12.007C44.866 12.1517 45.1436 12.3547 45.3863 12.616V8.689H46.6323ZM49.9163 11.909V19H48.6703V11.909H49.9163ZM50.1823 9.683C50.1823 9.80433 50.1566 9.91867 50.1053 10.026C50.0586 10.1287 49.9933 10.222 49.9093 10.306C49.8299 10.3853 49.7343 10.4483 49.6223 10.495C49.5149 10.5417 49.4006 10.565 49.2793 10.565C49.1579 10.565 49.0436 10.5417 48.9363 10.495C48.8336 10.4483 48.7426 10.3853 48.6633 10.306C48.5839 10.222 48.5209 10.1287 48.4743 10.026C48.4276 9.91867 48.4043 9.80433 48.4043 9.683C48.4043 9.56167 48.4276 9.44733 48.4743 9.34C48.5209 9.228 48.5839 9.13233 48.6633 9.053C48.7426 8.969 48.8336 8.90367 48.9363 8.857C49.0436 8.81033 49.1579 8.787 49.2793 8.787C49.4006 8.787 49.5149 8.81033 49.6223 8.857C49.7343 8.90367 49.8299 8.969 49.9093 9.053C49.9933 9.13233 50.0586 9.228 50.1053 9.34C50.1566 9.44733 50.1823 9.56167 50.1823 9.683ZM53.2516 8.689V19H52.0056V8.689H53.2516ZM55.9442 16.214C55.9442 16.5033 55.9838 16.7693 56.0632 17.012C56.1472 17.25 56.2662 17.4577 56.4202 17.635C56.5788 17.8077 56.7702 17.943 56.9942 18.041C57.2228 18.1343 57.4795 18.181 57.7642 18.181C58.3615 18.181 58.8328 18.0083 59.1782 17.663C59.5235 17.313 59.7382 16.83 59.8222 16.214H55.9442ZM54.9362 12.896C55.0948 12.7093 55.2792 12.5483 55.4892 12.413C55.7038 12.273 55.9325 12.1587 56.1752 12.07C56.4225 11.9767 56.6768 11.909 56.9382 11.867C57.1995 11.8203 57.4585 11.797 57.7152 11.797C58.2052 11.797 58.6555 11.881 59.0662 12.049C59.4815 12.2123 59.8385 12.455 60.1372 12.777C60.4405 13.099 60.6762 13.4957 60.8442 13.967C61.0122 14.4383 61.0962 14.9797 61.0962 15.591C61.0962 16.0857 61.0192 16.5477 60.8652 16.977C60.7158 17.4017 60.4988 17.7727 60.2142 18.09C59.9295 18.4027 59.5818 18.65 59.1712 18.832C58.7652 19.0093 58.3032 19.098 57.7852 19.098C57.3605 19.098 56.9662 19.028 56.6022 18.888C56.2428 18.748 55.9302 18.5427 55.6642 18.272C55.4028 18.0013 55.1975 17.67 55.0482 17.278C54.8988 16.886 54.8242 16.438 54.8242 15.934C54.8242 15.738 54.8452 15.6073 54.8872 15.542C54.9292 15.4767 55.0085 15.444 55.1252 15.444H59.8642C59.8502 14.996 59.7872 14.6063 59.6752 14.275C59.5678 13.939 59.4162 13.6613 59.2202 13.442C59.0288 13.2227 58.7955 13.0593 58.5202 12.952C58.2495 12.84 57.9462 12.784 57.6102 12.784C57.2975 12.784 57.0268 12.8213 56.7982 12.896C56.5742 12.966 56.3805 13.043 56.2172 13.127C56.0538 13.211 55.9162 13.2903 55.8042 13.365C55.6968 13.435 55.6058 13.47 55.5312 13.47C55.4238 13.47 55.3445 13.428 55.2932 13.344L54.9362 12.896ZM63.8446 12.938C63.9986 12.7653 64.162 12.609 64.3346 12.469C64.5073 12.329 64.6893 12.21 64.8806 12.112C65.0766 12.0093 65.282 11.9323 65.4966 11.881C65.716 11.825 65.9516 11.797 66.2036 11.797C66.591 11.797 66.9316 11.8623 67.2256 11.993C67.5243 12.119 67.7716 12.301 67.9676 12.539C68.1683 12.7723 68.32 13.0547 68.4226 13.386C68.5253 13.7173 68.5766 14.0837 68.5766 14.485V19H67.3236V14.485C67.3236 13.9483 67.2 13.533 66.9526 13.239C66.71 12.9403 66.339 12.791 65.8396 12.791C65.471 12.791 65.1256 12.8797 64.8036 13.057C64.4863 13.2343 64.1923 13.4747 63.9216 13.778V19H62.6686V11.909H63.4176C63.595 11.909 63.7046 11.9953 63.7466 12.168L63.8446 12.938ZM78.6773 13.596C78.444 13.2833 78.192 13.0663 77.9213 12.945C77.6506 12.819 77.3473 12.756 77.0113 12.756C76.3533 12.756 75.847 12.9917 75.4923 13.463C75.1376 13.9343 74.9603 14.6063 74.9603 15.479C74.9603 15.941 75 16.3377 75.0793 16.669C75.1586 16.9957 75.2753 17.2663 75.4293 17.481C75.5833 17.691 75.7723 17.845 75.9963 17.943C76.2203 18.041 76.4746 18.09 76.7593 18.09C77.17 18.09 77.527 17.9967 77.8303 17.81C78.1383 17.6233 78.4206 17.3597 78.6773 17.019V13.596ZM79.9233 8.689V19H79.1813C79.004 19 78.892 18.9137 78.8453 18.741L78.7333 17.88C78.43 18.244 78.0846 18.538 77.6973 18.762C77.31 18.986 76.862 19.098 76.3533 19.098C75.9473 19.098 75.5786 19.021 75.2473 18.867C74.916 18.7083 74.6336 18.4773 74.4003 18.174C74.167 17.8707 73.9873 17.4927 73.8613 17.04C73.7353 16.5873 73.6723 16.067 73.6723 15.479C73.6723 14.9563 73.7423 14.471 73.8823 14.023C74.0223 13.5703 74.223 13.1783 74.4843 12.847C74.7456 12.5157 75.0653 12.2567 75.4433 12.07C75.826 11.8787 76.2553 11.783 76.7313 11.783C77.1653 11.783 77.5363 11.8577 77.8443 12.007C78.157 12.1517 78.4346 12.3547 78.6773 12.616V8.689H79.9233ZM82.5633 16.214C82.5633 16.5033 82.603 16.7693 82.6823 17.012C82.7663 17.25 82.8853 17.4577 83.0393 17.635C83.198 17.8077 83.3893 17.943 83.6133 18.041C83.842 18.1343 84.0986 18.181 84.3833 18.181C84.9806 18.181 85.452 18.0083 85.7973 17.663C86.1426 17.313 86.3573 16.83 86.4413 16.214H82.5633ZM81.5553 12.896C81.714 12.7093 81.8983 12.5483 82.1083 12.413C82.323 12.273 82.5516 12.1587 82.7943 12.07C83.0416 11.9767 83.296 11.909 83.5573 11.867C83.8186 11.8203 84.0776 11.797 84.3343 11.797C84.8243 11.797 85.2746 11.881 85.6853 12.049C86.1006 12.2123 86.4576 12.455 86.7563 12.777C87.0596 13.099 87.2953 13.4957 87.4633 13.967C87.6313 14.4383 87.7153 14.9797 87.7153 15.591C87.7153 16.0857 87.6383 16.5477 87.4843 16.977C87.335 17.4017 87.118 17.7727 86.8333 18.09C86.5486 18.4027 86.201 18.65 85.7903 18.832C85.3843 19.0093 84.9223 19.098 84.4043 19.098C83.9796 19.098 83.5853 19.028 83.2213 18.888C82.862 18.748 82.5493 18.5427 82.2833 18.272C82.022 18.0013 81.8166 17.67 81.6673 17.278C81.518 16.886 81.4433 16.438 81.4433 15.934C81.4433 15.738 81.4643 15.6073 81.5063 15.542C81.5483 15.4767 81.6276 15.444 81.7443 15.444H86.4833C86.4693 14.996 86.4063 14.6063 86.2943 14.275C86.187 13.939 86.0353 13.6613 85.8393 13.442C85.648 13.2227 85.4146 13.0593 85.1393 12.952C84.8686 12.84 84.5653 12.784 84.2293 12.784C83.9166 12.784 83.646 12.8213 83.4173 12.896C83.1933 12.966 82.9996 13.043 82.8363 13.127C82.673 13.211 82.5353 13.2903 82.4233 13.365C82.316 13.435 82.225 13.47 82.1503 13.47C82.043 13.47 81.9636 13.428 81.9123 13.344L81.5553 12.896ZM95.187 11.909L91.232 21.093C91.19 21.1863 91.1364 21.261 91.071 21.317C91.0104 21.373 90.9147 21.401 90.784 21.401H89.86L91.155 18.587L88.229 11.909H89.307C89.4144 11.909 89.4984 11.937 89.559 11.993C89.6244 12.0443 89.6687 12.1027 89.692 12.168L91.589 16.634C91.6637 16.83 91.7267 17.0353 91.778 17.25C91.8434 17.0307 91.9134 16.823 91.988 16.627L93.829 12.168C93.857 12.0933 93.9037 12.0327 93.969 11.986C94.039 11.9347 94.116 11.909 94.2 11.909H95.187ZM97.6038 11.909V19H96.3578V11.909H97.6038ZM97.8698 9.683C97.8698 9.80433 97.8441 9.91867 97.7928 10.026C97.7461 10.1287 97.6808 10.222 97.5968 10.306C97.5174 10.3853 97.4218 10.4483 97.3098 10.495C97.2024 10.5417 97.0881 10.565 96.9668 10.565C96.8454 10.565 96.7311 10.5417 96.6238 10.495C96.5211 10.4483 96.4301 10.3853 96.3508 10.306C96.2714 10.222 96.2084 10.1287 96.1618 10.026C96.1151 9.91867 96.0918 9.80433 96.0918 9.683C96.0918 9.56167 96.1151 9.44733 96.1618 9.34C96.2084 9.228 96.2714 9.13233 96.3508 9.053C96.4301 8.969 96.5211 8.90367 96.6238 8.857C96.7311 8.81033 96.8454 8.787 96.9668 8.787C97.0881 8.787 97.2024 8.81033 97.3098 8.857C97.4218 8.90367 97.5174 8.969 97.5968 9.053C97.6808 9.13233 97.7461 9.228 97.7928 9.34C97.8441 9.44733 97.8698 9.56167 97.8698 9.683ZM103.781 13.078C103.725 13.1807 103.639 13.232 103.522 13.232C103.452 13.232 103.373 13.2063 103.284 13.155C103.195 13.1037 103.086 13.0477 102.955 12.987C102.829 12.9217 102.677 12.8633 102.5 12.812C102.323 12.756 102.113 12.728 101.87 12.728C101.66 12.728 101.471 12.756 101.303 12.812C101.135 12.8633 100.99 12.9357 100.869 13.029C100.752 13.1223 100.661 13.232 100.596 13.358C100.535 13.4793 100.505 13.6123 100.505 13.757C100.505 13.939 100.556 14.0907 100.659 14.212C100.766 14.3333 100.906 14.4383 101.079 14.527C101.252 14.6157 101.448 14.695 101.667 14.765C101.886 14.8303 102.11 14.9027 102.339 14.982C102.572 15.0567 102.799 15.1407 103.018 15.234C103.237 15.3273 103.433 15.444 103.606 15.584C103.779 15.724 103.916 15.8967 104.019 16.102C104.126 16.3027 104.18 16.5453 104.18 16.83C104.18 17.1333 104.129 17.4157 104.026 17.677C103.928 17.9337 103.781 18.1623 103.585 18.363C103.394 18.5637 103.153 18.7293 102.864 18.86C102.579 18.986 102.253 19.0653 101.884 19.098L101.765 19.525C102.199 19.6137 102.512 19.7397 102.703 19.903C102.894 20.0663 102.99 20.274 102.99 20.526C102.99 20.6753 102.953 20.8107 102.878 20.932C102.803 21.0533 102.698 21.156 102.563 21.24C102.432 21.324 102.274 21.387 102.087 21.429C101.9 21.4757 101.695 21.499 101.471 21.499C101.28 21.499 101.098 21.478 100.925 21.436C100.752 21.3987 100.594 21.3473 100.449 21.282L100.568 20.897C100.596 20.813 100.65 20.771 100.729 20.771C100.757 20.771 100.79 20.778 100.827 20.792C100.864 20.8107 100.909 20.8293 100.96 20.848C101.016 20.8713 101.079 20.89 101.149 20.904C101.224 20.9227 101.31 20.932 101.408 20.932C101.604 20.932 101.751 20.8923 101.849 20.813C101.952 20.7337 102.003 20.6333 102.003 20.512C102.003 20.3347 101.905 20.2087 101.709 20.134C101.513 20.064 101.235 20.0057 100.876 19.959L101.163 19.098C100.743 19.0607 100.363 18.9673 100.022 18.818C99.6814 18.664 99.3851 18.475 99.1331 18.251L99.4271 17.775C99.4644 17.7143 99.5087 17.6677 99.5601 17.635C99.6114 17.6023 99.6767 17.586 99.7561 17.586C99.8401 17.586 99.9287 17.6187 100.022 17.684C100.115 17.7493 100.227 17.8217 100.358 17.901C100.493 17.9803 100.657 18.0527 100.848 18.118C101.039 18.1833 101.277 18.216 101.562 18.216C101.805 18.216 102.017 18.1857 102.199 18.125C102.381 18.0597 102.533 17.9733 102.654 17.866C102.775 17.7587 102.864 17.635 102.92 17.495C102.981 17.355 103.011 17.2057 103.011 17.047C103.011 16.851 102.957 16.69 102.85 16.564C102.747 16.4333 102.61 16.3237 102.437 16.235C102.264 16.1417 102.066 16.0623 101.842 15.997C101.623 15.927 101.396 15.8547 101.163 15.78C100.934 15.7053 100.708 15.6213 100.484 15.528C100.265 15.43 100.069 15.3087 99.8961 15.164C99.7234 15.0193 99.5834 14.842 99.4761 14.632C99.3734 14.4173 99.3221 14.1583 99.3221 13.855C99.3221 13.5843 99.3781 13.3253 99.4901 13.078C99.6021 12.826 99.7654 12.6067 99.9801 12.42C100.195 12.2287 100.458 12.077 100.771 11.965C101.084 11.853 101.441 11.797 101.842 11.797C102.309 11.797 102.726 11.8717 103.095 12.021C103.468 12.1657 103.79 12.3663 104.061 12.623L103.781 13.078ZM107.024 11.909V19H105.778V11.909H107.024ZM107.29 9.683C107.29 9.80433 107.264 9.91867 107.213 10.026C107.166 10.1287 107.101 10.222 107.017 10.306C106.937 10.3853 106.842 10.4483 106.73 10.495C106.622 10.5417 106.508 10.565 106.387 10.565C106.265 10.565 106.151 10.5417 106.044 10.495C105.941 10.4483 105.85 10.3853 105.771 10.306C105.691 10.222 105.628 10.1287 105.582 10.026C105.535 9.91867 105.512 9.80433 105.512 9.683C105.512 9.56167 105.535 9.44733 105.582 9.34C105.628 9.228 105.691 9.13233 105.771 9.053C105.85 8.969 105.941 8.90367 106.044 8.857C106.151 8.81033 106.265 8.787 106.387 8.787C106.508 8.787 106.622 8.81033 106.73 8.857C106.842 8.90367 106.937 8.969 107.017 9.053C107.101 9.13233 107.166 9.228 107.213 9.34C107.264 9.44733 107.29 9.56167 107.29 9.683ZM110.324 8.689V14.758H110.646C110.739 14.758 110.816 14.7463 110.877 14.723C110.942 14.695 111.01 14.6413 111.08 14.562L113.32 12.161C113.385 12.0817 113.453 12.021 113.523 11.979C113.598 11.9323 113.696 11.909 113.817 11.909H114.944L112.333 14.688C112.207 14.8467 112.072 14.9703 111.927 15.059C112.011 15.115 112.086 15.1803 112.151 15.255C112.221 15.325 112.286 15.4067 112.347 15.5L115.119 19H114.006C113.899 19 113.805 18.9837 113.726 18.951C113.651 18.9137 113.586 18.8483 113.53 18.755L111.199 15.85C111.129 15.752 111.059 15.689 110.989 15.661C110.924 15.6283 110.821 15.612 110.681 15.612H110.324V19H109.071V8.689H110.324ZM117.468 8.689V19H116.222V8.689H117.468ZM120.161 16.214C120.161 16.5033 120.201 16.7693 120.28 17.012C120.364 17.25 120.483 17.4577 120.637 17.635C120.796 17.8077 120.987 17.943 121.211 18.041C121.44 18.1343 121.696 18.181 121.981 18.181C122.578 18.181 123.05 18.0083 123.395 17.663C123.74 17.313 123.955 16.83 124.039 16.214H120.161ZM119.153 12.896C119.312 12.7093 119.496 12.5483 119.706 12.413C119.921 12.273 120.149 12.1587 120.392 12.07C120.639 11.9767 120.894 11.909 121.155 11.867C121.416 11.8203 121.675 11.797 121.932 11.797C122.422 11.797 122.872 11.881 123.283 12.049C123.698 12.2123 124.055 12.455 124.354 12.777C124.657 13.099 124.893 13.4957 125.061 13.967C125.229 14.4383 125.313 14.9797 125.313 15.591C125.313 16.0857 125.236 16.5477 125.082 16.977C124.933 17.4017 124.716 17.7727 124.431 18.09C124.146 18.4027 123.799 18.65 123.388 18.832C122.982 19.0093 122.52 19.098 122.002 19.098C121.577 19.098 121.183 19.028 120.819 18.888C120.46 18.748 120.147 18.5427 119.881 18.272C119.62 18.0013 119.414 17.67 119.265 17.278C119.116 16.886 119.041 16.438 119.041 15.934C119.041 15.738 119.062 15.6073 119.104 15.542C119.146 15.4767 119.225 15.444 119.342 15.444H124.081C124.067 14.996 124.004 14.6063 123.892 14.275C123.785 13.939 123.633 13.6613 123.437 13.442C123.246 13.2227 123.012 13.0593 122.737 12.952C122.466 12.84 122.163 12.784 121.827 12.784C121.514 12.784 121.244 12.8213 121.015 12.896C120.791 12.966 120.597 13.043 120.434 13.127C120.271 13.211 120.133 13.2903 120.021 13.365C119.914 13.435 119.823 13.47 119.748 13.47C119.641 13.47 119.561 13.428 119.51 13.344L119.153 12.896ZM128.068 13.33C128.292 12.8447 128.568 12.4667 128.894 12.196C129.221 11.9207 129.62 11.783 130.091 11.783C130.241 11.783 130.383 11.7993 130.518 11.832C130.658 11.8647 130.782 11.916 130.889 11.986L130.798 12.917C130.77 13.0337 130.7 13.092 130.588 13.092C130.523 13.092 130.427 13.078 130.301 13.05C130.175 13.022 130.033 13.008 129.874 13.008C129.65 13.008 129.45 13.0407 129.272 13.106C129.1 13.1713 128.943 13.2693 128.803 13.4C128.668 13.526 128.544 13.6847 128.432 13.876C128.325 14.0627 128.227 14.2773 128.138 14.52V19H126.885V11.909H127.599C127.735 11.909 127.828 11.9347 127.879 11.986C127.931 12.0373 127.966 12.126 127.984 12.252L128.068 13.33Z" fill="#0065FD"/>
</svg>
