<svg width="34" height="36" viewBox="0 0 34 36" fill="none" xmlns="http://www.w3.org/2000/svg">
<path d="M16.6751 18.626V2.18835L0.23744 2.18835V18.626H16.6751Z" fill="#069547"/>
<path d="M16.673 35.4124V18.9747H0.235367V35.4124H16.673Z" fill="#0C75BA"/>
<path d="M33.6536 16.4377V0L17.216 0V16.4377H33.6536Z" fill="#314973"/>
<path d="M33.6536 33.2825V16.8448H17.216V33.2825H33.6536Z" fill="#FCB148"/>
<mask id="mask0_189_7551" style="mask-type:luminance" maskUnits="userSpaceOnUse" x="0" y="18" width="17" height="18">
<path d="M16.6731 35.4127V18.9751H0.235428V35.4127H16.6731Z" fill="white"/>
</mask>
<g mask="url(#mask0_189_7551)">
<path d="M8.37282 40.0003C7.95937 40.0003 7.59604 39.7017 7.52504 39.282C7.0761 36.5842 7.90299 34.093 9.91594 32.078C9.95561 32.0383 9.99946 32.0028 10.0475 31.9694C12.4969 30.3365 13.9022 27.5614 13.5451 25.0619C13.4783 24.5921 13.804 24.1557 14.2759 24.0889C14.7458 24.022 15.1822 24.3478 15.249 24.8197C15.7 27.9832 14.065 31.3242 11.0769 33.3518C9.49205 34.9659 8.8677 36.8661 9.22268 38.998C9.29994 39.4679 8.98464 39.9105 8.51481 39.9878C8.46679 39.9961 8.41876 40.0003 8.37282 40.0003Z" fill="white"/>
<path d="M-0.232345 40.0003C-0.645793 40.0003 -1.00913 39.7017 -1.08012 39.282C-1.52907 36.5842 -0.702172 34.093 1.31077 32.078C1.35045 32.0383 1.3943 32.0028 1.44233 31.9694C3.89169 30.3365 5.29699 27.5614 4.93993 25.0619C4.87311 24.5921 5.19885 24.1557 5.67077 24.0889C6.14059 24.022 6.57701 24.3478 6.64383 24.8197C7.09486 27.9832 5.45987 31.3242 2.47177 33.3518C0.886887 34.9659 0.262539 36.8661 0.617519 38.998C0.69478 39.4679 0.379474 39.9105 -0.0903529 39.9878C-0.13838 39.9961 -0.186406 40.0003 -0.232345 40.0003Z" fill="white"/>
<path d="M4.07124 40.0003C3.6578 40.0003 3.29446 39.7017 3.22347 39.282C2.77452 36.5842 3.60142 34.093 5.61436 32.078C5.65404 32.0383 5.69789 32.0028 5.74592 31.9694C8.19528 30.3365 9.60058 27.5614 9.24351 25.0619C9.17669 24.5921 9.50244 24.1557 9.97436 24.0889C10.4442 24.022 10.8806 24.3478 10.9474 24.8197C11.3985 27.9832 9.76346 31.3242 6.77536 33.3518C5.19048 34.9659 4.56613 36.8661 4.92111 38.998C4.99837 39.4679 4.68306 39.9105 4.21324 39.9878C4.16521 39.9961 4.11718 40.0003 4.07124 40.0003Z" fill="white"/>
</g>
<mask id="mask1_189_7551" style="mask-type:luminance" maskUnits="userSpaceOnUse" x="17" y="16" width="17" height="18">
<path d="M33.6536 33.2829V16.8452H17.216V33.2829H33.6536Z" fill="white"/>
</mask>
<g mask="url(#mask1_189_7551)">
<path d="M25.3137 31.9318C25.3137 32.9466 26.8505 32.9487 26.8505 31.9318C26.8505 28.2108 29.8783 25.183 33.5993 25.183C37.3203 25.183 40.3481 28.2108 40.3481 31.9318C40.3481 32.9466 41.885 32.9487 41.885 31.9318C41.885 27.363 38.1681 23.6461 33.5993 23.6461C29.0305 23.6461 25.3137 27.363 25.3137 31.9318Z" fill="white"/>
<path d="M36.7565 31.3993C36.8192 31.7752 37.1449 32.0404 37.5145 32.0404C39.3897 32.0404 37.6064 27.1876 33.593 27.1876C29.7948 27.1876 27.8883 31.6436 29.5421 31.9527C29.9597 32.032 30.3606 31.7564 30.44 31.3388C31.0957 27.8349 36.1698 27.8871 36.7565 31.3993Z" fill="white"/>
<path d="M32.8309 19.2841V21.2323C32.8309 22.2472 34.3677 22.2492 34.3677 21.2323V19.2841C34.3677 18.8602 34.0232 18.5157 33.5993 18.5157C33.1754 18.5157 32.8309 18.8602 32.8309 19.2841Z" fill="white"/>
<path d="M23.332 30.585C21.2857 30.2091 21.1813 30.1235 20.8409 30.3573C20.2834 30.7436 20.4629 31.6227 21.1395 31.7459L23.0543 32.0968C24.0524 32.2805 24.3322 30.7687 23.332 30.585Z" fill="white"/>
<path d="M26.5937 23.8215L25.2176 22.4455C24.4993 21.7272 23.4114 22.813 24.1297 23.5334C25.6018 25.0055 25.6373 25.135 26.0508 25.135C26.7294 25.135 27.0802 24.3081 26.5937 23.8236V23.8215Z" fill="white"/>
<path d="M24.7018 27.6011C24.5682 26.9663 23.9125 26.628 23.3257 26.8661C22.2128 27.3255 22.7097 29.0148 23.9083 28.7872C24.4596 28.6723 24.8062 28.1524 24.7018 27.6011Z" fill="white"/>
<path d="M30.488 21.9798C30.488 21.3534 29.9117 20.8648 29.2811 20.9901C28.6484 21.1216 28.3059 21.7814 28.5461 22.3661C28.9574 23.3809 30.488 23.0782 30.488 21.9798Z" fill="white"/>
</g>
<mask id="mask2_189_7551" style="mask-type:luminance" maskUnits="userSpaceOnUse" x="0" y="2" width="17" height="17">
<path d="M16.6751 18.626V2.18835L0.23744 2.18835V18.626H16.6751Z" fill="white"/>
</mask>
<g mask="url(#mask2_189_7551)">
<path d="M9.86572 6.16213H-6.31511C-6.67009 6.16213 -6.95825 5.86144 -6.95825 5.48976C-6.95825 5.11807 -6.67009 4.81738 -6.31511 4.81738H9.86572C10.2207 4.81738 10.5089 5.11807 10.5089 5.48976C10.5089 5.86144 10.2207 6.16213 9.86572 6.16213Z" fill="white"/>
<path d="M9.86573 6.20382H-6.3151C-6.69305 6.20382 -7 5.88434 -7 5.49177C-7 5.09921 -6.69305 4.77972 -6.3151 4.77972H9.86573C10.2437 4.77972 10.5506 5.09921 10.5506 5.49177C10.5506 5.88434 10.2437 6.20382 9.86573 6.20382ZM-6.3151 4.85907C-6.64711 4.85907 -6.91648 5.14097 -6.91648 5.48968C-6.91648 5.8384 -6.64711 6.1203 -6.3151 6.1203H9.86573C10.1977 6.1203 10.4671 5.8384 10.4671 5.48968C10.4671 5.14097 10.1977 4.85907 9.86573 4.85907H-6.3151Z" fill="white"/>
<path d="M9.86578 11.1113H-6.31505C-6.67003 11.1113 -6.95819 10.8106 -6.95819 10.4389C-6.95819 10.0672 -6.67003 9.76654 -6.31505 9.76654H9.86578C10.2208 9.76654 10.5089 10.0672 10.5089 10.4389C10.5089 10.8106 10.2208 11.1113 9.86578 11.1113Z" fill="white"/>
<path d="M9.8658 11.153H-6.31504C-6.69299 11.153 -6.99994 10.8336 -6.99994 10.441C-6.99994 10.0484 -6.69299 9.72894 -6.31504 9.72894H9.8658C10.2437 9.72894 10.5507 10.0484 10.5507 10.441C10.5507 10.8336 10.2437 11.153 9.8658 11.153ZM-6.31504 9.81038C-6.64705 9.81038 -6.91641 10.0923 -6.91641 10.441C-6.91641 10.7897 -6.64705 11.0716 -6.31504 11.0716H9.8658C10.1978 11.0716 10.4672 10.7897 10.4672 10.441C10.4672 10.0923 10.1978 9.81038 9.8658 9.81038H-6.31504Z" fill="white"/>
<path d="M9.86572 15.9972H-6.31511C-6.67009 15.9972 -6.95825 15.6965 -6.95825 15.3248C-6.95825 14.9531 -6.67009 14.6524 -6.31511 14.6524H9.86572C10.2207 14.6524 10.5089 14.9531 10.5089 15.3248C10.5089 15.6965 10.2207 15.9972 9.86572 15.9972Z" fill="white"/>
<path d="M9.86573 16.0389H-6.3151C-6.69305 16.0389 -7 15.7194 -7 15.3268C-7 14.9343 -6.69305 14.6148 -6.3151 14.6148H9.86573C10.2437 14.6148 10.5506 14.9343 10.5506 15.3268C10.5506 15.7194 10.2437 16.0389 9.86573 16.0389ZM-6.3151 14.6962C-6.64711 14.6962 -6.91648 14.9781 -6.91648 15.3268C-6.91648 15.6755 -6.64711 15.9574 -6.3151 15.9574H9.86573C10.1977 15.9574 10.4671 15.6755 10.4671 15.3268C10.4671 14.9781 10.1977 14.6962 9.86573 14.6962H-6.3151Z" fill="white"/>
</g>
<mask id="mask3_189_7551" style="mask-type:luminance" maskUnits="userSpaceOnUse" x="17" y="0" width="17" height="17">
<path d="M33.6536 16.4377V0L17.216 0V16.4377H33.6536Z" fill="white"/>
</mask>
<g mask="url(#mask3_189_7551)">
<path d="M35.1612 7.98955C34.2508 8.83106 33.1462 8.91249 32.2316 8.08351C31.8787 7.76612 30.7177 6.25014 28.9595 6.30026C27.9238 6.32949 26.9382 6.89328 25.9463 7.94569C25.2614 8.67445 26.3619 9.71224 27.0489 8.98349C29.114 6.78888 30.0599 8.15868 31.2168 9.20483C32.7265 10.5725 34.7144 10.4661 36.1865 9.1046C36.5665 8.75171 37.3329 7.70139 38.3122 7.78491C39.7363 7.90393 40.3606 9.81247 41.2522 8.89579C41.5425 8.59719 41.5362 8.11692 41.2376 7.82458C40.323 6.93087 39.4168 6.35455 38.4375 6.27102C36.6876 6.12277 35.5851 7.59698 35.1612 7.98746V7.98955Z" fill="white"/>
<path d="M44.5995 4.26435C43.9835 5.26247 42.2901 5.31885 41.4339 4.43767C39.373 2.33284 37.3976 1.95907 35.3763 4.19127C34.397 5.27709 33.0773 5.43579 32.0374 4.3082C30.0829 2.19294 28.024 2.15535 25.9464 4.36458C25.0631 5.30424 23.3592 5.32094 22.7077 4.26644C22.1836 3.41658 20.8952 4.21006 21.4214 5.05993C22.6075 6.99144 25.5016 7.0499 27.0489 5.40238C28.5064 3.85508 29.5588 3.85717 30.9223 5.33556C32.5198 7.0687 34.8605 7.01232 36.4976 5.20818C37.8591 3.70474 38.8384 3.95531 40.3481 5.50052C41.9497 7.10211 44.7624 6.88285 45.8858 5.05993C46.412 4.21006 45.1257 3.41449 44.5995 4.26644V4.26435Z" fill="white"/>
<path d="M35.1612 11.5707C34.255 12.408 33.1525 12.4978 32.2316 11.6646C32.0102 11.4642 31.4423 10.75 30.5736 10.2844C29.6256 9.77489 28.1973 9.59949 28.2266 10.6582C28.237 11.0758 28.5857 11.4036 29.0034 11.3932C30.0119 11.3639 30.843 12.4477 31.2189 12.786C32.7327 14.1578 34.7185 14.043 36.1886 12.6857C36.5665 12.337 37.3057 11.3222 38.2537 11.3598C38.6713 11.3765 39.0242 11.0507 39.0389 10.6331C39.0806 9.60366 37.7233 9.71851 36.792 10.2071C35.9568 10.6456 35.4473 11.3076 35.1633 11.5686L35.1612 11.5707Z" fill="white"/>
</g>
</svg>
