<svg width="138" height="32" viewBox="0 0 138 32" fill="none" xmlns="http://www.w3.org/2000/svg">
<path d="M19.9992 29.0296C19.9992 29.3135 19.9199 29.5599 19.7612 29.7688C19.6025 29.9776 19.3603 30.1384 19.0366 30.2511C18.7129 30.3639 18.3078 30.4182 17.8192 30.4182C17.3306 30.4182 16.8817 30.3555 16.5121 30.2281C16.1425 30.1008 15.8585 29.9212 15.658 29.6915C15.4555 29.4597 15.349 29.1924 15.3323 28.8897H16.3179C16.3471 29.0484 16.4285 29.1904 16.5601 29.3115C16.6916 29.4326 16.867 29.5265 17.0821 29.5913C17.2993 29.656 17.5457 29.6873 17.8255 29.6873C18.2285 29.6873 18.5313 29.6393 18.7359 29.5412C18.9405 29.443 19.0429 29.2968 19.0429 29.0964C19.0429 28.9627 18.974 28.8604 18.8382 28.7894C18.7004 28.7205 18.4436 28.6683 18.0656 28.6328L17.2366 28.5577C16.7877 28.518 16.4348 28.4365 16.1759 28.3154C15.917 28.1943 15.7332 28.044 15.6225 27.8686C15.5139 27.6911 15.4576 27.5032 15.4576 27.3048C15.4576 27.0166 15.5473 26.7744 15.7269 26.5802C15.9065 26.386 16.155 26.2378 16.4745 26.1354C16.7919 26.0331 17.1636 25.983 17.5874 25.983C18.0113 25.983 18.4164 26.0436 18.7589 26.1668C19.1013 26.29 19.377 26.457 19.5795 26.6742C19.7841 26.8913 19.8969 27.1398 19.922 27.4238H18.9364C18.9155 27.309 18.857 27.1983 18.761 27.0918C18.6649 26.9853 18.5167 26.8955 18.3204 26.8224C18.1241 26.7493 17.861 26.7138 17.5332 26.7138C17.1844 26.7138 16.913 26.7577 16.7167 26.8475C16.5204 26.9373 16.4223 27.0688 16.4223 27.2421C16.4223 27.3507 16.4828 27.4447 16.6018 27.5219C16.7209 27.5992 16.9422 27.6514 17.2659 27.6827L18.3329 27.7788C18.761 27.8185 19.0951 27.8936 19.3373 28.0064C19.5795 28.1191 19.7486 28.2611 19.8489 28.4365C19.9491 28.6099 19.9971 28.8082 19.9971 29.0254L19.9992 29.0296Z" fill="#222222"/>
<path d="M22.7451 25.983C23.242 25.983 23.6826 26.077 24.0627 26.2628C24.4427 26.4487 24.7434 26.7097 24.9627 27.0438C25.1819 27.3779 25.2905 27.7663 25.2905 28.2089C25.2905 28.6516 25.1861 29.0317 24.9814 29.3616C24.7768 29.6915 24.4887 29.9504 24.1232 30.1384C23.7578 30.3242 23.3381 30.4182 22.8662 30.4182C22.3943 30.4182 21.9892 30.3096 21.6425 30.0903C21.2959 29.8711 21.0245 29.5641 20.8365 29.1674C20.6465 28.7727 20.5526 28.3113 20.5526 27.783H24.5304V28.5222H21.037L21.5214 28.3196C21.5402 28.5973 21.6091 28.8395 21.7219 29.0442C21.8367 29.2488 21.9934 29.4033 22.1917 29.5098C22.3901 29.6163 22.6219 29.6706 22.8871 29.6706C23.1711 29.6706 23.4195 29.6121 23.6325 29.4952C23.8455 29.3783 24.0126 29.2154 24.1295 29.0066C24.2464 28.7978 24.3049 28.5514 24.3049 28.2674C24.3049 27.95 24.2339 27.6765 24.0919 27.4509C23.9499 27.2254 23.7495 27.05 23.4905 26.9289C23.2316 26.8078 22.9205 26.7452 22.5571 26.7452C22.2335 26.7452 21.9036 26.7953 21.5674 26.8976C21.2312 26.9999 20.9326 27.1419 20.6674 27.3278V26.6261C20.9305 26.4278 21.2479 26.2712 21.6154 26.1563C21.9829 26.0415 22.3588 25.9851 22.743 25.9851L22.7451 25.983Z" fill="#222222"/>
<path d="M27.3598 30.178L25.42 26.0874H26.487L28.3225 30.178H27.3598ZM26.8754 31.6481C26.6269 31.6481 26.4014 31.6168 26.1989 31.5541C25.9984 31.4915 25.8105 31.4059 25.6351 31.2973V30.5581C25.8251 30.6771 26.0047 30.7648 26.1759 30.8191C26.3471 30.8734 26.5413 30.9005 26.7543 30.9005C26.9673 30.9005 27.1406 30.8546 27.2993 30.7627C27.458 30.6708 27.5895 30.51 27.6939 30.2804L29.5983 26.0853H30.6278L28.4415 30.6082C28.3225 30.8567 28.1805 31.0571 28.0197 31.2096C27.8589 31.362 27.6814 31.4727 27.4893 31.5416C27.2972 31.6105 27.0926 31.646 26.8733 31.646L26.8754 31.6481Z" fill="#222222"/>
<path d="M35.2341 28.2006C35.1401 28.6433 34.9835 29.0317 34.7643 29.3658C34.545 29.6999 34.2757 29.9588 33.9541 30.1425C33.6325 30.3263 33.2755 30.4182 32.8829 30.4182C32.4694 30.4182 32.104 30.3242 31.7866 30.1384C31.4671 29.9525 31.2187 29.6915 31.0391 29.3574C30.8595 29.0233 30.7697 28.6391 30.7697 28.2006C30.7697 27.7621 30.8595 27.3716 31.0391 27.0396C31.2187 26.7097 31.4671 26.4507 31.7866 26.2628C32.104 26.077 32.4715 25.983 32.8829 25.983C33.2942 25.983 33.6325 26.0749 33.9541 26.2586C34.2757 26.4424 34.5471 26.7013 34.7685 27.0312C34.9898 27.3612 35.1443 27.7516 35.2341 28.1985V28.2006ZM31.7553 28.2006C31.7553 28.4846 31.8138 28.7351 31.9307 28.9502C32.0476 29.1674 32.2084 29.3365 32.4131 29.4576C32.6177 29.5787 32.8516 29.6414 33.1147 29.6414C33.3778 29.6414 33.6325 29.5808 33.8601 29.4576C34.0898 29.3365 34.2924 29.1674 34.4678 28.9502C34.6453 28.7331 34.7852 28.4846 34.8896 28.2006C34.7852 27.9166 34.6453 27.666 34.4678 27.4509C34.2903 27.2338 34.0877 27.0646 33.8601 26.9435C33.6304 26.8224 33.382 26.7598 33.1147 26.7598C32.8474 26.7598 32.6177 26.8203 32.4131 26.9435C32.2084 27.0646 32.0476 27.2338 31.9307 27.4509C31.8138 27.6681 31.7553 27.9166 31.7553 28.2006ZM34.9355 30.3138L34.7706 28.7456L34.9647 28.2006L34.7706 27.6639L34.9355 26.0895H35.9357L35.7123 28.2027L35.9357 30.3158H34.9355V30.3138Z" fill="#222222"/>
<path d="M36.8691 24.5652H37.8401V30.3137H36.8691V24.5652ZM39.519 25.983C39.9178 25.983 40.2561 26.0623 40.5338 26.221C40.8115 26.3797 41.0245 26.6073 41.1728 26.9038C41.3189 27.2004 41.392 27.5574 41.392 27.9751V30.3117H40.421V28.1317C40.421 27.689 40.3166 27.3549 40.112 27.1273C39.9053 26.9018 39.6025 26.7869 39.2057 26.7869C38.9322 26.7869 38.6921 26.8475 38.4853 26.9707C38.2786 27.0918 38.1199 27.263 38.0072 27.4823C37.8944 27.7015 37.8401 27.9583 37.8401 28.2507L37.4977 28.0648C37.5415 27.6263 37.6564 27.2547 37.8401 26.9456C38.0239 26.6366 38.2598 26.3985 38.5501 26.2336C38.8382 26.0665 39.1619 25.983 39.5211 25.983H39.519Z" fill="#222222"/>
<path d="M44.3258 25.983C44.8228 25.983 45.2634 26.077 45.6434 26.2628C46.0235 26.4487 46.3242 26.7097 46.5434 27.0438C46.7627 27.3779 46.8712 27.7663 46.8712 28.2089C46.8712 28.6516 46.7668 29.0317 46.5622 29.3616C46.3576 29.6915 46.0694 29.9504 45.704 30.1384C45.3386 30.3242 44.9188 30.4182 44.4469 30.4182C43.975 30.4182 43.5699 30.3096 43.2233 30.0903C42.8767 29.8711 42.6052 29.5641 42.4173 29.1674C42.2273 28.7727 42.1333 28.3113 42.1333 27.783H46.1112V28.5222H42.6177L43.1022 28.3196C43.121 28.5973 43.1899 28.8395 43.3026 29.0442C43.4175 29.2488 43.5741 29.4033 43.7725 29.5098C43.9708 29.6163 44.2026 29.6706 44.4678 29.6706C44.7518 29.6706 45.0003 29.6121 45.2133 29.4952C45.4263 29.3783 45.5933 29.2154 45.7102 29.0066C45.8272 28.7978 45.8857 28.5514 45.8857 28.2674C45.8857 27.95 45.8147 27.6765 45.6727 27.4509C45.5307 27.2254 45.3302 27.05 45.0713 26.9289C44.8124 26.8078 44.5012 26.7452 44.1379 26.7452C43.8142 26.7452 43.4843 26.7953 43.1481 26.8976C42.8119 26.9999 42.5133 27.1419 42.2481 27.3278V26.6261C42.5112 26.4278 42.8286 26.2712 43.1962 26.1563C43.5637 26.0415 43.9395 25.9851 44.3237 25.9851L44.3258 25.983Z" fill="#222222"/>
<path d="M47.103 26.8349V26.3944L48.0072 26.1626L48.4102 24.9828H48.9782V26.0874H50.941V26.8349H48.9782V28.6641C48.9782 29.017 49.0533 29.2655 49.2058 29.4075C49.3582 29.5495 49.6046 29.6205 49.9491 29.6205C50.1684 29.6205 50.3626 29.5975 50.5317 29.5495C50.7009 29.5015 50.8616 29.4347 51.0162 29.3449V30.1446C50.8867 30.2093 50.7029 30.272 50.467 30.3305C50.231 30.391 49.9888 30.4202 49.7382 30.4202C49.3248 30.4202 48.9907 30.3513 48.738 30.2156C48.4833 30.0778 48.2995 29.8899 48.1826 29.6476C48.0657 29.4054 48.0072 29.1298 48.0072 28.8145V26.837H47.103V26.8349Z" fill="#222222"/>
<path d="M52.2085 25.5278C52.0247 25.5278 51.8723 25.4777 51.7533 25.3754C51.6342 25.273 51.5737 25.1394 51.5737 24.9765C51.5737 24.8137 51.6342 24.68 51.7533 24.5777C51.8723 24.4754 52.0247 24.4253 52.2085 24.4253C52.3922 24.4253 52.5509 24.4775 52.6678 24.5777C52.7848 24.6779 52.8432 24.8137 52.8432 24.9765C52.8432 25.1394 52.7848 25.273 52.6678 25.3754C52.5509 25.4777 52.3985 25.5278 52.2085 25.5278ZM51.724 26.0582L52.2085 26.148L52.6929 26.0582V30.3138H51.7219V26.0582H51.724Z" fill="#222222"/>
<path d="M53.5219 26.0874H54.4928L54.7476 27.6096V30.3117H53.7766V27.4677L53.5219 26.0874ZM56.4264 25.983C56.8253 25.983 57.1635 26.0624 57.4413 26.221C57.719 26.3797 57.932 26.6073 58.0802 26.9039C58.2285 27.2004 58.2995 27.5574 58.2995 27.9751V30.3117H57.3285V28.1317C57.3285 27.689 57.2262 27.3549 57.0194 27.1273C56.8127 26.8997 56.5099 26.7869 56.1132 26.7869C55.8397 26.7869 55.5995 26.8475 55.3928 26.9707C55.1861 27.0939 55.0274 27.263 54.9146 27.4823C54.8019 27.7015 54.7476 27.9584 54.7476 28.2507L54.4051 28.0649C54.449 27.6264 54.5638 27.2547 54.7476 26.9456C54.9313 26.6366 55.1673 26.3985 55.4575 26.2336C55.7457 26.0665 56.0694 25.983 56.4285 25.983H56.4264Z" fill="#222222"/>
<path d="M59.7549 25.5278C59.5711 25.5278 59.4187 25.4777 59.2997 25.3754C59.1807 25.273 59.1201 25.1394 59.1201 24.9765C59.1201 24.8137 59.1807 24.68 59.2997 24.5777C59.4187 24.4754 59.5711 24.4253 59.7549 24.4253C59.9387 24.4253 60.0974 24.4775 60.2143 24.5777C60.3312 24.6779 60.3897 24.8137 60.3897 24.9765C60.3897 25.1394 60.3312 25.273 60.2143 25.3754C60.0974 25.4777 59.9449 25.5278 59.7549 25.5278ZM59.2705 26.0582L59.7549 26.148L60.2393 26.0582V30.3138H59.2684V26.0582H59.2705Z" fill="#222222"/>
<path d="M61.0308 30.3138V29.6121L64.33 26.5969L64.9355 26.8349H61.0621V26.0874H65.3093V26.789L62.0184 29.8043L61.4964 29.5662H65.326V30.3138H61.0329H61.0308Z" fill="#222222"/>
<path d="M66.606 25.5278C66.4223 25.5278 66.2699 25.4777 66.1508 25.3754C66.0318 25.273 65.9713 25.1394 65.9713 24.9765C65.9713 24.8137 66.0318 24.68 66.1508 24.5777C66.2699 24.4754 66.4223 24.4253 66.606 24.4253C66.7898 24.4253 66.9485 24.4775 67.0654 24.5777C67.1824 24.6779 67.2408 24.8137 67.2408 24.9765C67.2408 25.1394 67.1824 25.273 67.0654 25.3754C66.9485 25.4777 66.7961 25.5278 66.606 25.5278ZM66.1216 26.0582L66.606 26.148L67.0905 26.0582V30.3138H66.1195V26.0582H66.1216Z" fill="#222222"/>
<path d="M70.0994 24.5652H71.0704V27.5428L70.9201 27.8185V28.6015L71.0704 28.9147V30.3096H70.0994V24.561V24.5652ZM70.682 28.2006C70.776 27.7516 70.9326 27.3633 71.1518 27.0333C71.3711 26.7034 71.6405 26.4445 71.962 26.2607C72.2836 26.077 72.6407 25.9851 73.0332 25.9851C73.4467 25.9851 73.8121 26.0791 74.1295 26.2649C74.4469 26.4508 74.6975 26.7097 74.875 27.0417C75.0545 27.3737 75.1443 27.76 75.1443 28.2027C75.1443 28.6454 75.0545 29.0254 74.875 29.3595C74.6954 29.6936 74.4469 29.9525 74.1295 30.1405C73.81 30.3263 73.4446 30.4203 73.0332 30.4203C72.6219 30.4203 72.2836 30.3284 71.962 30.1446C71.6405 29.9609 71.3711 29.702 71.1518 29.3679C70.9326 29.0338 70.776 28.6454 70.682 28.2027V28.2006ZM74.1608 28.2006C74.1608 27.9166 74.1023 27.666 73.9854 27.451C73.8685 27.2338 73.7077 27.0647 73.5031 26.9435C73.2984 26.8224 73.0646 26.7598 72.8015 26.7598C72.5383 26.7598 72.2899 26.8203 72.0581 26.9435C71.8263 27.0667 71.6237 27.2338 71.4504 27.451C71.2771 27.6681 71.1351 27.9166 71.0245 28.2006C71.133 28.4846 71.275 28.7352 71.4504 28.9502C71.6237 29.1674 71.8284 29.3365 72.0581 29.4576C72.2878 29.5788 72.5363 29.6414 72.8015 29.6414C73.0666 29.6414 73.2984 29.5808 73.5031 29.4576C73.7077 29.3365 73.8685 29.1674 73.9854 28.9502C74.1023 28.7331 74.1608 28.4846 74.1608 28.2006Z" fill="#222222"/>
<path d="M76.4369 25.5278C76.2532 25.5278 76.1007 25.4777 75.9817 25.3754C75.8627 25.273 75.8021 25.1394 75.8021 24.9765C75.8021 24.8137 75.8627 24.68 75.9817 24.5777C76.1007 24.4754 76.2532 24.4253 76.4369 24.4253C76.6207 24.4253 76.7794 24.4775 76.8963 24.5777C77.0132 24.6779 77.0717 24.8137 77.0717 24.9765C77.0717 25.1394 77.0132 25.273 76.8963 25.3754C76.7794 25.4777 76.6269 25.5278 76.4369 25.5278ZM75.9525 26.0582L76.4369 26.148L76.9214 26.0582V30.3138H75.9504V26.0582H75.9525Z" fill="#222222"/>
<path d="M77.7148 30.3138V29.6121L81.0141 26.5969L81.6196 26.8349H77.7462V26.0874H81.9934V26.789L78.7025 29.8043L78.1805 29.5662H82.0101V30.3138H77.7169H77.7148Z" fill="#222222"/>
<path d="M86.0527 30.178L84.1128 26.0874H85.1798L87.0153 30.178H86.0527ZM85.5682 31.6481C85.3197 31.6481 85.0942 31.6168 84.8917 31.5541C84.6912 31.4915 84.5033 31.4059 84.3279 31.2973V30.5581C84.5179 30.6771 84.6975 30.7648 84.8687 30.8191C85.0399 30.8734 85.2341 30.9005 85.4471 30.9005C85.6601 30.9005 85.8334 30.8546 85.9921 30.7627C86.1508 30.6708 86.2824 30.51 86.3868 30.2804L88.2911 26.0853H89.3206L87.1343 30.6082C87.0153 30.8567 86.8733 31.0571 86.7125 31.2096C86.5517 31.362 86.3742 31.4727 86.1821 31.5416C85.99 31.6105 85.7854 31.646 85.5661 31.646L85.5682 31.6481Z" fill="#222222"/>
<path d="M93.927 28.2006C93.833 28.6433 93.6764 29.0317 93.4572 29.3658C93.2379 29.6999 92.9685 29.9588 92.647 30.1425C92.3254 30.3263 91.9683 30.4182 91.5758 30.4182C91.1623 30.4182 90.7969 30.3242 90.4795 30.1384C90.16 29.9525 89.9115 29.6915 89.732 29.3574C89.5524 29.0233 89.4626 28.6391 89.4626 28.2006C89.4626 27.7621 89.5524 27.3716 89.732 27.0396C89.9115 26.7097 90.16 26.4507 90.4795 26.2628C90.7969 26.077 91.1644 25.983 91.5758 25.983C91.9871 25.983 92.3254 26.0749 92.647 26.2586C92.9685 26.4424 93.24 26.7013 93.4613 27.0312C93.6827 27.3612 93.8372 27.7516 93.927 28.1985V28.2006ZM90.4482 28.2006C90.4482 28.4846 90.5066 28.7351 90.6236 28.9502C90.7405 29.1674 90.9013 29.3365 91.1059 29.4576C91.3106 29.5787 91.5444 29.6414 91.8076 29.6414C92.0707 29.6414 92.3254 29.5808 92.553 29.4576C92.7827 29.3365 92.9852 29.1674 93.1606 28.9502C93.3381 28.7331 93.478 28.4846 93.5825 28.2006C93.478 27.9166 93.3381 27.666 93.1606 27.4509C92.9832 27.2338 92.7806 27.0646 92.553 26.9435C92.3233 26.8224 92.0748 26.7598 91.8076 26.7598C91.5403 26.7598 91.3106 26.8203 91.1059 26.9435C90.9013 27.0646 90.7405 27.2338 90.6236 27.4509C90.5066 27.6681 90.4482 27.9166 90.4482 28.2006ZM93.6284 30.3138L93.4634 28.7456L93.6576 28.2006L93.4634 27.6639L93.6284 26.0895H94.6286L94.4052 28.2027L94.6286 30.3158H93.6284V30.3138Z" fill="#222222"/>
<path d="M95.3594 26.0874H96.3304L96.5852 27.6243V30.3117H95.6142V27.4384L95.3594 26.0874ZM98.7255 26.0582V26.9101C98.6148 26.8809 98.4958 26.8579 98.3663 26.8433C98.2369 26.8287 98.1158 26.8203 98.0009 26.8203C97.7274 26.8203 97.4831 26.8809 97.2701 26.9999C97.0571 27.1189 96.8879 27.2964 96.7668 27.5345C96.6457 27.7704 96.5831 28.0607 96.5831 28.4052L96.3597 28.1296C96.3784 27.831 96.4306 27.5512 96.5121 27.2902C96.5935 27.0292 96.7084 26.8015 96.8545 26.6074C97.0007 26.4132 97.1824 26.2607 97.3954 26.1521C97.6083 26.0436 97.8589 25.9872 98.1408 25.9872C98.241 25.9872 98.3434 25.9934 98.4478 26.006C98.5522 26.0185 98.6441 26.0373 98.7234 26.0624L98.7255 26.0582Z" fill="#222222"/>
<path d="M103.422 28.2006C103.328 28.6433 103.171 29.0317 102.952 29.3658C102.733 29.6999 102.463 29.9588 102.142 30.1425C101.82 30.3263 101.463 30.4182 101.07 30.4182C100.657 30.4182 100.292 30.3242 99.9742 30.1384C99.6547 29.9525 99.4062 29.6915 99.2266 29.3574C99.0471 29.0233 98.9573 28.6391 98.9573 28.2006C98.9573 27.7621 99.0471 27.3716 99.2266 27.0396C99.4062 26.7097 99.6547 26.4507 99.9742 26.2628C100.292 26.077 100.659 25.983 101.07 25.983C101.482 25.983 101.82 26.0749 102.142 26.2586C102.463 26.4424 102.735 26.7013 102.956 27.0312C103.177 27.3612 103.332 27.7516 103.422 28.1985V28.2006ZM99.9429 28.2006C99.9429 28.4846 100.001 28.7351 100.118 28.9502C100.235 29.1674 100.396 29.3365 100.601 29.4576C100.805 29.5787 101.039 29.6414 101.302 29.6414C101.565 29.6414 101.82 29.5808 102.048 29.4576C102.277 29.3365 102.48 29.1674 102.655 28.9502C102.833 28.7331 102.973 28.4846 103.077 28.2006C102.973 27.9166 102.833 27.666 102.655 27.4509C102.478 27.2338 102.275 27.0646 102.048 26.9435C101.818 26.8224 101.57 26.7598 101.302 26.7598C101.035 26.7598 100.805 26.8203 100.601 26.9435C100.396 27.0646 100.235 27.2338 100.118 27.4509C100.001 27.6681 99.9429 27.9166 99.9429 28.2006ZM103.123 30.3138L102.958 28.7456L103.152 28.2006L102.958 27.6639L103.123 26.0895H104.123L103.9 28.2027L104.123 30.3158H103.123V30.3138Z" fill="#222222"/>
<path d="M109.296 28.2006C109.202 28.6432 109.045 29.0316 108.826 29.3657C108.606 29.6998 108.337 29.9588 108.015 30.1425C107.694 30.3263 107.337 30.4182 106.944 30.4182C106.531 30.4182 106.165 30.3242 105.848 30.1383C105.529 29.9525 105.28 29.6915 105.1 29.3574C104.921 29.0233 104.831 28.6391 104.831 28.2006C104.831 27.7621 104.921 27.3716 105.1 27.0396C105.28 26.7097 105.529 26.4507 105.848 26.2628C106.165 26.077 106.533 25.983 106.944 25.983C107.356 25.983 107.694 26.0749 108.015 26.2586C108.337 26.4424 108.609 26.7013 108.83 27.0312C109.051 27.3611 109.206 27.7516 109.296 28.1985V28.2006ZM105.817 28.2006C105.817 28.4846 105.875 28.7351 105.992 28.9502C106.109 29.1674 106.27 29.3365 106.474 29.4576C106.679 29.5787 106.913 29.6414 107.176 29.6414C107.439 29.6414 107.694 29.5808 107.922 29.4576C108.151 29.3365 108.354 29.1674 108.529 28.9502C108.707 28.733 108.847 28.4846 108.951 28.2006C108.847 27.9166 108.707 27.666 108.529 27.4509C108.352 27.2338 108.149 27.0646 107.922 26.9435C107.692 26.8224 107.443 26.7598 107.176 26.7598C106.909 26.7598 106.679 26.8203 106.474 26.9435C106.27 27.0646 106.109 27.2338 105.992 27.4509C105.875 27.6681 105.817 27.9166 105.817 28.2006ZM109.012 30.3137L108.847 28.708L109.064 28.2068L108.855 27.6326L109.168 24.5652H110.168L109.788 28.14L110.005 30.3117H109.014L109.012 30.3137Z" fill="#222222"/>
<path d="M115.178 28.2006C115.084 28.6433 114.927 29.0317 114.708 29.3658C114.489 29.6999 114.219 29.9588 113.898 30.1425C113.576 30.3263 113.219 30.4182 112.827 30.4182C112.413 30.4182 112.048 30.3242 111.73 30.1384C111.411 29.9525 111.162 29.6915 110.983 29.3574C110.803 29.0233 110.713 28.6391 110.713 28.2006C110.713 27.7621 110.803 27.3716 110.983 27.0396C111.162 26.7097 111.411 26.4507 111.73 26.2628C112.048 26.077 112.415 25.983 112.827 25.983C113.238 25.983 113.576 26.0749 113.898 26.2586C114.219 26.4424 114.491 26.7013 114.712 27.0312C114.933 27.3612 115.088 27.7516 115.178 28.1985V28.2006ZM111.699 28.2006C111.699 28.4846 111.757 28.7351 111.874 28.9502C111.991 29.1674 112.152 29.3365 112.357 29.4576C112.561 29.5787 112.795 29.6414 113.058 29.6414C113.321 29.6414 113.576 29.5808 113.804 29.4576C114.033 29.3365 114.236 29.1674 114.411 28.9502C114.589 28.7331 114.729 28.4846 114.833 28.2006C114.729 27.9166 114.589 27.666 114.411 27.4509C114.234 27.2338 114.031 27.0646 113.804 26.9435C113.574 26.8224 113.326 26.7598 113.058 26.7598C112.791 26.7598 112.561 26.8203 112.357 26.9435C112.152 27.0646 111.991 27.2338 111.874 27.4509C111.757 27.6681 111.699 27.9166 111.699 28.2006ZM114.879 30.3138L114.714 28.7456L114.908 28.2006L114.714 27.6639L114.879 26.0895H115.879L115.656 28.2027L115.879 30.3158H114.879V30.3138Z" fill="#222222"/>
<path d="M121.054 28.2006C120.96 28.6433 120.803 29.0317 120.584 29.3658C120.365 29.6999 120.095 29.9588 119.774 30.1425C119.452 30.3263 119.095 30.4182 118.703 30.4182C118.289 30.4182 117.924 30.3242 117.606 30.1384C117.287 29.9525 117.038 29.6915 116.859 29.3574C116.679 29.0233 116.589 28.6391 116.589 28.2006C116.589 27.7621 116.679 27.3716 116.859 27.0396C117.038 26.7097 117.287 26.4507 117.606 26.2628C117.924 26.077 118.291 25.983 118.703 25.983C119.114 25.983 119.452 26.0749 119.774 26.2586C120.095 26.4424 120.367 26.7013 120.588 27.0312C120.809 27.3612 120.964 27.7516 121.054 28.1985V28.2006ZM117.575 28.2006C117.575 28.4846 117.633 28.7351 117.75 28.9502C117.867 29.1674 118.028 29.3365 118.233 29.4576C118.437 29.5787 118.671 29.6414 118.934 29.6414C119.197 29.6414 119.452 29.5808 119.68 29.4576C119.909 29.3365 120.112 29.1674 120.287 28.9502C120.465 28.7331 120.605 28.4846 120.709 28.2006C120.605 27.9166 120.465 27.666 120.287 27.4509C120.11 27.2338 119.907 27.0646 119.68 26.9435C119.45 26.8224 119.202 26.7598 118.934 26.7598C118.667 26.7598 118.437 26.8203 118.233 26.9435C118.028 27.0646 117.867 27.2338 117.75 27.4509C117.633 27.6681 117.575 27.9166 117.575 28.2006ZM121.651 26.0874V31.5437H120.68V28.8187L120.724 28.5577V27.7057L120.68 27.5574V26.0874H121.651Z" fill="#222222"/>
<path d="M0.107788 9.27174V7.28176L3.00818 6.22517L4.97519 2.14499H7.58117V5.88063H13.6263V9.27174H7.58117V13.8927C7.58117 14.941 7.79415 15.6739 8.22013 16.0915C8.64611 16.5092 9.40827 16.718 10.5066 16.718C11.2103 16.718 11.8305 16.6574 12.363 16.5342C12.8954 16.411 13.3987 16.244 13.8748 16.031V19.4952C13.384 19.6915 12.7409 19.8731 11.9453 20.036C11.1498 20.1989 10.327 20.2824 9.47509 20.2824C7.98417 20.2824 6.75845 20.0443 5.8 19.5703C4.84156 19.0963 4.13786 18.4281 3.68682 17.5678C3.23579 16.7075 3.01027 15.6969 3.01027 14.5317V9.27174H0.109878H0.107788Z" fill="#222222"/>
<path d="M15.3198 5.88065H19.9408L20.776 10.9193V19.8898H16.2051V10.5497L15.3198 5.88065ZM27.4601 5.68437V9.6163C27.0174 9.51815 26.5789 9.44507 26.1446 9.39495C25.7102 9.34484 25.3135 9.32187 24.9523 9.32187C24.165 9.32187 23.4572 9.48266 22.8265 9.80005C22.1959 10.1195 21.6969 10.6228 21.3273 11.3118C20.9577 12.0009 20.7739 12.8926 20.7739 13.9909L19.8656 12.8612C19.9804 11.861 20.1684 10.9193 20.4315 10.036C20.6925 9.15065 21.0537 8.36969 21.5131 7.68896C21.9725 7.01032 22.5405 6.47159 23.2212 6.07902C23.8998 5.68646 24.7246 5.49017 25.6914 5.49017C25.9692 5.49017 26.2657 5.50688 26.5768 5.54029C26.8879 5.5737 27.1824 5.62172 27.4622 5.68854L27.4601 5.68437Z" fill="#222222"/>
<path d="M42.7702 12.8842C42.5238 14.3752 42.0581 15.674 41.369 16.7786C40.68 17.8832 39.8113 18.7456 38.7631 19.3595C37.7148 19.9734 36.535 20.2804 35.2237 20.2804C33.8476 20.2804 32.6386 19.9692 31.5987 19.347C30.5589 18.7247 29.7424 17.8602 29.1535 16.7535C28.5647 15.6468 28.2682 14.3564 28.2682 12.8822C28.2682 11.4079 28.5626 10.1175 29.1535 9.01078C29.7424 7.90408 30.5589 7.04168 31.5987 6.41734C32.6386 5.79508 33.8476 5.48395 35.2237 5.48395C36.5998 5.48395 37.7148 5.7909 38.7631 6.40481C39.8113 7.01871 40.6841 7.87484 41.3795 8.97319C42.0748 10.0715 42.5384 11.3745 42.7681 12.8801L42.7702 12.8842ZM32.8913 12.8842C32.8913 13.6381 33.0458 14.3062 33.359 14.8867C33.6701 15.4693 34.1003 15.9266 34.6495 16.2628C35.1987 16.599 35.8334 16.7661 36.5538 16.7661C37.2742 16.7661 37.9591 16.599 38.6065 16.2628C39.2538 15.9266 39.8238 15.4693 40.3145 14.8867C40.8052 14.3062 41.1748 13.6381 41.4212 12.8842C41.1748 12.1304 40.8073 11.4622 40.3145 10.8817C39.8238 10.3012 39.2538 9.84185 38.6065 9.50566C37.9591 9.16948 37.2742 9.00243 36.5538 9.00243C35.8334 9.00243 35.1987 9.17157 34.6495 9.50566C34.1003 9.84185 33.6701 10.3012 33.359 10.8817C33.0479 11.4643 32.8913 12.1304 32.8913 12.8842ZM41.6405 19.8878L41.0266 14.8011L41.6906 12.8842L41.0266 10.9924L41.6405 5.88069H46.3847L45.5244 12.8842L46.3847 19.8878H41.6405Z" fill="#222222"/>
<path d="M57.6396 17.7516L56.0422 17.7265L61.1038 5.88065H65.9691L59.3582 19.8898H54.1734L47.5624 5.88065H52.601L57.6396 17.7516Z" fill="#222222"/>
<path d="M74.7434 20.2824C73.0729 20.2824 71.5779 19.9713 70.2582 19.3491C68.9385 18.7268 67.9028 17.8581 67.149 16.7431C66.3951 15.6301 66.0193 14.3271 66.0193 12.8362C66.0193 11.3453 66.3805 10.1008 67.1009 9.00243C67.8213 7.90408 68.8174 7.04378 70.0869 6.42152C71.3565 5.79926 72.7931 5.48813 74.401 5.48813C76.0088 5.48813 77.4476 5.84937 78.6273 6.56977C79.8071 7.29018 80.7155 8.30709 81.3544 9.61634C81.9934 10.9277 82.3129 12.4666 82.3129 14.2373H69.6798V11.362H79.805L78.1575 12.3935C78.1074 11.623 77.9236 10.9715 77.6042 10.4391C77.2847 9.90659 76.8629 9.49732 76.3388 9.21124C75.8146 8.92517 75.1924 8.78109 74.472 8.78109C73.6848 8.78109 73.0061 8.9377 72.4319 9.24883C71.8577 9.55996 71.4129 9.99429 71.0934 10.5518C70.7739 11.1093 70.6131 11.7567 70.6131 12.4938C70.6131 13.4272 70.822 14.2227 71.2396 14.8784C71.6572 15.5341 72.2628 16.0331 73.0583 16.3777C73.8518 16.7222 74.8228 16.8934 75.9713 16.8934C77.0195 16.8934 78.0677 16.7494 79.116 16.4633C80.1642 16.1772 81.1059 15.7721 81.9412 15.2459V18.2194C80.9911 18.8751 79.9053 19.3825 78.6858 19.7437C77.4643 20.105 76.1508 20.2845 74.7414 20.2845L74.7434 20.2824Z" fill="#222222"/>
<path d="M84.5994 0.96521H89.1452V19.8898H84.5994V0.96521Z" fill="#222222"/>
<path d="M92.0936 0.96521H96.6395V19.8898H92.0936V0.96521Z" fill="#222222"/>
<path d="M113.451 12.8842C113.205 14.3752 112.739 15.674 112.05 16.7786C111.361 17.8853 110.492 18.7456 109.444 19.3595C108.396 19.9734 107.216 20.2804 105.904 20.2804C104.528 20.2804 103.319 19.9692 102.279 19.347C101.24 18.7247 100.423 17.8602 99.8343 16.7535C99.2454 15.6468 98.9489 14.3564 98.9489 12.8822C98.9489 11.4079 99.2433 10.1175 99.8343 9.01078C100.423 7.90408 101.24 7.04168 102.279 6.41734C103.319 5.79508 104.528 5.48395 105.904 5.48395C107.281 5.48395 108.396 5.7909 109.444 6.40481C110.492 7.01871 111.365 7.87484 112.06 8.97319C112.756 10.0715 113.219 11.3745 113.449 12.8801L113.451 12.8842ZM103.572 12.8842C103.572 13.6381 103.727 14.3062 104.04 14.8867C104.351 15.4693 104.781 15.9266 105.33 16.2628C105.879 16.599 106.514 16.7661 107.235 16.7661C107.955 16.7661 108.64 16.599 109.287 16.2628C109.935 15.9266 110.505 15.4693 110.995 14.8867C111.486 14.3062 111.856 13.6381 112.102 12.8842C111.856 12.1304 111.488 11.4622 110.995 10.8817C110.505 10.3012 109.935 9.84185 109.287 9.50566C108.64 9.16948 107.955 9.00243 107.235 9.00243C106.514 9.00243 105.879 9.17157 105.33 9.50566C104.781 9.84185 104.351 10.3012 104.04 10.8817C103.729 11.4643 103.572 12.1304 103.572 12.8842ZM112.321 19.8878L111.707 14.8011L112.371 12.8842L111.707 10.9924L112.321 5.88069H117.065L116.205 12.8842L117.065 19.8878H112.321Z" fill="#222222"/>
<path d="M119.644 0.96521H124.19V10.1321L123.576 11.3369V14.6299L124.19 15.8096V19.8898H119.644V0.96521ZM122.668 12.8842C122.914 11.3766 123.38 10.0736 124.069 8.97732C124.758 7.87897 125.625 7.02284 126.675 6.40894C127.723 5.79503 128.903 5.48807 130.214 5.48807C131.59 5.48807 132.799 5.7992 133.839 6.42146C134.879 7.04372 135.696 7.9082 136.284 9.01491C136.873 10.1216 137.17 11.4121 137.17 12.8863C137.17 14.3605 136.875 15.6509 136.284 16.7577C135.696 17.8644 134.879 18.7288 133.839 19.3511C132.799 19.9734 131.59 20.2845 130.214 20.2845C128.838 20.2845 127.723 19.9775 126.675 19.3636C125.627 18.7497 124.758 17.8894 124.069 16.7827C123.38 15.676 122.914 14.3793 122.668 12.8884V12.8842ZM132.547 12.8842C132.547 12.1304 132.39 11.4622 132.079 10.8817C131.768 10.3012 131.338 9.8418 130.789 9.50562C130.239 9.16943 129.605 9.00238 128.884 9.00238C128.164 9.00238 127.479 9.17152 126.832 9.50562C126.184 9.8418 125.618 10.3012 125.136 10.8817C124.652 11.4643 124.28 12.1304 124.017 12.8842C124.278 13.638 124.652 14.3062 125.136 14.8867C125.618 15.4693 126.184 15.9266 126.832 16.2628C127.479 16.599 128.162 16.766 128.884 16.766C129.607 16.766 130.239 16.599 130.789 16.2628C131.338 15.9266 131.768 15.4693 132.079 14.8867C132.39 14.3062 132.547 13.638 132.547 12.8842Z" fill="#222222"/>
</svg>
