<svg width="184" height="40" viewBox="0 0 184 40" fill="none" xmlns="http://www.w3.org/2000/svg">
<g clip-path="url(#clip0_189_7516)">
<path d="M65.9992 30.0296C65.9992 30.3135 65.9199 30.5599 65.7612 30.7688C65.6025 30.9776 65.3603 31.1384 65.0366 31.2511C64.7129 31.3639 64.3078 31.4182 63.8192 31.4182C63.3306 31.4182 62.8817 31.3555 62.5121 31.2281C62.1425 31.1008 61.8585 30.9212 61.658 30.6915C61.4555 30.4597 61.349 30.1924 61.3323 29.8897H62.3179C62.3471 30.0484 62.4285 30.1904 62.5601 30.3115C62.6916 30.4326 62.867 30.5265 63.0821 30.5913C63.2993 30.656 63.5457 30.6873 63.8255 30.6873C64.2285 30.6873 64.5313 30.6393 64.7359 30.5412C64.9405 30.443 65.0429 30.2968 65.0429 30.0964C65.0429 29.9627 64.974 29.8604 64.8382 29.7894C64.7004 29.7205 64.4436 29.6683 64.0656 29.6328L63.2366 29.5577C62.7877 29.518 62.4348 29.4365 62.1759 29.3154C61.917 29.1943 61.7332 29.044 61.6225 28.8686C61.5139 28.6911 61.4576 28.5032 61.4576 28.3048C61.4576 28.0166 61.5473 27.7744 61.7269 27.5802C61.9065 27.386 62.155 27.2378 62.4745 27.1354C62.7919 27.0331 63.1636 26.983 63.5874 26.983C64.0113 26.983 64.4164 27.0436 64.7589 27.1668C65.1013 27.29 65.377 27.457 65.5795 27.6742C65.7841 27.8913 65.8969 28.1398 65.922 28.4238H64.9364C64.9155 28.309 64.857 28.1983 64.761 28.0918C64.6649 27.9853 64.5167 27.8955 64.3204 27.8224C64.1241 27.7493 63.861 27.7138 63.5332 27.7138C63.1844 27.7138 62.913 27.7577 62.7167 27.8475C62.5204 27.9373 62.4223 28.0688 62.4223 28.2421C62.4223 28.3507 62.4828 28.4447 62.6018 28.5219C62.7209 28.5992 62.9422 28.6514 63.2659 28.6827L64.3329 28.7788C64.761 28.8185 65.0951 28.8936 65.3373 29.0064C65.5795 29.1191 65.7486 29.2611 65.8489 29.4365C65.9491 29.6099 65.9971 29.8082 65.9971 30.0254L65.9992 30.0296Z" fill="#222222"/>
<path d="M68.7451 26.983C69.242 26.983 69.6826 27.077 70.0627 27.2628C70.4427 27.4487 70.7434 27.7097 70.9627 28.0438C71.1819 28.3779 71.2905 28.7663 71.2905 29.2089C71.2905 29.6516 71.1861 30.0317 70.9814 30.3616C70.7768 30.6915 70.4887 30.9504 70.1232 31.1384C69.7578 31.3242 69.3381 31.4182 68.8662 31.4182C68.3943 31.4182 67.9892 31.3096 67.6425 31.0903C67.2959 30.8711 67.0245 30.5641 66.8365 30.1674C66.6465 29.7727 66.5526 29.3113 66.5526 28.783H70.5304V29.5222H67.037L67.5214 29.3196C67.5402 29.5973 67.6091 29.8395 67.7219 30.0442C67.8367 30.2488 67.9934 30.4033 68.1917 30.5098C68.3901 30.6163 68.6219 30.6706 68.8871 30.6706C69.1711 30.6706 69.4195 30.6121 69.6325 30.4952C69.8455 30.3783 70.0126 30.2154 70.1295 30.0066C70.2464 29.7978 70.3049 29.5514 70.3049 29.2674C70.3049 28.95 70.2339 28.6765 70.0919 28.4509C69.9499 28.2254 69.7495 28.05 69.4905 27.9289C69.2316 27.8078 68.9205 27.7452 68.5571 27.7452C68.2335 27.7452 67.9036 27.7953 67.5674 27.8976C67.2312 27.9999 66.9326 28.1419 66.6674 28.3278V27.6261C66.9305 27.4278 67.2479 27.2712 67.6154 27.1563C67.9829 27.0415 68.3588 26.9851 68.743 26.9851L68.7451 26.983Z" fill="#222222"/>
<path d="M73.3598 31.178L71.42 27.0874H72.487L74.3225 31.178H73.3598ZM72.8754 32.6481C72.6269 32.6481 72.4014 32.6168 72.1989 32.5541C71.9984 32.4915 71.8105 32.4059 71.6351 32.2973V31.5581C71.8251 31.6771 72.0047 31.7648 72.1759 31.8191C72.3471 31.8734 72.5413 31.9005 72.7543 31.9005C72.9673 31.9005 73.1406 31.8546 73.2993 31.7627C73.458 31.6708 73.5895 31.51 73.6939 31.2804L75.5983 27.0853H76.6278L74.4415 31.6082C74.3225 31.8567 74.1805 32.0571 74.0197 32.2096C73.8589 32.362 73.6814 32.4727 73.4893 32.5416C73.2972 32.6105 73.0926 32.646 72.8733 32.646L72.8754 32.6481Z" fill="#222222"/>
<path d="M81.2341 29.2006C81.1401 29.6433 80.9835 30.0317 80.7643 30.3658C80.545 30.6999 80.2757 30.9588 79.9541 31.1425C79.6325 31.3263 79.2755 31.4182 78.8829 31.4182C78.4694 31.4182 78.104 31.3242 77.7866 31.1384C77.4671 30.9525 77.2187 30.6915 77.0391 30.3574C76.8595 30.0233 76.7697 29.6391 76.7697 29.2006C76.7697 28.7621 76.8595 28.3716 77.0391 28.0396C77.2187 27.7097 77.4671 27.4507 77.7866 27.2628C78.104 27.077 78.4715 26.983 78.8829 26.983C79.2942 26.983 79.6325 27.0749 79.9541 27.2586C80.2757 27.4424 80.5471 27.7013 80.7685 28.0312C80.9898 28.3612 81.1443 28.7516 81.2341 29.1985V29.2006ZM77.7553 29.2006C77.7553 29.4846 77.8138 29.7351 77.9307 29.9502C78.0476 30.1674 78.2084 30.3365 78.4131 30.4576C78.6177 30.5787 78.8516 30.6414 79.1147 30.6414C79.3778 30.6414 79.6325 30.5808 79.8601 30.4576C80.0898 30.3365 80.2924 30.1674 80.4678 29.9502C80.6453 29.7331 80.7852 29.4846 80.8896 29.2006C80.7852 28.9166 80.6453 28.666 80.4678 28.4509C80.2903 28.2338 80.0877 28.0646 79.8601 27.9435C79.6304 27.8224 79.382 27.7598 79.1147 27.7598C78.8474 27.7598 78.6177 27.8203 78.4131 27.9435C78.2084 28.0646 78.0476 28.2338 77.9307 28.4509C77.8138 28.6681 77.7553 28.9166 77.7553 29.2006ZM80.9355 31.3138L80.7706 29.7456L80.9647 29.2006L80.7706 28.6639L80.9355 27.0895H81.9357L81.7123 29.2027L81.9357 31.3158H80.9355V31.3138Z" fill="#222222"/>
<path d="M82.8691 25.5652H83.8401V31.3137H82.8691V25.5652ZM85.519 26.983C85.9178 26.983 86.2561 27.0623 86.5338 27.221C86.8115 27.3797 87.0245 27.6073 87.1728 27.9038C87.3189 28.2004 87.392 28.5574 87.392 28.9751V31.3117H86.421V29.1317C86.421 28.689 86.3166 28.3549 86.112 28.1273C85.9053 27.9018 85.6025 27.7869 85.2057 27.7869C84.9322 27.7869 84.6921 27.8475 84.4853 27.9707C84.2786 28.0918 84.1199 28.263 84.0072 28.4823C83.8944 28.7015 83.8401 28.9583 83.8401 29.2507L83.4977 29.0648C83.5415 28.6263 83.6564 28.2547 83.8401 27.9456C84.0239 27.6366 84.2598 27.3985 84.5501 27.2336C84.8382 27.0665 85.1619 26.983 85.5211 26.983H85.519Z" fill="#222222"/>
<path d="M90.3258 26.983C90.8228 26.983 91.2634 27.077 91.6434 27.2628C92.0235 27.4487 92.3242 27.7097 92.5434 28.0438C92.7627 28.3779 92.8712 28.7663 92.8712 29.2089C92.8712 29.6516 92.7668 30.0317 92.5622 30.3616C92.3576 30.6915 92.0694 30.9504 91.704 31.1384C91.3386 31.3242 90.9188 31.4182 90.4469 31.4182C89.975 31.4182 89.5699 31.3096 89.2233 31.0903C88.8767 30.8711 88.6052 30.5641 88.4173 30.1674C88.2273 29.7727 88.1333 29.3113 88.1333 28.783H92.1112V29.5222H88.6177L89.1022 29.3196C89.121 29.5973 89.1899 29.8395 89.3026 30.0442C89.4175 30.2488 89.5741 30.4033 89.7725 30.5098C89.9708 30.6163 90.2026 30.6706 90.4678 30.6706C90.7518 30.6706 91.0003 30.6121 91.2133 30.4952C91.4263 30.3783 91.5933 30.2154 91.7102 30.0066C91.8272 29.7978 91.8857 29.5514 91.8857 29.2674C91.8857 28.95 91.8147 28.6765 91.6727 28.4509C91.5307 28.2254 91.3302 28.05 91.0713 27.9289C90.8124 27.8078 90.5012 27.7452 90.1379 27.7452C89.8142 27.7452 89.4843 27.7953 89.1481 27.8976C88.8119 27.9999 88.5133 28.1419 88.2481 28.3278V27.6261C88.5112 27.4278 88.8286 27.2712 89.1962 27.1563C89.5637 27.0415 89.9395 26.9851 90.3237 26.9851L90.3258 26.983Z" fill="#222222"/>
<path d="M93.103 27.8349V27.3944L94.0072 27.1626L94.4102 25.9828H94.9782V27.0874H96.941V27.8349H94.9782V29.6641C94.9782 30.017 95.0533 30.2655 95.2058 30.4075C95.3582 30.5495 95.6046 30.6205 95.9491 30.6205C96.1684 30.6205 96.3626 30.5975 96.5317 30.5495C96.7009 30.5015 96.8616 30.4347 97.0162 30.3449V31.1446C96.8867 31.2093 96.7029 31.272 96.467 31.3305C96.231 31.391 95.9888 31.4202 95.7382 31.4202C95.3248 31.4202 94.9907 31.3513 94.738 31.2156C94.4833 31.0778 94.2995 30.8899 94.1826 30.6476C94.0657 30.4054 94.0072 30.1298 94.0072 29.8145V27.837H93.103V27.8349Z" fill="#222222"/>
<path d="M98.2085 26.5278C98.0247 26.5278 97.8723 26.4777 97.7533 26.3754C97.6342 26.273 97.5737 26.1394 97.5737 25.9765C97.5737 25.8137 97.6342 25.68 97.7533 25.5777C97.8723 25.4754 98.0247 25.4253 98.2085 25.4253C98.3922 25.4253 98.5509 25.4775 98.6678 25.5777C98.7848 25.6779 98.8432 25.8137 98.8432 25.9765C98.8432 26.1394 98.7848 26.273 98.6678 26.3754C98.5509 26.4777 98.3985 26.5278 98.2085 26.5278ZM97.724 27.0582L98.2085 27.148L98.6929 27.0582V31.3138H97.7219V27.0582H97.724Z" fill="#222222"/>
<path d="M99.5219 27.0874H100.493L100.748 28.6096V31.3117H99.7766V28.4677L99.5219 27.0874ZM102.426 26.983C102.825 26.983 103.164 27.0624 103.441 27.221C103.719 27.3797 103.932 27.6073 104.08 27.9039C104.228 28.2004 104.299 28.5574 104.299 28.9751V31.3117H103.328V29.1317C103.328 28.689 103.226 28.3549 103.019 28.1273C102.813 27.8997 102.51 27.7869 102.113 27.7869C101.84 27.7869 101.6 27.8475 101.393 27.9707C101.186 28.0939 101.027 28.263 100.915 28.4823C100.802 28.7015 100.748 28.9584 100.748 29.2507L100.405 29.0649C100.449 28.6264 100.564 28.2547 100.748 27.9456C100.931 27.6366 101.167 27.3985 101.458 27.2336C101.746 27.0665 102.069 26.983 102.429 26.983H102.426Z" fill="#222222"/>
<path d="M105.755 26.5278C105.571 26.5278 105.419 26.4777 105.3 26.3754C105.181 26.273 105.12 26.1394 105.12 25.9765C105.12 25.8137 105.181 25.68 105.3 25.5777C105.419 25.4754 105.571 25.4253 105.755 25.4253C105.939 25.4253 106.097 25.4775 106.214 25.5777C106.331 25.6779 106.39 25.8137 106.39 25.9765C106.39 26.1394 106.331 26.273 106.214 26.3754C106.097 26.4777 105.945 26.5278 105.755 26.5278ZM105.27 27.0582L105.755 27.148L106.239 27.0582V31.3138H105.268V27.0582H105.27Z" fill="#222222"/>
<path d="M107.031 31.3138V30.6121L110.33 27.5969L110.936 27.8349H107.062V27.0874H111.309V27.789L108.018 30.8043L107.496 30.5662H111.326V31.3138H107.033H107.031Z" fill="#222222"/>
<path d="M112.606 26.5278C112.422 26.5278 112.27 26.4777 112.151 26.3754C112.032 26.273 111.971 26.1394 111.971 25.9765C111.971 25.8137 112.032 25.68 112.151 25.5777C112.27 25.4754 112.422 25.4253 112.606 25.4253C112.79 25.4253 112.948 25.4775 113.065 25.5777C113.182 25.6779 113.241 25.8137 113.241 25.9765C113.241 26.1394 113.182 26.273 113.065 26.3754C112.948 26.4777 112.796 26.5278 112.606 26.5278ZM112.122 27.0582L112.606 27.148L113.09 27.0582V31.3138H112.12V27.0582H112.122Z" fill="#222222"/>
<path d="M116.099 25.5652H117.07V28.5428L116.92 28.8185V29.6015L117.07 29.9147V31.3096H116.099V25.561V25.5652ZM116.682 29.2006C116.776 28.7516 116.933 28.3633 117.152 28.0333C117.371 27.7034 117.64 27.4445 117.962 27.2607C118.284 27.077 118.641 26.9851 119.033 26.9851C119.447 26.9851 119.812 27.0791 120.129 27.2649C120.447 27.4508 120.697 27.7097 120.875 28.0417C121.055 28.3737 121.144 28.76 121.144 29.2027C121.144 29.6454 121.055 30.0254 120.875 30.3595C120.695 30.6936 120.447 30.9525 120.129 31.1405C119.81 31.3263 119.445 31.4203 119.033 31.4203C118.622 31.4203 118.284 31.3284 117.962 31.1446C117.64 30.9609 117.371 30.702 117.152 30.3679C116.933 30.0338 116.776 29.6454 116.682 29.2027V29.2006ZM120.161 29.2006C120.161 28.9166 120.102 28.666 119.985 28.451C119.868 28.2338 119.708 28.0647 119.503 27.9435C119.298 27.8224 119.065 27.7598 118.801 27.7598C118.538 27.7598 118.29 27.8203 118.058 27.9435C117.826 28.0667 117.624 28.2338 117.45 28.451C117.277 28.6681 117.135 28.9166 117.024 29.2006C117.133 29.4846 117.275 29.7352 117.45 29.9502C117.624 30.1674 117.828 30.3365 118.058 30.4576C118.288 30.5788 118.536 30.6414 118.801 30.6414C119.067 30.6414 119.298 30.5808 119.503 30.4576C119.708 30.3365 119.868 30.1674 119.985 29.9502C120.102 29.7331 120.161 29.4846 120.161 29.2006Z" fill="#222222"/>
<path d="M122.437 26.5278C122.253 26.5278 122.101 26.4777 121.982 26.3754C121.863 26.273 121.802 26.1394 121.802 25.9765C121.802 25.8137 121.863 25.68 121.982 25.5777C122.101 25.4754 122.253 25.4253 122.437 25.4253C122.621 25.4253 122.779 25.4775 122.896 25.5777C123.013 25.6779 123.072 25.8137 123.072 25.9765C123.072 26.1394 123.013 26.273 122.896 26.3754C122.779 26.4777 122.627 26.5278 122.437 26.5278ZM121.952 27.0582L122.437 27.148L122.921 27.0582V31.3138H121.95V27.0582H121.952Z" fill="#222222"/>
<path d="M123.715 31.3138V30.6121L127.014 27.5969L127.62 27.8349H123.746V27.0874H127.993V27.789L124.703 30.8043L124.181 30.5662H128.01V31.3138H123.717H123.715Z" fill="#222222"/>
<path d="M132.053 31.178L130.113 27.0874H131.18L133.015 31.178H132.053ZM131.568 32.6481C131.32 32.6481 131.094 32.6168 130.892 32.5541C130.691 32.4915 130.503 32.4059 130.328 32.2973V31.5581C130.518 31.6771 130.697 31.7648 130.869 31.8191C131.04 31.8734 131.234 31.9005 131.447 31.9005C131.66 31.9005 131.833 31.8546 131.992 31.7627C132.151 31.6708 132.282 31.51 132.387 31.2804L134.291 27.0853H135.321L133.134 31.6082C133.015 31.8567 132.873 32.0571 132.713 32.2096C132.552 32.362 132.374 32.4727 132.182 32.5416C131.99 32.6105 131.785 32.646 131.566 32.646L131.568 32.6481Z" fill="#222222"/>
<path d="M139.927 29.2006C139.833 29.6433 139.676 30.0317 139.457 30.3658C139.238 30.6999 138.969 30.9588 138.647 31.1425C138.325 31.3263 137.968 31.4182 137.576 31.4182C137.162 31.4182 136.797 31.3242 136.479 31.1384C136.16 30.9525 135.912 30.6915 135.732 30.3574C135.552 30.0233 135.463 29.6391 135.463 29.2006C135.463 28.7621 135.552 28.3716 135.732 28.0396C135.912 27.7097 136.16 27.4507 136.479 27.2628C136.797 27.077 137.164 26.983 137.576 26.983C137.987 26.983 138.325 27.0749 138.647 27.2586C138.969 27.4424 139.24 27.7013 139.461 28.0312C139.683 28.3612 139.837 28.7516 139.927 29.1985V29.2006ZM136.448 29.2006C136.448 29.4846 136.507 29.7351 136.624 29.9502C136.741 30.1674 136.901 30.3365 137.106 30.4576C137.311 30.5787 137.544 30.6414 137.808 30.6414C138.071 30.6414 138.325 30.5808 138.553 30.4576C138.783 30.3365 138.985 30.1674 139.161 29.9502C139.338 29.7331 139.478 29.4846 139.582 29.2006C139.478 28.9166 139.338 28.666 139.161 28.4509C138.983 28.2338 138.781 28.0646 138.553 27.9435C138.323 27.8224 138.075 27.7598 137.808 27.7598C137.54 27.7598 137.311 27.8203 137.106 27.9435C136.901 28.0646 136.741 28.2338 136.624 28.4509C136.507 28.6681 136.448 28.9166 136.448 29.2006ZM139.628 31.3138L139.463 29.7456L139.658 29.2006L139.463 28.6639L139.628 27.0895H140.629L140.405 29.2027L140.629 31.3158H139.628V31.3138Z" fill="#222222"/>
<path d="M141.359 27.0874H142.33L142.585 28.6243V31.3117H141.614V28.4384L141.359 27.0874ZM144.725 27.0582V27.9101C144.615 27.8809 144.496 27.8579 144.366 27.8433C144.237 27.8287 144.116 27.8203 144.001 27.8203C143.727 27.8203 143.483 27.8809 143.27 27.9999C143.057 28.1189 142.888 28.2964 142.767 28.5345C142.646 28.7704 142.583 29.0607 142.583 29.4052L142.36 29.1296C142.378 28.831 142.431 28.5512 142.512 28.2902C142.594 28.0292 142.708 27.8015 142.855 27.6074C143.001 27.4132 143.182 27.2607 143.395 27.1521C143.608 27.0436 143.859 26.9872 144.141 26.9872C144.241 26.9872 144.343 26.9934 144.448 27.006C144.552 27.0185 144.644 27.0373 144.723 27.0624L144.725 27.0582Z" fill="#222222"/>
<path d="M149.422 29.2006C149.328 29.6433 149.171 30.0317 148.952 30.3658C148.733 30.6999 148.463 30.9588 148.142 31.1425C147.82 31.3263 147.463 31.4182 147.07 31.4182C146.657 31.4182 146.292 31.3242 145.974 31.1384C145.655 30.9525 145.406 30.6915 145.227 30.3574C145.047 30.0233 144.957 29.6391 144.957 29.2006C144.957 28.7621 145.047 28.3716 145.227 28.0396C145.406 27.7097 145.655 27.4507 145.974 27.2628C146.292 27.077 146.659 26.983 147.07 26.983C147.482 26.983 147.82 27.0749 148.142 27.2586C148.463 27.4424 148.735 27.7013 148.956 28.0312C149.177 28.3612 149.332 28.7516 149.422 29.1985V29.2006ZM145.943 29.2006C145.943 29.4846 146.001 29.7351 146.118 29.9502C146.235 30.1674 146.396 30.3365 146.601 30.4576C146.805 30.5787 147.039 30.6414 147.302 30.6414C147.565 30.6414 147.82 30.5808 148.048 30.4576C148.277 30.3365 148.48 30.1674 148.655 29.9502C148.833 29.7331 148.973 29.4846 149.077 29.2006C148.973 28.9166 148.833 28.666 148.655 28.4509C148.478 28.2338 148.275 28.0646 148.048 27.9435C147.818 27.8224 147.57 27.7598 147.302 27.7598C147.035 27.7598 146.805 27.8203 146.601 27.9435C146.396 28.0646 146.235 28.2338 146.118 28.4509C146.001 28.6681 145.943 28.9166 145.943 29.2006ZM149.123 31.3138L148.958 29.7456L149.152 29.2006L148.958 28.6639L149.123 27.0895H150.123L149.9 29.2027L150.123 31.3158H149.123V31.3138Z" fill="#222222"/>
<path d="M155.296 29.2006C155.202 29.6432 155.045 30.0316 154.826 30.3657C154.606 30.6998 154.337 30.9588 154.015 31.1425C153.694 31.3263 153.337 31.4182 152.944 31.4182C152.531 31.4182 152.165 31.3242 151.848 31.1383C151.529 30.9525 151.28 30.6915 151.1 30.3574C150.921 30.0233 150.831 29.6391 150.831 29.2006C150.831 28.7621 150.921 28.3716 151.1 28.0396C151.28 27.7097 151.529 27.4507 151.848 27.2628C152.165 27.077 152.533 26.983 152.944 26.983C153.356 26.983 153.694 27.0749 154.015 27.2586C154.337 27.4424 154.609 27.7013 154.83 28.0312C155.051 28.3611 155.206 28.7516 155.296 29.1985V29.2006ZM151.817 29.2006C151.817 29.4846 151.875 29.7351 151.992 29.9502C152.109 30.1674 152.27 30.3365 152.474 30.4576C152.679 30.5787 152.913 30.6414 153.176 30.6414C153.439 30.6414 153.694 30.5808 153.922 30.4576C154.151 30.3365 154.354 30.1674 154.529 29.9502C154.707 29.733 154.847 29.4846 154.951 29.2006C154.847 28.9166 154.707 28.666 154.529 28.4509C154.352 28.2338 154.149 28.0646 153.922 27.9435C153.692 27.8224 153.443 27.7598 153.176 27.7598C152.909 27.7598 152.679 27.8203 152.474 27.9435C152.27 28.0646 152.109 28.2338 151.992 28.4509C151.875 28.6681 151.817 28.9166 151.817 29.2006ZM155.012 31.3137L154.847 29.708L155.064 29.2068L154.855 28.6326L155.168 25.5652H156.168L155.788 29.14L156.005 31.3117H155.014L155.012 31.3137Z" fill="#222222"/>
<path d="M161.178 29.2006C161.084 29.6433 160.927 30.0317 160.708 30.3658C160.489 30.6999 160.219 30.9588 159.898 31.1425C159.576 31.3263 159.219 31.4182 158.827 31.4182C158.413 31.4182 158.048 31.3242 157.73 31.1384C157.411 30.9525 157.162 30.6915 156.983 30.3574C156.803 30.0233 156.713 29.6391 156.713 29.2006C156.713 28.7621 156.803 28.3716 156.983 28.0396C157.162 27.7097 157.411 27.4507 157.73 27.2628C158.048 27.077 158.415 26.983 158.827 26.983C159.238 26.983 159.576 27.0749 159.898 27.2586C160.219 27.4424 160.491 27.7013 160.712 28.0312C160.933 28.3612 161.088 28.7516 161.178 29.1985V29.2006ZM157.699 29.2006C157.699 29.4846 157.757 29.7351 157.874 29.9502C157.991 30.1674 158.152 30.3365 158.357 30.4576C158.561 30.5787 158.795 30.6414 159.058 30.6414C159.321 30.6414 159.576 30.5808 159.804 30.4576C160.033 30.3365 160.236 30.1674 160.411 29.9502C160.589 29.7331 160.729 29.4846 160.833 29.2006C160.729 28.9166 160.589 28.666 160.411 28.4509C160.234 28.2338 160.031 28.0646 159.804 27.9435C159.574 27.8224 159.326 27.7598 159.058 27.7598C158.791 27.7598 158.561 27.8203 158.357 27.9435C158.152 28.0646 157.991 28.2338 157.874 28.4509C157.757 28.6681 157.699 28.9166 157.699 29.2006ZM160.879 31.3138L160.714 29.7456L160.908 29.2006L160.714 28.6639L160.879 27.0895H161.879L161.656 29.2027L161.879 31.3158H160.879V31.3138Z" fill="#222222"/>
<path d="M167.054 29.2006C166.96 29.6433 166.803 30.0317 166.584 30.3658C166.365 30.6999 166.095 30.9588 165.774 31.1425C165.452 31.3263 165.095 31.4182 164.703 31.4182C164.289 31.4182 163.924 31.3242 163.606 31.1384C163.287 30.9525 163.038 30.6915 162.859 30.3574C162.679 30.0233 162.589 29.6391 162.589 29.2006C162.589 28.7621 162.679 28.3716 162.859 28.0396C163.038 27.7097 163.287 27.4507 163.606 27.2628C163.924 27.077 164.291 26.983 164.703 26.983C165.114 26.983 165.452 27.0749 165.774 27.2586C166.095 27.4424 166.367 27.7013 166.588 28.0312C166.809 28.3612 166.964 28.7516 167.054 29.1985V29.2006ZM163.575 29.2006C163.575 29.4846 163.633 29.7351 163.75 29.9502C163.867 30.1674 164.028 30.3365 164.233 30.4576C164.437 30.5787 164.671 30.6414 164.934 30.6414C165.197 30.6414 165.452 30.5808 165.68 30.4576C165.909 30.3365 166.112 30.1674 166.287 29.9502C166.465 29.7331 166.605 29.4846 166.709 29.2006C166.605 28.9166 166.465 28.666 166.287 28.4509C166.11 28.2338 165.907 28.0646 165.68 27.9435C165.45 27.8224 165.202 27.7598 164.934 27.7598C164.667 27.7598 164.437 27.8203 164.233 27.9435C164.028 28.0646 163.867 28.2338 163.75 28.4509C163.633 28.6681 163.575 28.9166 163.575 29.2006ZM167.651 27.0874V32.5437H166.68V29.8187L166.724 29.5577V28.7057L166.68 28.5574V27.0874H167.651Z" fill="#222222"/>
<path d="M46.1078 10.2717V8.28176L49.0082 7.22517L50.9752 3.14499H53.5812V6.88063H59.6263V10.2717H53.5812V14.8927C53.5812 15.941 53.7942 16.6739 54.2201 17.0915C54.6461 17.5092 55.4083 17.718 56.5066 17.718C57.2103 17.718 57.8305 17.6574 58.363 17.5342C58.8954 17.411 59.3987 17.244 59.8748 17.031V20.4952C59.384 20.6915 58.7409 20.8731 57.9453 21.036C57.1498 21.1989 56.327 21.2824 55.4751 21.2824C53.9842 21.2824 52.7584 21.0443 51.8 20.5703C50.8416 20.0963 50.1379 19.4281 49.6868 18.5678C49.2358 17.7075 49.0103 16.6969 49.0103 15.5317V10.2717H46.1099H46.1078Z" fill="#222222"/>
<path d="M61.3198 6.88065H65.9408L66.776 11.9193V20.8898H62.2051V11.5497L61.3198 6.88065ZM73.4601 6.68437V10.6163C73.0174 10.5182 72.5789 10.4451 72.1446 10.395C71.7102 10.3448 71.3135 10.3219 70.9523 10.3219C70.165 10.3219 69.4572 10.4827 68.8265 10.8001C68.1959 11.1195 67.6969 11.6228 67.3273 12.3118C66.9577 13.0009 66.7739 13.8926 66.7739 14.9909L65.8656 13.8612C65.9804 12.861 66.1684 11.9193 66.4315 11.036C66.6925 10.1506 67.0537 9.36969 67.5131 8.68896C67.9725 8.01032 68.5405 7.47159 69.2212 7.07902C69.8998 6.68646 70.7246 6.49017 71.6914 6.49017C71.9692 6.49017 72.2657 6.50688 72.5768 6.54029C72.8879 6.5737 73.1824 6.62172 73.4622 6.68854L73.4601 6.68437Z" fill="#222222"/>
<path d="M88.7702 13.8842C88.5238 15.3752 88.0581 16.674 87.369 17.7786C86.68 18.8832 85.8113 19.7456 84.7631 20.3595C83.7148 20.9734 82.535 21.2804 81.2237 21.2804C79.8476 21.2804 78.6386 20.9692 77.5987 20.347C76.5589 19.7247 75.7424 18.8602 75.1535 17.7535C74.5647 16.6468 74.2682 15.3564 74.2682 13.8822C74.2682 12.4079 74.5626 11.1175 75.1535 10.0108C75.7424 8.90408 76.5589 8.04168 77.5987 7.41734C78.6386 6.79508 79.8476 6.48395 81.2237 6.48395C82.5998 6.48395 83.7148 6.7909 84.7631 7.40481C85.8113 8.01871 86.6841 8.87484 87.3795 9.97319C88.0748 11.0715 88.5384 12.3745 88.7681 13.8801L88.7702 13.8842ZM78.8913 13.8842C78.8913 14.6381 79.0458 15.3062 79.359 15.8867C79.6701 16.4693 80.1003 16.9266 80.6495 17.2628C81.1987 17.599 81.8334 17.7661 82.5538 17.7661C83.2742 17.7661 83.9591 17.599 84.6065 17.2628C85.2538 16.9266 85.8238 16.4693 86.3145 15.8867C86.8052 15.3062 87.1748 14.6381 87.4212 13.8842C87.1748 13.1304 86.8073 12.4622 86.3145 11.8817C85.8238 11.3012 85.2538 10.8419 84.6065 10.5057C83.9591 10.1695 83.2742 10.0024 82.5538 10.0024C81.8334 10.0024 81.1987 10.1716 80.6495 10.5057C80.1003 10.8419 79.6701 11.3012 79.359 11.8817C79.0479 12.4643 78.8913 13.1304 78.8913 13.8842ZM87.6405 20.8878L87.0266 15.8011L87.6906 13.8842L87.0266 11.9924L87.6405 6.88069H92.3847L91.5244 13.8842L92.3847 20.8878H87.6405Z" fill="#222222"/>
<path d="M103.64 18.7516L102.042 18.7265L107.104 6.88065H111.969L105.358 20.8898H100.173L93.5624 6.88065H98.601L103.64 18.7516Z" fill="#222222"/>
<path d="M120.743 21.2824C119.073 21.2824 117.578 20.9713 116.258 20.3491C114.938 19.7268 113.903 18.8581 113.149 17.7431C112.395 16.6301 112.019 15.3271 112.019 13.8362C112.019 12.3453 112.381 11.1008 113.101 10.0024C113.821 8.90408 114.817 8.04378 116.087 7.42152C117.357 6.79926 118.793 6.48813 120.401 6.48813C122.009 6.48813 123.448 6.84937 124.627 7.56977C125.807 8.29018 126.715 9.30709 127.354 10.6163C127.993 11.9277 128.313 13.4666 128.313 15.2373H115.68V12.362H125.805L124.158 13.3935C124.107 12.623 123.924 11.9715 123.604 11.4391C123.285 10.9066 122.863 10.4973 122.339 10.2112C121.815 9.92517 121.192 9.78109 120.472 9.78109C119.685 9.78109 119.006 9.9377 118.432 10.2488C117.858 10.56 117.413 10.9943 117.093 11.5518C116.774 12.1093 116.613 12.7567 116.613 13.4938C116.613 14.4272 116.822 15.2227 117.24 15.8784C117.657 16.5341 118.263 17.0331 119.058 17.3777C119.852 17.7222 120.823 17.8934 121.971 17.8934C123.019 17.8934 124.068 17.7494 125.116 17.4633C126.164 17.1772 127.106 16.7721 127.941 16.2459V19.2194C126.991 19.8751 125.905 20.3825 124.686 20.7437C123.464 21.105 122.151 21.2845 120.741 21.2845L120.743 21.2824Z" fill="#222222"/>
<path d="M130.599 1.96521H135.145V20.8898H130.599V1.96521Z" fill="#222222"/>
<path d="M138.094 1.96521H142.639V20.8898H138.094V1.96521Z" fill="#222222"/>
<path d="M159.451 13.8842C159.205 15.3752 158.739 16.674 158.05 17.7786C157.361 18.8853 156.492 19.7456 155.444 20.3595C154.396 20.9734 153.216 21.2804 151.904 21.2804C150.528 21.2804 149.319 20.9692 148.279 20.347C147.24 19.7247 146.423 18.8602 145.834 17.7535C145.245 16.6468 144.949 15.3564 144.949 13.8822C144.949 12.4079 145.243 11.1175 145.834 10.0108C146.423 8.90408 147.24 8.04168 148.279 7.41734C149.319 6.79508 150.528 6.48395 151.904 6.48395C153.281 6.48395 154.396 6.7909 155.444 7.40481C156.492 8.01871 157.365 8.87484 158.06 9.97319C158.756 11.0715 159.219 12.3745 159.449 13.8801L159.451 13.8842ZM149.572 13.8842C149.572 14.6381 149.727 15.3062 150.04 15.8867C150.351 16.4693 150.781 16.9266 151.33 17.2628C151.879 17.599 152.514 17.7661 153.235 17.7661C153.955 17.7661 154.64 17.599 155.287 17.2628C155.935 16.9266 156.505 16.4693 156.995 15.8867C157.486 15.3062 157.856 14.6381 158.102 13.8842C157.856 13.1304 157.488 12.4622 156.995 11.8817C156.505 11.3012 155.935 10.8419 155.287 10.5057C154.64 10.1695 153.955 10.0024 153.235 10.0024C152.514 10.0024 151.879 10.1716 151.33 10.5057C150.781 10.8419 150.351 11.3012 150.04 11.8817C149.729 12.4643 149.572 13.1304 149.572 13.8842ZM158.321 20.8878L157.707 15.8011L158.371 13.8842L157.707 11.9924L158.321 6.88069H163.065L162.205 13.8842L163.065 20.8878H158.321Z" fill="#222222"/>
<path d="M165.644 1.96521H170.19V11.1321L169.576 12.3369V15.6299L170.19 16.8096V20.8898H165.644V1.96521ZM168.668 13.8842C168.914 12.3766 169.38 11.0736 170.069 9.97732C170.758 8.87897 171.625 8.02284 172.675 7.40894C173.723 6.79503 174.903 6.48807 176.214 6.48807C177.59 6.48807 178.799 6.7992 179.839 7.42146C180.879 8.04372 181.696 8.9082 182.284 10.0149C182.873 11.1216 183.17 12.4121 183.17 13.8863C183.17 15.3605 182.875 16.6509 182.284 17.7577C181.696 18.8644 180.879 19.7288 179.839 20.3511C178.799 20.9734 177.59 21.2845 176.214 21.2845C174.838 21.2845 173.723 20.9775 172.675 20.3636C171.627 19.7497 170.758 18.8894 170.069 17.7827C169.38 16.676 168.914 15.3793 168.668 13.8884V13.8842ZM178.547 13.8842C178.547 13.1304 178.39 12.4622 178.079 11.8817C177.768 11.3012 177.338 10.8418 176.789 10.5056C176.239 10.1694 175.605 10.0024 174.884 10.0024C174.164 10.0024 173.479 10.1715 172.832 10.5056C172.184 10.8418 171.618 11.3012 171.136 11.8817C170.652 12.4643 170.28 13.1304 170.017 13.8842C170.278 14.638 170.652 15.3062 171.136 15.8867C171.618 16.4693 172.184 16.9266 172.832 17.2628C173.479 17.599 174.162 17.766 174.884 17.766C175.607 17.766 176.239 17.599 176.789 17.2628C177.338 16.9266 177.768 16.4693 178.079 15.8867C178.39 15.3062 178.547 14.638 178.547 13.8842Z" fill="#222222"/>
<path d="M23.6751 18.626V2.18835L7.23744 2.18835V18.626H23.6751Z" fill="#069547"/>
<path d="M23.673 35.4124V18.9747H7.23537V35.4124H23.673Z" fill="#0C75BA"/>
<path d="M40.6536 16.4377V0L24.216 0V16.4377H40.6536Z" fill="#314973"/>
<path d="M40.6536 33.2825V16.8448H24.216V33.2825H40.6536Z" fill="#FCB148"/>
<mask id="mask0_189_7516" style="mask-type:luminance" maskUnits="userSpaceOnUse" x="7" y="18" width="17" height="18">
<path d="M23.6731 35.4127V18.9751H7.23543V35.4127H23.6731Z" fill="white"/>
</mask>
<g mask="url(#mask0_189_7516)">
<path d="M15.3728 40.0003C14.9594 40.0003 14.596 39.7017 14.525 39.282C14.0761 36.5842 14.903 34.093 16.9159 32.078C16.9556 32.0383 16.9995 32.0028 17.0475 31.9694C19.4969 30.3365 20.9022 27.5614 20.5451 25.0619C20.4783 24.5921 20.804 24.1557 21.2759 24.0889C21.7458 24.022 22.1822 24.3478 22.249 24.8197C22.7 27.9832 21.065 31.3242 18.0769 33.3518C16.4921 34.9659 15.8677 36.8661 16.2227 38.998C16.2999 39.4679 15.9846 39.9105 15.5148 39.9878C15.4668 39.9961 15.4188 40.0003 15.3728 40.0003Z" fill="white"/>
<path d="M6.76765 40.0003C6.35421 40.0003 5.99087 39.7017 5.91988 39.282C5.47093 36.5842 6.29783 34.093 8.31077 32.078C8.35045 32.0383 8.3943 32.0028 8.44233 31.9694C10.8917 30.3365 12.297 27.5614 11.9399 25.0619C11.8731 24.5921 12.1989 24.1557 12.6708 24.0889C13.1406 24.022 13.577 24.3478 13.6438 24.8197C14.0949 27.9832 12.4599 31.3242 9.47177 33.3518C7.88689 34.9659 7.26254 36.8661 7.61752 38.998C7.69478 39.4679 7.37947 39.9105 6.90965 39.9878C6.86162 39.9961 6.81359 40.0003 6.76765 40.0003Z" fill="white"/>
<path d="M11.0712 40.0003C10.6578 40.0003 10.2945 39.7017 10.2235 39.282C9.77452 36.5842 10.6014 34.093 12.6144 32.078C12.654 32.0383 12.6979 32.0028 12.7459 31.9694C15.1953 30.3365 16.6006 27.5614 16.2435 25.0619C16.1767 24.5921 16.5024 24.1557 16.9744 24.0889C17.4442 24.022 17.8806 24.3478 17.9474 24.8197C18.3985 27.9832 16.7635 31.3242 13.7754 33.3518C12.1905 34.9659 11.5661 36.8661 11.9211 38.998C11.9984 39.4679 11.6831 39.9105 11.2132 39.9878C11.1652 39.9961 11.1172 40.0003 11.0712 40.0003Z" fill="white"/>
</g>
<mask id="mask1_189_7516" style="mask-type:luminance" maskUnits="userSpaceOnUse" x="24" y="16" width="17" height="18">
<path d="M40.6536 33.2829V16.8452H24.216V33.2829H40.6536Z" fill="white"/>
</mask>
<g mask="url(#mask1_189_7516)">
<path d="M32.3137 31.9318C32.3137 32.9466 33.8505 32.9487 33.8505 31.9318C33.8505 28.2108 36.8783 25.183 40.5993 25.183C44.3203 25.183 47.3481 28.2108 47.3481 31.9318C47.3481 32.9466 48.885 32.9487 48.885 31.9318C48.885 27.363 45.1681 23.6461 40.5993 23.6461C36.0305 23.6461 32.3137 27.363 32.3137 31.9318Z" fill="white"/>
<path d="M43.7565 31.3993C43.8192 31.7752 44.1449 32.0404 44.5145 32.0404C46.3897 32.0404 44.6064 27.1876 40.593 27.1876C36.7948 27.1876 34.8883 31.6436 36.5421 31.9527C36.9597 32.032 37.3606 31.7564 37.44 31.3388C38.0957 27.8349 43.1698 27.8871 43.7565 31.3993Z" fill="white"/>
<path d="M39.8309 19.2841V21.2323C39.8309 22.2472 41.3677 22.2492 41.3677 21.2323V19.2841C41.3677 18.8602 41.0232 18.5157 40.5993 18.5157C40.1754 18.5157 39.8309 18.8602 39.8309 19.2841Z" fill="white"/>
<path d="M30.332 30.585C28.2857 30.2091 28.1813 30.1235 27.8409 30.3573C27.2834 30.7436 27.4629 31.6227 28.1395 31.7459L30.0543 32.0968C31.0524 32.2805 31.3322 30.7687 30.332 30.585Z" fill="white"/>
<path d="M33.5937 23.8215L32.2176 22.4455C31.4993 21.7272 30.4114 22.813 31.1297 23.5334C32.6018 25.0055 32.6373 25.135 33.0508 25.135C33.7294 25.135 34.0802 24.3081 33.5937 23.8236V23.8215Z" fill="white"/>
<path d="M31.7018 27.6011C31.5682 26.9663 30.9125 26.628 30.3257 26.8661C29.2128 27.3255 29.7097 29.0148 30.9083 28.7872C31.4596 28.6723 31.8062 28.1524 31.7018 27.6011Z" fill="white"/>
<path d="M37.488 21.9798C37.488 21.3534 36.9117 20.8648 36.2811 20.9901C35.6484 21.1216 35.3059 21.7814 35.5461 22.3661C35.9574 23.3809 37.488 23.0782 37.488 21.9798Z" fill="white"/>
</g>
<mask id="mask2_189_7516" style="mask-type:luminance" maskUnits="userSpaceOnUse" x="7" y="2" width="17" height="17">
<path d="M23.6751 18.626V2.18835L7.23744 2.18835V18.626H23.6751Z" fill="white"/>
</mask>
<g mask="url(#mask2_189_7516)">
<path d="M16.8657 6.16213H0.684889C0.329908 6.16213 0.041748 5.86144 0.041748 5.48976C0.041748 5.11807 0.329908 4.81738 0.684889 4.81738H16.8657C17.2207 4.81738 17.5089 5.11807 17.5089 5.48976C17.5089 5.86144 17.2207 6.16213 16.8657 6.16213Z" fill="white"/>
<path d="M16.8657 6.20382H0.684903C0.306953 6.20382 0 5.88434 0 5.49177C0 5.09921 0.306953 4.77972 0.684903 4.77972H16.8657C17.2437 4.77972 17.5506 5.09921 17.5506 5.49177C17.5506 5.88434 17.2437 6.20382 16.8657 6.20382ZM0.684903 4.85907C0.352892 4.85907 0.0835247 5.14097 0.0835247 5.48968C0.0835247 5.8384 0.352892 6.1203 0.684903 6.1203H16.8657C17.1977 6.1203 17.4671 5.8384 17.4671 5.48968C17.4671 5.14097 17.1977 4.85907 16.8657 4.85907H0.684903Z" fill="white"/>
<path d="M16.8658 11.1113H0.68495C0.329969 11.1113 0.0418091 10.8106 0.0418091 10.4389C0.0418091 10.0672 0.329969 9.76654 0.68495 9.76654H16.8658C17.2208 9.76654 17.5089 10.0672 17.5089 10.4389C17.5089 10.8106 17.2208 11.1113 16.8658 11.1113Z" fill="white"/>
<path d="M16.8658 11.153H0.684964C0.307014 11.153 6.10352e-05 10.8336 6.10352e-05 10.441C6.10352e-05 10.0484 0.307014 9.72894 0.684964 9.72894H16.8658C17.2437 9.72894 17.5507 10.0484 17.5507 10.441C17.5507 10.8336 17.2437 11.153 16.8658 11.153ZM0.684964 9.81038C0.352953 9.81038 0.0835858 10.0923 0.0835858 10.441C0.0835858 10.7897 0.352953 11.0716 0.684964 11.0716H16.8658C17.1978 11.0716 17.4672 10.7897 17.4672 10.441C17.4672 10.0923 17.1978 9.81038 16.8658 9.81038H0.684964Z" fill="white"/>
<path d="M16.8657 15.9972H0.684889C0.329908 15.9972 0.041748 15.6965 0.041748 15.3248C0.041748 14.9531 0.329908 14.6524 0.684889 14.6524H16.8657C17.2207 14.6524 17.5089 14.9531 17.5089 15.3248C17.5089 15.6965 17.2207 15.9972 16.8657 15.9972Z" fill="white"/>
<path d="M16.8657 16.0389H0.684903C0.306953 16.0389 0 15.7194 0 15.3268C0 14.9343 0.306953 14.6148 0.684903 14.6148H16.8657C17.2437 14.6148 17.5506 14.9343 17.5506 15.3268C17.5506 15.7194 17.2437 16.0389 16.8657 16.0389ZM0.684903 14.6962C0.352892 14.6962 0.0835247 14.9781 0.0835247 15.3268C0.0835247 15.6755 0.352892 15.9574 0.684903 15.9574H16.8657C17.1977 15.9574 17.4671 15.6755 17.4671 15.3268C17.4671 14.9781 17.1977 14.6962 16.8657 14.6962H0.684903Z" fill="white"/>
</g>
<mask id="mask3_189_7516" style="mask-type:luminance" maskUnits="userSpaceOnUse" x="24" y="0" width="17" height="17">
<path d="M40.6536 16.4377V0L24.216 0V16.4377H40.6536Z" fill="white"/>
</mask>
<g mask="url(#mask3_189_7516)">
<path d="M42.1612 7.98955C41.2508 8.83106 40.1462 8.91249 39.2316 8.08351C38.8787 7.76612 37.7177 6.25014 35.9595 6.30026C34.9238 6.32949 33.9382 6.89328 32.9463 7.94569C32.2614 8.67445 33.3619 9.71224 34.0489 8.98349C36.114 6.78888 37.0599 8.15868 38.2168 9.20483C39.7265 10.5725 41.7144 10.4661 43.1865 9.1046C43.5665 8.75171 44.3329 7.70139 45.3122 7.78491C46.7363 7.90393 47.3606 9.81247 48.2522 8.89579C48.5425 8.59719 48.5362 8.11692 48.2376 7.82458C47.323 6.93087 46.4168 6.35455 45.4375 6.27102C43.6876 6.12277 42.5851 7.59698 42.1612 7.98746V7.98955Z" fill="white"/>
<path d="M51.5995 4.26435C50.9835 5.26247 49.2901 5.31885 48.4339 4.43767C46.373 2.33284 44.3976 1.95907 42.3763 4.19127C41.397 5.27709 40.0773 5.43579 39.0374 4.3082C37.0829 2.19294 35.024 2.15535 32.9464 4.36458C32.0631 5.30424 30.3592 5.32094 29.7077 4.26644C29.1836 3.41658 27.8952 4.21006 28.4214 5.05993C29.6075 6.99144 32.5016 7.0499 34.0489 5.40238C35.5064 3.85508 36.5588 3.85717 37.9223 5.33556C39.5198 7.0687 41.8605 7.01232 43.4976 5.20818C44.8591 3.70474 45.8384 3.95531 47.3481 5.50052C48.9497 7.10211 51.7624 6.88285 52.8858 5.05993C53.412 4.21006 52.1257 3.41449 51.5995 4.26644V4.26435Z" fill="white"/>
<path d="M42.1612 11.5707C41.255 12.408 40.1525 12.4978 39.2316 11.6646C39.0102 11.4642 38.4423 10.75 37.5736 10.2844C36.6256 9.77489 35.1973 9.59949 35.2266 10.6582C35.237 11.0758 35.5857 11.4036 36.0034 11.3932C37.0119 11.3639 37.843 12.4477 38.2189 12.786C39.7327 14.1578 41.7185 14.043 43.1886 12.6857C43.5665 12.337 44.3057 11.3222 45.2537 11.3598C45.6713 11.3765 46.0242 11.0507 46.0389 10.6331C46.0806 9.60366 44.7233 9.71851 43.792 10.2071C42.9568 10.6456 42.4473 11.3076 42.1633 11.5686L42.1612 11.5707Z" fill="white"/>
</g>
</g>
<defs>
<clipPath id="clip0_189_7516">
<rect width="183.168" height="40" fill="white"/>
</clipPath>
</defs>
</svg>
