<svg width="40" height="40" viewBox="0 0 40 40" fill="none" xmlns="http://www.w3.org/2000/svg">
<rect width="40" height="40" rx="20" fill="#FFF2EA"/>
<path d="M22.25 19.25H10.25C10.0511 19.25 9.86032 19.329 9.71967 19.4697C9.57902 19.6103 9.5 19.8011 9.5 20C9.5 20.1989 9.57902 20.3897 9.71967 20.5303C9.86032 20.671 10.0511 20.75 10.25 20.75H22.25C22.4489 20.75 22.6397 20.671 22.7803 20.5303C22.921 20.3897 23 20.1989 23 20C23 19.8011 22.921 19.6103 22.7803 19.4697C22.6397 19.329 22.4489 19.25 22.25 19.25Z" fill="#FF7223"/>
<path d="M29.75 14.75H10.25C10.0511 14.75 9.86032 14.829 9.71967 14.9697C9.57902 15.1103 9.5 15.3011 9.5 15.5C9.5 15.6989 9.57902 15.8897 9.71967 16.0303C9.86032 16.171 10.0511 16.25 10.25 16.25H29.75C29.9489 16.25 30.1397 16.171 30.2803 16.0303C30.421 15.8897 30.5 15.6989 30.5 15.5C30.5 15.3011 30.421 15.1103 30.2803 14.9697C30.1397 14.829 29.9489 14.75 29.75 14.75Z" fill="#FF7223"/>
<path d="M14.75 23.75H10.25C10.0511 23.75 9.86032 23.829 9.71967 23.9697C9.57902 24.1103 9.5 24.3011 9.5 24.5C9.5 24.6989 9.57902 24.8897 9.71967 25.0303C9.86032 25.171 10.0511 25.25 10.25 25.25H14.75C14.9489 25.25 15.1397 25.171 15.2803 25.0303C15.421 24.8897 15.5 24.6989 15.5 24.5C15.5 24.3011 15.421 24.1103 15.2803 23.9697C15.1397 23.829 14.9489 23.75 14.75 23.75Z" fill="#FF7223"/>
</svg>
