<svg width="18" height="18" viewBox="0 0 18 18" fill="none" xmlns="http://www.w3.org/2000/svg">
<path d="M17.7844 9.53437L13.8469 13.4719C13.7029 13.6095 13.5117 13.6867 13.3125 13.6875C13.2159 13.6878 13.1203 13.6686 13.0312 13.6312C12.893 13.5753 12.7746 13.4794 12.6911 13.3559C12.6076 13.2323 12.5628 13.0866 12.5625 12.9375V9.75H6.75C6.55109 9.75 6.36032 9.67098 6.21967 9.53033C6.07902 9.38968 6 9.19891 6 9C6 8.80109 6.07902 8.61032 6.21967 8.46967C6.36032 8.32902 6.55109 8.25 6.75 8.25H12.5625V5.0625C12.5628 4.91336 12.6076 4.7677 12.6911 4.64413C12.7746 4.52055 12.893 4.42468 13.0312 4.36875C13.1682 4.31436 13.3179 4.30047 13.4625 4.32872C13.6071 4.35698 13.7405 4.42619 13.8469 4.52813L17.7844 8.46563C17.9252 8.60782 18.0042 8.79986 18.0042 9C18.0042 9.20014 17.9252 9.39218 17.7844 9.53437ZM6.75 16.5H1.5V1.5H6.75C6.94891 1.5 7.13968 1.42098 7.28033 1.28033C7.42098 1.13968 7.5 0.948912 7.5 0.75C7.5 0.551088 7.42098 0.360322 7.28033 0.21967C7.13968 0.0790178 6.94891 0 6.75 0H1.5C1.10218 0 0.720644 0.158035 0.43934 0.43934C0.158035 0.720644 0 1.10218 0 1.5V16.5C0 16.8978 0.158035 17.2794 0.43934 17.5607C0.720644 17.842 1.10218 18 1.5 18H6.75C6.94891 18 7.13968 17.921 7.28033 17.7803C7.42098 17.6397 7.5 17.4489 7.5 17.25C7.5 17.0511 7.42098 16.8603 7.28033 16.7197C7.13968 16.579 6.94891 16.5 6.75 16.5Z" fill="#FA0000"/>
</svg>
