<svg width="25" height="24" viewBox="0 0 25 24" fill="none" xmlns="http://www.w3.org/2000/svg">
<path d="M21.4906 6.13125L20.3469 12.4031C20.2525 12.9212 19.9794 13.3898 19.5751 13.7273C19.1709 14.0648 18.661 14.2497 18.1344 14.25H7.25937L7.67188 16.5H17.75C18.195 16.5 18.63 16.632 19 16.8792C19.37 17.1264 19.6584 17.4778 19.8287 17.889C19.999 18.3001 20.0436 18.7525 19.9568 19.189C19.87 19.6254 19.6557 20.0263 19.341 20.341C19.0263 20.6557 18.6254 20.87 18.189 20.9568C17.7525 21.0436 17.3001 20.999 16.889 20.8287C16.4778 20.6584 16.1264 20.37 15.8792 20C15.632 19.63 15.5 19.195 15.5 18.75C15.5001 18.4943 15.5445 18.2405 15.6312 18H10.1187C10.2055 18.2405 10.2499 18.4943 10.25 18.75C10.2507 19.113 10.1635 19.4708 9.99593 19.7928C9.82835 20.1149 9.58534 20.3916 9.28764 20.5993C8.98994 20.8071 8.64639 20.9397 8.28632 20.9859C7.92625 21.0321 7.56035 20.9905 7.21985 20.8646C6.87935 20.7387 6.57436 20.5323 6.33092 20.2631C6.08747 19.9938 5.9128 19.6696 5.82182 19.3181C5.73083 18.9667 5.72623 18.5985 5.80841 18.2449C5.89059 17.8913 6.05711 17.5628 6.29375 17.2875L3.69687 3H2C1.80109 3 1.61032 2.92098 1.46967 2.78033C1.32902 2.63968 1.25 2.44891 1.25 2.25C1.25 2.05109 1.32902 1.86032 1.46967 1.71967C1.61032 1.57902 1.80109 1.5 2 1.5H3.69687C4.04697 1.50077 4.38578 1.62397 4.65459 1.84827C4.92341 2.07256 5.1053 2.38382 5.16875 2.72813L5.62813 5.25H20.75C20.8595 5.25023 20.9676 5.27473 21.0665 5.32174C21.1653 5.36875 21.2526 5.4371 21.3219 5.52188C21.3944 5.60398 21.4473 5.70152 21.4765 5.8071C21.5058 5.91268 21.5106 6.02353 21.4906 6.13125Z" fill="#222222"/>
</svg>
