<svg width="25" height="24" viewBox="0 0 25 24" fill="none" xmlns="http://www.w3.org/2000/svg">
<path d="M21.0125 9.72187L13.5125 2.90624C13.236 2.65327 12.8748 2.51297 12.5 2.51297C12.1252 2.51297 11.764 2.65327 11.4875 2.90624L3.98752 9.72187C3.83396 9.86235 3.71132 10.0333 3.62739 10.2237C3.54346 10.4142 3.50008 10.62 3.50002 10.8281V19.4625C3.49392 19.8407 3.62743 20.2078 3.87502 20.4937C4.01554 20.6535 4.18864 20.7814 4.38269 20.8687C4.57673 20.956 4.78723 21.0008 5.00002 21H9.50002C9.69893 21 9.88969 20.921 10.0303 20.7803C10.171 20.6397 10.25 20.4489 10.25 20.25V15.75C10.25 15.5511 10.329 15.3603 10.4697 15.2197C10.6103 15.079 10.8011 15 11 15H14C14.1989 15 14.3897 15.079 14.5303 15.2197C14.671 15.3603 14.75 15.5511 14.75 15.75V20.25C14.75 20.4489 14.829 20.6397 14.9697 20.7803C15.1103 20.921 15.3011 21 15.5 21H20C20.2488 21.0022 20.494 20.9409 20.7125 20.8219C20.9503 20.6924 21.1488 20.5014 21.2874 20.2688C21.4259 20.0362 21.4994 19.7707 21.5 19.5V10.8281C21.5 10.62 21.4566 10.4142 21.3726 10.2237C21.2887 10.0333 21.1661 9.86235 21.0125 9.72187Z" fill="#0091ED"/>
</svg>
