<svg width="25" height="24" viewBox="0 0 25 24" fill="none" xmlns="http://www.w3.org/2000/svg">
<path d="M12.5 2.25C10.8067 2.24987 9.14255 2.69074 7.67141 3.52921C6.20026 4.36768 4.97285 5.57483 4.11001 7.03182C3.24717 8.4888 2.77866 10.1454 2.75061 11.8385C2.72255 13.5315 3.13592 15.2027 3.95001 16.6875L3.15313 19.4906C3.07819 19.7486 3.07343 20.0218 3.13935 20.2822C3.20527 20.5426 3.33948 20.7807 3.52813 20.9719C3.71677 21.1614 3.95321 21.2964 4.21235 21.3624C4.47149 21.4284 4.74367 21.4231 5.00001 21.3469L7.81251 20.55C9.1159 21.2644 10.5654 21.6713 12.0501 21.7397C13.5349 21.8081 15.0156 21.5361 16.3791 20.9445C17.7427 20.353 18.9529 19.4575 19.9174 18.3266C20.8818 17.1956 21.5749 15.8592 21.9437 14.4193C22.3125 12.9795 22.3473 11.4744 22.0453 10.0191C21.7433 8.56374 21.1126 7.19672 20.2014 6.02249C19.2901 4.84826 18.1225 3.8979 16.7877 3.24406C15.4529 2.59022 13.9863 2.25021 12.5 2.25ZM8.00001 13.125C7.7775 13.125 7.56 13.059 7.37499 12.9354C7.18999 12.8118 7.04579 12.6361 6.96064 12.4305C6.87549 12.225 6.85322 11.9988 6.89662 11.7805C6.94003 11.5623 7.04718 11.3618 7.20451 11.2045C7.36185 11.0472 7.5623 10.94 7.78053 10.8966C7.99876 10.8532 8.22496 10.8755 8.43053 10.9606C8.63609 11.0458 8.81179 11.19 8.93541 11.375C9.05903 11.56 9.12501 11.7775 9.12501 12C9.12501 12.2984 9.00648 12.5845 8.7955 12.7955C8.58452 13.0065 8.29838 13.125 8.00001 13.125ZM12.5 13.125C12.2775 13.125 12.06 13.059 11.875 12.9354C11.69 12.8118 11.5458 12.6361 11.4606 12.4305C11.3755 12.225 11.3532 11.9988 11.3966 11.7805C11.44 11.5623 11.5472 11.3618 11.7045 11.2045C11.8618 11.0472 12.0623 10.94 12.2805 10.8966C12.4988 10.8532 12.725 10.8755 12.9305 10.9606C13.1361 11.0458 13.3118 11.19 13.4354 11.375C13.559 11.56 13.625 11.7775 13.625 12C13.625 12.2984 13.5065 12.5845 13.2955 12.7955C13.0845 13.0065 12.7984 13.125 12.5 13.125ZM17 13.125C16.7775 13.125 16.56 13.059 16.375 12.9354C16.19 12.8118 16.0458 12.6361 15.9606 12.4305C15.8755 12.225 15.8532 11.9988 15.8966 11.7805C15.94 11.5623 16.0472 11.3618 16.2045 11.2045C16.3618 11.0472 16.5623 10.94 16.7805 10.8966C16.9988 10.8532 17.225 10.8755 17.4305 10.9606C17.6361 11.0458 17.8118 11.19 17.9354 11.375C18.059 11.56 18.125 11.7775 18.125 12C18.125 12.2984 18.0065 12.5845 17.7955 12.7955C17.5845 13.0065 17.2984 13.125 17 13.125Z" fill="#222222"/>
</svg>
