<svg width="25" height="24" viewBox="0 0 25 24" fill="none" xmlns="http://www.w3.org/2000/svg">
<path d="M6.50003 13.125C6.50129 13.2238 6.48275 13.3219 6.44551 13.4135C6.40826 13.5051 6.35306 13.5882 6.28317 13.6581C6.21327 13.728 6.13009 13.7832 6.03853 13.8205C5.94696 13.8577 5.84887 13.8763 5.75003 13.875H1.62503C1.4857 13.8739 1.34929 13.8349 1.2304 13.7622C1.11151 13.6896 1.0146 13.586 0.95003 13.4625C0.88999 13.3368 0.865253 13.1971 0.878463 13.0584C0.891674 12.9197 0.942335 12.7872 1.02503 12.675C1.68877 11.784 2.57445 11.0826 3.59378 10.6406C3.15577 10.2397 2.81924 9.74046 2.61189 9.18403C2.40453 8.6276 2.33228 8.02989 2.40108 7.44008C2.46987 6.85027 2.67775 6.28523 3.0076 5.79147C3.33746 5.2977 3.77985 4.88933 4.29838 4.59995C4.8169 4.31058 5.39674 4.14848 5.99015 4.127C6.58357 4.10551 7.17361 4.22526 7.7117 4.47638C8.2498 4.7275 8.72056 5.10282 9.08526 5.57144C9.44995 6.04006 9.69814 6.58859 9.80941 7.17188C9.83714 7.3238 9.8179 7.48056 9.75425 7.62126C9.6906 7.76196 9.58557 7.87991 9.45316 7.95938C8.24062 8.6784 7.31842 9.79963 6.8469 11.1281C6.61447 11.7681 6.49703 12.4441 6.50003 13.125ZM23.975 12.675C23.3113 11.784 22.4256 11.0826 21.4063 10.6406C21.8443 10.2397 22.1808 9.74046 22.3882 9.18403C22.5955 8.6276 22.6678 8.02989 22.599 7.44008C22.5302 6.85027 22.3223 6.28523 21.9925 5.79147C21.6626 5.2977 21.2202 4.88933 20.7017 4.59995C20.1832 4.31058 19.6033 4.14848 19.0099 4.127C18.4165 4.10551 17.8265 4.22526 17.2884 4.47638C16.7503 4.7275 16.2795 5.10282 15.9148 5.57144C15.5501 6.04006 15.3019 6.58859 15.1907 7.17188C15.1629 7.3238 15.1822 7.48056 15.2458 7.62126C15.3095 7.76196 15.4145 7.87991 15.5469 7.95938C16.761 8.67656 17.6838 9.79844 18.1532 11.1281C18.3856 11.7681 18.503 12.4441 18.5 13.125C18.4988 13.2238 18.5173 13.3219 18.5546 13.4135C18.5918 13.5051 18.647 13.5882 18.7169 13.6581C18.7868 13.728 18.87 13.7832 18.9615 13.8205C19.0531 13.8577 19.1512 13.8763 19.25 13.875H23.375C23.5143 13.875 23.6508 13.8362 23.7693 13.763C23.8878 13.6898 23.9836 13.585 24.0459 13.4604C24.1081 13.3358 24.1345 13.1964 24.122 13.0577C24.1095 12.9189 24.0586 12.7864 23.975 12.675ZM15.2375 16.6969C15.984 16.1248 16.5324 15.3332 16.8057 14.4333C17.0791 13.5335 17.0637 12.5706 16.7616 11.68C16.4595 10.7894 15.886 10.0158 15.1217 9.46786C14.3573 8.91996 13.4405 8.62531 12.5 8.62531C11.5596 8.62531 10.6428 8.91996 9.87839 9.46786C9.11402 10.0158 8.54051 10.7894 8.23845 11.68C7.9364 12.5706 7.92096 13.5335 8.19433 14.4333C8.46769 15.3332 9.01611 16.1248 9.76253 16.6969C8.30428 17.3443 7.12204 18.4867 6.42503 19.9219C6.36957 20.0359 6.34473 20.1625 6.35295 20.289C6.36117 20.4156 6.40216 20.5378 6.47191 20.6438C6.53682 20.7524 6.62882 20.8424 6.73893 20.9048C6.84903 20.9673 6.97345 21.0001 7.10003 21H17.9C18.0266 21.0001 18.151 20.9673 18.2611 20.9048C18.3712 20.8424 18.4632 20.7524 18.5282 20.6438C18.5979 20.5378 18.6389 20.4156 18.6471 20.289C18.6553 20.1625 18.6305 20.0359 18.575 19.9219C17.878 18.4867 16.6958 17.3443 15.2375 16.6969Z" fill="#222222"/>
</svg>
