<svg width="25" height="24" viewBox="0 0 25 24" fill="none" xmlns="http://www.w3.org/2000/svg">
<path d="M24.5 12.75C24.5 12.9489 24.421 13.1397 24.2803 13.2803C24.1397 13.421 23.9489 13.5 23.75 13.5H22.25V15C22.25 15.1989 22.171 15.3897 22.0303 15.5303C21.8897 15.671 21.6989 15.75 21.5 15.75C21.3011 15.75 21.1103 15.671 20.9697 15.5303C20.829 15.3897 20.75 15.1989 20.75 15V13.5H19.25C19.0511 13.5 18.8603 13.421 18.7197 13.2803C18.579 13.1397 18.5 12.9489 18.5 12.75C18.5 12.5511 18.579 12.3603 18.7197 12.2197C18.8603 12.079 19.0511 12 19.25 12H20.75V10.5C20.75 10.3011 20.829 10.1103 20.9697 9.96967C21.1103 9.82902 21.3011 9.75 21.5 9.75C21.6989 9.75 21.8897 9.82902 22.0303 9.96967C22.171 10.1103 22.25 10.3011 22.25 10.5V12H23.75C23.9489 12 24.1397 12.079 24.2803 12.2197C24.421 12.3603 24.5 12.5511 24.5 12.75ZM14.0094 14.775C15.182 14.0404 16.0838 12.9443 16.5785 11.6521C17.0733 10.3598 17.1342 8.94174 16.7521 7.61187C16.3699 6.28199 15.5654 5.11256 14.4601 4.28014C13.3548 3.44773 12.0087 2.99754 10.625 2.99754C9.24132 2.99754 7.89519 3.44773 6.78989 4.28014C5.68459 5.11256 4.88012 6.28199 4.49797 7.61187C4.11582 8.94174 4.17672 10.3598 4.6715 11.6521C5.16627 12.9443 6.06804 14.0404 7.24064 14.775C5.19609 15.4116 3.37933 16.6261 2.00939 18.2719C1.91628 18.3801 1.85689 18.5133 1.83857 18.6549C1.82024 18.7965 1.84378 18.9404 1.90626 19.0688C1.96559 19.1978 2.06076 19.307 2.18044 19.3835C2.30011 19.46 2.43925 19.5004 2.58127 19.5H18.6688C18.8108 19.5004 18.9499 19.46 19.0696 19.3835C19.1893 19.307 19.2844 19.1978 19.3438 19.0688C19.4063 18.9404 19.4298 18.7965 19.4115 18.6549C19.3931 18.5133 19.3338 18.3801 19.2406 18.2719C17.8707 16.6261 16.0539 15.4116 14.0094 14.775Z" fill="#222222"/>
</svg>
