<svg width="40" height="40" viewBox="0 0 40 40" fill="none" xmlns="http://www.w3.org/2000/svg">
<rect x="0.5" y="0.5" width="39" height="39" rx="19.5" stroke="#EEEEEE"/>
<path d="M20 23.375C22.2782 23.375 24.125 21.5282 24.125 19.25C24.125 16.9718 22.2782 15.125 20 15.125C17.7218 15.125 15.875 16.9718 15.875 19.25C15.875 21.5282 17.7218 23.375 20 23.375Z" fill="#222222"/>
<path d="M20 10.25C18.0716 10.25 16.1866 10.8218 14.5832 11.8932C12.9798 12.9645 11.7301 14.4873 10.9922 16.2688C10.2542 18.0504 10.0611 20.0108 10.4373 21.9021C10.8136 23.7934 11.7422 25.5307 13.1057 26.8943C14.4693 28.2579 16.2066 29.1865 18.0979 29.5627C19.9892 29.9389 21.9496 29.7458 23.7312 29.0078C25.5127 28.2699 27.0355 27.0202 28.1068 25.4168C29.1782 23.8134 29.75 21.9284 29.75 20C29.745 17.4157 28.7162 14.9386 26.8888 13.1112C25.0614 11.2838 22.5843 10.255 20 10.25ZM26.1688 25.475C25.5616 24.6041 24.7793 23.8697 23.8719 23.3187C22.83 24.3169 21.4429 24.8741 20 24.8741C18.5571 24.8741 17.17 24.3169 16.1281 23.3187C15.2207 23.8697 14.4384 24.6041 13.8313 25.475C12.7754 24.286 12.0857 22.8173 11.845 21.2455C11.6044 19.6737 11.8231 18.0659 12.4748 16.6155C13.1266 15.1651 14.1836 13.9339 15.5186 13.0702C16.8537 12.2065 18.4099 11.747 20 11.747C21.5901 11.747 23.1463 12.2065 24.4814 13.0702C25.8164 13.9339 26.8734 15.1651 27.5252 16.6155C28.1769 18.0659 28.3956 19.6737 28.155 21.2455C27.9143 22.8173 27.2246 24.286 26.1688 25.475Z" fill="#222222"/>
</svg>
