<svg width="40" height="40" viewBox="0 0 40 40" fill="none" xmlns="http://www.w3.org/2000/svg">
<rect width="40" height="40" rx="20" fill="#F2FFF8"/>
<path d="M17.75 11.75H13.25C12.4216 11.75 11.75 12.4216 11.75 13.25V17.75C11.75 18.5784 12.4216 19.25 13.25 19.25H17.75C18.5784 19.25 19.25 18.5784 19.25 17.75V13.25C19.25 12.4216 18.5784 11.75 17.75 11.75Z" fill="#00C008"/>
<path d="M14.7653 21.5077C14.7653 21.7066 14.8443 21.8974 14.9849 22.038C15.1256 22.1787 15.3163 22.2577 15.5153 22.2577H18.5153C18.7142 22.2577 18.9049 22.1787 19.0456 22.038C19.1862 21.8974 19.2653 21.7066 19.2653 21.5077C19.2653 21.3088 19.1862 21.118 19.0456 20.9774C18.9049 20.8367 18.7142 20.7577 18.5153 20.7577H15.5153C15.3163 20.7577 15.1256 20.8367 14.9849 20.9774C14.8443 21.118 14.7653 21.3088 14.7653 21.5077Z" fill="#00C008"/>
<path d="M17.75 27.5V25.25H18.5C18.6989 25.25 18.8897 25.171 19.0303 25.0303C19.171 24.8897 19.25 24.6989 19.25 24.5C19.25 24.3011 19.171 24.1103 19.0303 23.9697C18.8897 23.829 18.6989 23.75 18.5 23.75H13.25V21.5C13.25 21.3011 13.171 21.1103 13.0303 20.9697C12.8897 20.829 12.6989 20.75 12.5 20.75C12.3011 20.75 12.1103 20.829 11.9697 20.9697C11.829 21.1103 11.75 21.3011 11.75 21.5V24.5C11.75 24.6989 11.829 24.8897 11.9697 25.0303C12.1103 25.171 12.3011 25.25 12.5 25.25H16.25V27.5C16.25 27.6989 16.329 27.8897 16.4697 28.0303C16.6103 28.171 16.8011 28.25 17 28.25C17.1989 28.25 17.3897 28.171 17.5303 28.0303C17.671 27.8897 17.75 27.6989 17.75 27.5Z" fill="#00C008"/>
<path d="M14.7348 27.4886C14.7348 27.2896 14.6558 27.0989 14.5151 26.9582C14.3745 26.8176 14.1837 26.7386 13.9848 26.7386H12.4848C12.2859 26.7386 12.0951 26.8176 11.9545 26.9582C11.8138 27.0989 11.7348 27.2896 11.7348 27.4886C11.7348 27.6875 11.8138 27.8782 11.9545 28.0189C12.0951 28.1595 12.2859 28.2386 12.4848 28.2386H13.9848C14.1837 28.2386 14.3745 28.1595 14.5151 28.0189C14.6558 27.8782 14.7348 27.6875 14.7348 27.4886Z" fill="#00C008"/>
<path d="M23.7653 12.5077C23.7653 12.7066 23.8443 12.8974 23.9849 13.038C24.1256 13.1787 24.3163 13.2577 24.5153 13.2577H27.5153C27.7142 13.2577 27.9049 13.1787 28.0456 13.038C28.1862 12.8974 28.2653 12.7066 28.2653 12.5077C28.2653 12.3088 28.1862 12.118 28.0456 11.9774C27.9049 11.8367 27.7142 11.7577 27.5153 11.7577H24.5153C24.3163 11.7577 24.1256 11.8367 23.9849 11.9774C23.8443 12.118 23.7653 12.3088 23.7653 12.5077Z" fill="#00C008"/>
<path d="M26.7501 18.5V16.25H27.5001C27.699 16.25 27.8897 16.171 28.0304 16.0304C28.171 15.8897 28.2501 15.6989 28.2501 15.5C28.2501 15.3011 28.171 15.1104 28.0304 14.9697C27.8897 14.829 27.699 14.75 27.5001 14.75H22.2501V12.5C22.2501 12.3011 22.171 12.1104 22.0304 11.9697C21.8897 11.829 21.699 11.75 21.5001 11.75C21.3011 11.75 21.1104 11.829 20.9697 11.9697C20.8291 12.1104 20.7501 12.3011 20.7501 12.5V15.5C20.7501 15.6989 20.8291 15.8897 20.9697 16.0304C21.1104 16.171 21.3011 16.25 21.5001 16.25H25.2501V18.5C25.2501 18.6989 25.3291 18.8897 25.4697 19.0304C25.6104 19.171 25.8011 19.25 26.0001 19.25C26.199 19.25 26.3897 19.171 26.5304 19.0304C26.671 18.8897 26.7501 18.6989 26.7501 18.5Z" fill="#00C008"/>
<path d="M23.7347 18.4885C23.7347 18.2896 23.6557 18.0988 23.5151 17.9582C23.3744 17.8175 23.1837 17.7385 22.9847 17.7385H21.4847C21.2858 17.7385 21.0951 17.8175 20.9544 17.9582C20.8138 18.0988 20.7347 18.2896 20.7347 18.4885C20.7347 18.6874 20.8138 18.8782 20.9544 19.0189C21.0951 19.1595 21.2858 19.2385 21.4847 19.2385H22.9847C23.1837 19.2385 23.3744 19.1595 23.5151 19.0189C23.6557 18.8782 23.7347 18.6874 23.7347 18.4885Z" fill="#00C008"/>
<path d="M21.5 25.25C21.6989 25.25 21.8897 25.171 22.0303 25.0303C22.171 24.8897 22.25 24.6989 22.25 24.5V21.5C22.25 21.3011 22.171 21.1103 22.0303 20.9697C21.8897 20.829 21.6989 20.75 21.5 20.75C21.3011 20.75 21.1103 20.829 20.9697 20.9697C20.829 21.1103 20.75 21.3011 20.75 21.5V24.5C20.75 24.6989 20.829 24.8897 20.9697 25.0303C21.1103 25.171 21.3011 25.25 21.5 25.25Z" fill="#00C008"/>
<path d="M27.5 22.25H25.25V21.5C25.25 21.3011 25.171 21.1103 25.0303 20.9697C24.8897 20.829 24.6989 20.75 24.5 20.75C24.3011 20.75 24.1103 20.829 23.9697 20.9697C23.829 21.1103 23.75 21.3011 23.75 21.5V26.75H21.5C21.3011 26.75 21.1103 26.829 20.9697 26.9697C20.829 27.1103 20.75 27.3011 20.75 27.5C20.75 27.6989 20.829 27.8897 20.9697 28.0303C21.1103 28.171 21.3011 28.25 21.5 28.25H24.5C24.6989 28.25 24.8897 28.171 25.0303 28.0303C25.171 27.8897 25.25 27.6989 25.25 27.5V23.75H27.5C27.6989 23.75 27.8897 23.671 28.0303 23.5303C28.171 23.3897 28.25 23.1989 28.25 23C28.25 22.8011 28.171 22.6103 28.0303 22.4697C27.8897 22.329 27.6989 22.25 27.5 22.25Z" fill="#00C008"/>
<path d="M27.5 25.25C27.3011 25.25 27.1103 25.329 26.9697 25.4697C26.829 25.6103 26.75 25.8011 26.75 26V27.5C26.75 27.6989 26.829 27.8897 26.9697 28.0303C27.1103 28.171 27.3011 28.25 27.5 28.25C27.6989 28.25 27.8897 28.171 28.0303 28.0303C28.171 27.8897 28.25 27.6989 28.25 27.5V26C28.25 25.8011 28.171 25.6103 28.0303 25.4697C27.8897 25.329 27.6989 25.25 27.5 25.25Z" fill="#00C008"/>
</svg>
