<svg width="40" height="40" viewBox="0 0 40 40" fill="none" xmlns="http://www.w3.org/2000/svg">
<rect width="40" height="40" rx="20" fill="#F2F7FF"/>
<path d="M26.75 10.25H13.25C12.8522 10.25 12.4706 10.408 12.1893 10.6893C11.908 10.9706 11.75 11.3522 11.75 11.75V28.25C11.75 28.6478 11.908 29.0294 12.1893 29.3107C12.4706 29.592 12.8522 29.75 13.25 29.75H26.75C27.1478 29.75 27.5294 29.592 27.8107 29.3107C28.092 29.0294 28.25 28.6478 28.25 28.25V11.75C28.25 11.3522 28.092 10.9706 27.8107 10.6893C27.5294 10.408 27.1478 10.25 26.75 10.25ZM16.25 26.75C16.0275 26.75 15.81 26.684 15.625 26.5604C15.44 26.4368 15.2958 26.2611 15.2106 26.0555C15.1255 25.85 15.1032 25.6238 15.1466 25.4055C15.19 25.1873 15.2972 24.9868 15.4545 24.8295C15.6118 24.6722 15.8123 24.565 16.0305 24.5216C16.2488 24.4782 16.475 24.5005 16.6805 24.5856C16.8861 24.6708 17.0618 24.815 17.1854 25C17.309 25.185 17.375 25.4025 17.375 25.625C17.375 25.9234 17.2565 26.2095 17.0455 26.4205C16.8345 26.6315 16.5484 26.75 16.25 26.75ZM16.25 23C16.0275 23 15.81 22.934 15.625 22.8104C15.44 22.6868 15.2958 22.5111 15.2106 22.3055C15.1255 22.1 15.1032 21.8738 15.1466 21.6555C15.19 21.4373 15.2972 21.2368 15.4545 21.0795C15.6118 20.9222 15.8123 20.815 16.0305 20.7716C16.2488 20.7282 16.475 20.7505 16.6805 20.8356C16.8861 20.9208 17.0618 21.065 17.1854 21.25C17.309 21.435 17.375 21.6525 17.375 21.875C17.375 22.1734 17.2565 22.4595 17.0455 22.6705C16.8345 22.8815 16.5484 23 16.25 23ZM20 26.75C19.7775 26.75 19.56 26.684 19.375 26.5604C19.19 26.4368 19.0458 26.2611 18.9606 26.0555C18.8755 25.85 18.8532 25.6238 18.8966 25.4055C18.94 25.1873 19.0472 24.9868 19.2045 24.8295C19.3618 24.6722 19.5623 24.565 19.7805 24.5216C19.9988 24.4782 20.225 24.5005 20.4305 24.5856C20.6361 24.6708 20.8118 24.815 20.9354 25C21.059 25.185 21.125 25.4025 21.125 25.625C21.125 25.9234 21.0065 26.2095 20.7955 26.4205C20.5845 26.6315 20.2984 26.75 20 26.75ZM20 23C19.7775 23 19.56 22.934 19.375 22.8104C19.19 22.6868 19.0458 22.5111 18.9606 22.3055C18.8755 22.1 18.8532 21.8738 18.8966 21.6555C18.94 21.4373 19.0472 21.2368 19.2045 21.0795C19.3618 20.9222 19.5623 20.815 19.7805 20.7716C19.9988 20.7282 20.225 20.7505 20.4305 20.8356C20.6361 20.9208 20.8118 21.065 20.9354 21.25C21.059 21.435 21.125 21.6525 21.125 21.875C21.125 22.1734 21.0065 22.4595 20.7955 22.6705C20.5845 22.8815 20.2984 23 20 23ZM23.75 26.75C23.5275 26.75 23.31 26.684 23.125 26.5604C22.94 26.4368 22.7958 26.2611 22.7106 26.0555C22.6255 25.85 22.6032 25.6238 22.6466 25.4055C22.69 25.1873 22.7972 24.9868 22.9545 24.8295C23.1118 24.6722 23.3123 24.565 23.5305 24.5216C23.7488 24.4782 23.975 24.5005 24.1805 24.5856C24.3861 24.6708 24.5618 24.815 24.6854 25C24.809 25.185 24.875 25.4025 24.875 25.625C24.875 25.9234 24.7565 26.2095 24.5455 26.4205C24.3345 26.6315 24.0484 26.75 23.75 26.75ZM23.75 23C23.5275 23 23.31 22.934 23.125 22.8104C22.94 22.6868 22.7958 22.5111 22.7106 22.3055C22.6255 22.1 22.6032 21.8738 22.6466 21.6555C22.69 21.4373 22.7972 21.2368 22.9545 21.0795C23.1118 20.9222 23.3123 20.815 23.5305 20.7716C23.7488 20.7282 23.975 20.7505 24.1805 20.8356C24.3861 20.9208 24.5618 21.065 24.6854 21.25C24.809 21.435 24.875 21.6525 24.875 21.875C24.875 22.1734 24.7565 22.4595 24.5455 22.6705C24.3345 22.8815 24.0484 23 23.75 23ZM25.25 17.75C25.25 17.9489 25.171 18.1397 25.0303 18.2803C24.8897 18.421 24.6989 18.5 24.5 18.5H15.5C15.3011 18.5 15.1103 18.421 14.9697 18.2803C14.829 18.1397 14.75 17.9489 14.75 17.75V14C14.75 13.8011 14.829 13.6103 14.9697 13.4697C15.1103 13.329 15.3011 13.25 15.5 13.25H24.5C24.6989 13.25 24.8897 13.329 25.0303 13.4697C25.171 13.6103 25.25 13.8011 25.25 14V17.75Z" fill="#0065FD"/>
</svg>
