<svg width="24" height="24" viewBox="0 0 24 24" fill="none" xmlns="http://www.w3.org/2000/svg">
<path d="M24 12.75C24 12.9489 23.921 13.1397 23.7803 13.2803C23.6397 13.421 23.4489 13.5 23.25 13.5H21.75V15C21.75 15.1989 21.671 15.3897 21.5303 15.5303C21.3897 15.671 21.1989 15.75 21 15.75C20.8011 15.75 20.6103 15.671 20.4697 15.5303C20.329 15.3897 20.25 15.1989 20.25 15V13.5H18.75C18.5511 13.5 18.3603 13.421 18.2197 13.2803C18.079 13.1397 18 12.9489 18 12.75C18 12.5511 18.079 12.3603 18.2197 12.2197C18.3603 12.079 18.5511 12 18.75 12H20.25V10.5C20.25 10.3011 20.329 10.1103 20.4697 9.96967C20.6103 9.82902 20.8011 9.75 21 9.75C21.1989 9.75 21.3897 9.82902 21.5303 9.96967C21.671 10.1103 21.75 10.3011 21.75 10.5V12H23.25C23.4489 12 23.6397 12.079 23.7803 12.2197C23.921 12.3603 24 12.5511 24 12.75ZM13.5094 14.775C14.682 14.0404 15.5838 12.9443 16.0785 11.6521C16.5733 10.3598 16.6342 8.94174 16.2521 7.61187C15.8699 6.28199 15.0654 5.11256 13.9601 4.28014C12.8548 3.44773 11.5087 2.99754 10.125 2.99754C8.74132 2.99754 7.39519 3.44773 6.28989 4.28014C5.18459 5.11256 4.38012 6.28199 3.99797 7.61187C3.61582 8.94174 3.67672 10.3598 4.1715 11.6521C4.66627 12.9443 5.56804 14.0404 6.74064 14.775C4.69609 15.4116 2.87933 16.6261 1.50939 18.2719C1.41628 18.3801 1.35689 18.5133 1.33857 18.6549C1.32024 18.7965 1.34378 18.9404 1.40626 19.0688C1.46559 19.1978 1.56076 19.307 1.68044 19.3835C1.80011 19.46 1.93925 19.5004 2.08127 19.5H18.1688C18.3108 19.5004 18.4499 19.46 18.5696 19.3835C18.6893 19.307 18.7844 19.1978 18.8438 19.0688C18.9063 18.9404 18.9298 18.7965 18.9115 18.6549C18.8931 18.5133 18.8338 18.3801 18.7406 18.2719C17.3707 16.6261 15.5539 15.4116 13.5094 14.775Z" fill="#9200EB"/>
</svg>
