<svg width="24" height="24" viewBox="0 0 24 24" fill="none" xmlns="http://www.w3.org/2000/svg">
<path d="M6.00003 13.125C6.00129 13.2238 5.98275 13.3219 5.94551 13.4135C5.90826 13.5051 5.85306 13.5882 5.78317 13.6581C5.71327 13.728 5.63009 13.7832 5.53853 13.8205C5.44696 13.8577 5.34887 13.8763 5.25003 13.875H1.12503C0.985698 13.8739 0.849293 13.8349 0.7304 13.7622C0.611506 13.6896 0.514596 13.586 0.45003 13.4625C0.38999 13.3368 0.365253 13.1971 0.378463 13.0584C0.391674 12.9197 0.442335 12.7872 0.52503 12.675C1.18877 11.784 2.07445 11.0826 3.09378 10.6406C2.65577 10.2397 2.31924 9.74046 2.11189 9.18403C1.90453 8.6276 1.83228 8.02989 1.90108 7.44008C1.96987 6.85027 2.17775 6.28523 2.5076 5.79147C2.83746 5.2977 3.27985 4.88933 3.79838 4.59995C4.3169 4.31058 4.89674 4.14848 5.49015 4.127C6.08357 4.10551 6.67361 4.22526 7.2117 4.47638C7.7498 4.7275 8.22056 5.10282 8.58526 5.57144C8.94995 6.04006 9.19814 6.58859 9.30941 7.17188C9.33714 7.3238 9.3179 7.48056 9.25425 7.62126C9.1906 7.76196 9.08557 7.87991 8.95316 7.95938C7.74062 8.6784 6.81842 9.79963 6.3469 11.1281C6.11447 11.7681 5.99703 12.4441 6.00003 13.125ZM23.475 12.675C22.8113 11.784 21.9256 11.0826 20.9063 10.6406C21.3443 10.2397 21.6808 9.74046 21.8882 9.18403C22.0955 8.6276 22.1678 8.02989 22.099 7.44008C22.0302 6.85027 21.8223 6.28523 21.4925 5.79147C21.1626 5.2977 20.7202 4.88933 20.2017 4.59995C19.6832 4.31058 19.1033 4.14848 18.5099 4.127C17.9165 4.10551 17.3265 4.22526 16.7884 4.47638C16.2503 4.7275 15.7795 5.10282 15.4148 5.57144C15.0501 6.04006 14.8019 6.58859 14.6907 7.17188C14.6629 7.3238 14.6822 7.48056 14.7458 7.62126C14.8095 7.76196 14.9145 7.87991 15.0469 7.95938C16.261 8.67656 17.1838 9.79844 17.6532 11.1281C17.8856 11.7681 18.003 12.4441 18 13.125C17.9988 13.2238 18.0173 13.3219 18.0546 13.4135C18.0918 13.5051 18.147 13.5882 18.2169 13.6581C18.2868 13.728 18.37 13.7832 18.4615 13.8205C18.5531 13.8577 18.6512 13.8763 18.75 13.875H22.875C23.0143 13.875 23.1508 13.8362 23.2693 13.763C23.3878 13.6898 23.4836 13.585 23.5459 13.4604C23.6081 13.3358 23.6345 13.1964 23.622 13.0577C23.6095 12.9189 23.5586 12.7864 23.475 12.675ZM14.7375 16.6969C15.484 16.1248 16.0324 15.3332 16.3057 14.4333C16.5791 13.5335 16.5637 12.5706 16.2616 11.68C15.9595 10.7894 15.386 10.0158 14.6217 9.46786C13.8573 8.91996 12.9405 8.62531 12 8.62531C11.0596 8.62531 10.1428 8.91996 9.37839 9.46786C8.61402 10.0158 8.04051 10.7894 7.73845 11.68C7.4364 12.5706 7.42096 13.5335 7.69433 14.4333C7.96769 15.3332 8.51611 16.1248 9.26253 16.6969C7.80428 17.3443 6.62204 18.4867 5.92503 19.9219C5.86957 20.0359 5.84473 20.1625 5.85295 20.289C5.86117 20.4156 5.90216 20.5378 5.97191 20.6438C6.03682 20.7524 6.12882 20.8424 6.23893 20.9048C6.34903 20.9673 6.47345 21.0001 6.60003 21H17.4C17.5266 21.0001 17.651 20.9673 17.7611 20.9048C17.8712 20.8424 17.9632 20.7524 18.0282 20.6438C18.0979 20.5378 18.1389 20.4156 18.1471 20.289C18.1553 20.1625 18.1305 20.0359 18.075 19.9219C17.378 18.4867 16.1958 17.3443 14.7375 16.6969Z" fill="#03C55E"/>
</svg>
