<svg width="20" height="20" viewBox="0 0 20 20" fill="none" xmlns="http://www.w3.org/2000/svg">
<path d="M10 0.25C8.3067 0.249871 6.64255 0.690745 5.17141 1.52921C3.70026 2.36768 2.47285 3.57483 1.61001 5.03182C0.747172 6.4888 0.278662 8.14538 0.250606 9.83846C0.222551 11.5315 0.635918 13.2027 1.45001 14.6875L0.653133 17.4906C0.578187 17.7486 0.573429 18.0218 0.63935 18.2822C0.705271 18.5426 0.839482 18.7807 1.02813 18.9719C1.21677 19.1614 1.45321 19.2964 1.71235 19.3624C1.97149 19.4284 2.24367 19.4231 2.50001 19.3469L5.31251 18.55C6.6159 19.2644 8.06537 19.6713 9.55012 19.7397C11.0349 19.8081 12.5156 19.5361 13.8791 18.9445C15.2427 18.353 16.4529 17.4575 17.4174 16.3266C18.3818 15.1956 19.0749 13.8592 19.4437 12.4193C19.8125 10.9795 19.8473 9.47439 19.5453 8.01906C19.2433 6.56374 18.6126 5.19672 17.7014 4.02249C16.7901 2.84826 15.6225 1.8979 14.2877 1.24406C12.9529 0.590223 11.4863 0.250206 10 0.25ZM5.50001 11.125C5.2775 11.125 5.06 11.059 4.87499 10.9354C4.68999 10.8118 4.54579 10.6361 4.46064 10.4305C4.37549 10.225 4.35322 9.99875 4.39662 9.78052C4.44003 9.56229 4.54718 9.36184 4.70451 9.2045C4.86185 9.04717 5.0623 8.94002 5.28053 8.89662C5.49876 8.85321 5.72496 8.87549 5.93053 8.96064C6.13609 9.04578 6.31179 9.18998 6.43541 9.37498C6.55903 9.55999 6.62501 9.7775 6.62501 10C6.62501 10.2984 6.50648 10.5845 6.2955 10.7955C6.08452 11.0065 5.79838 11.125 5.50001 11.125ZM10 11.125C9.7775 11.125 9.56 11.059 9.37499 10.9354C9.18999 10.8118 9.04579 10.6361 8.96064 10.4305C8.87549 10.225 8.85322 9.99875 8.89662 9.78052C8.94003 9.56229 9.04718 9.36184 9.20451 9.2045C9.36185 9.04717 9.5623 8.94002 9.78053 8.89662C9.99876 8.85321 10.225 8.87549 10.4305 8.96064C10.6361 9.04578 10.8118 9.18998 10.9354 9.37498C11.059 9.55999 11.125 9.7775 11.125 10C11.125 10.2984 11.0065 10.5845 10.7955 10.7955C10.5845 11.0065 10.2984 11.125 10 11.125ZM14.5 11.125C14.2775 11.125 14.06 11.059 13.875 10.9354C13.69 10.8118 13.5458 10.6361 13.4606 10.4305C13.3755 10.225 13.3532 9.99875 13.3966 9.78052C13.44 9.56229 13.5472 9.36184 13.7045 9.2045C13.8618 9.04717 14.0623 8.94002 14.2805 8.89662C14.4988 8.85321 14.725 8.87549 14.9305 8.96064C15.1361 9.04578 15.3118 9.18998 15.4354 9.37498C15.559 9.55999 15.625 9.7775 15.625 10C15.625 10.2984 15.5065 10.5845 15.2955 10.7955C15.0845 11.0065 14.7984 11.125 14.5 11.125Z" fill="#FA9600"/>
</svg>
