<svg width="21" height="20" viewBox="0 0 21 20" fill="none" xmlns="http://www.w3.org/2000/svg">
<path d="M20.9906 5.13125L19.8469 11.4031C19.7525 11.9212 19.4794 12.3898 19.0751 12.7273C18.6709 13.0648 18.161 13.2497 17.6344 13.25H6.75937L7.17188 15.5H17.25C17.695 15.5 18.13 15.632 18.5 15.8792C18.87 16.1264 19.1584 16.4778 19.3287 16.889C19.499 17.3001 19.5436 17.7525 19.4568 18.189C19.37 18.6254 19.1557 19.0263 18.841 19.341C18.5263 19.6557 18.1254 19.87 17.689 19.9568C17.2525 20.0436 16.8001 19.999 16.389 19.8287C15.9778 19.6584 15.6264 19.37 15.3792 19C15.132 18.63 15 18.195 15 17.75C15.0001 17.4943 15.0445 17.2405 15.1312 17H9.61875C9.70551 17.2405 9.74992 17.4943 9.75 17.75C9.75068 18.113 9.66351 18.4708 9.49593 18.7928C9.32835 19.1149 9.08534 19.3916 8.78764 19.5993C8.48994 19.8071 8.14639 19.9397 7.78632 19.9859C7.42625 20.0321 7.06035 19.9905 6.71985 19.8646C6.37935 19.7387 6.07436 19.5323 5.83092 19.2631C5.58747 18.9938 5.4128 18.6696 5.32182 18.3181C5.23083 17.9667 5.22623 17.5985 5.30841 17.2449C5.39059 16.8913 5.55711 16.5628 5.79375 16.2875L3.19687 2H1.5C1.30109 2 1.11032 1.92098 0.96967 1.78033C0.829018 1.63968 0.75 1.44891 0.75 1.25C0.75 1.05109 0.829018 0.860322 0.96967 0.71967C1.11032 0.579018 1.30109 0.5 1.5 0.5H3.19687C3.54697 0.500766 3.88578 0.623969 4.15459 0.848266C4.42341 1.07256 4.6053 1.38382 4.66875 1.72813L5.12813 4.25H20.25C20.3595 4.25023 20.4676 4.27473 20.5665 4.32174C20.6653 4.36875 20.7526 4.4371 20.8219 4.52188C20.8944 4.60398 20.9473 4.70152 20.9765 4.8071C21.0058 4.91268 21.0106 5.02353 20.9906 5.13125Z" fill="#00E391"/>
</svg>
